<?xml version="1.0" standalone="no"?>
<!DOCTYPE svg PUBLIC "-//W3C//DTD SVG 20010904//EN"
 "http://www.w3.org/TR/2001/REC-SVG-20010904/DTD/svg10.dtd">
<svg version="1.0" xmlns="http://www.w3.org/2000/svg"
 width="366.000000pt" height="280.000000pt" viewBox="0 0 366.000000 280.000000"
 preserveAspectRatio="xMidYMid meet">

<g transform="translate(0.000000,280.000000) scale(0.100000,-0.100000)"
fill="#000000" stroke="none">
<path d="M1156 2182 c-18 -34 -47 -155 -77 -316 l-22 -118 -65 -29 c-103 -47
-101 -50 -73 103 13 68 15 100 8 107 -13 13 -76 14 -94 3 -13 -8 -48 -159 -59
-255 -5 -43 -12 -62 -28 -73 -11 -9 -79 -54 -151 -100 -71 -47 -134 -89 -139
-94 -13 -13 43 -60 71 -60 29 0 68 19 145 71 72 49 81 49 73 2 -11 -62 -15
-73 -38 -84 -12 -7 -52 -34 -89 -61 -72 -53 -76 -68 -27 -88 25 -11 37 -9 79
8 27 11 52 17 55 13 2 -5 4 -39 4 -77 0 -38 2 -82 6 -97 7 -26 8 -27 22 -10 8
10 11 12 7 4 -4 -9 -2 -12 7 -9 8 3 14 14 14 25 0 12 3 25 8 29 4 4 7 0 7 -10
0 -38 17 -4 18 36 2 48 10 128 18 171 5 22 19 34 75 62 38 19 75 35 83 35 11
0 15 -17 18 -71 2 -39 0 -79 -4 -89 -5 -13 -1 -26 10 -36 12 -13 13 -19 4 -22
-19 -6 -14 -22 8 -22 13 0 22 9 26 28 3 15 10 43 15 63 5 20 11 58 14 85 11
100 18 116 60 139 22 13 39 30 40 41 1 17 -4 19 -33 16 l-34 -4 6 43 c21 137
20 135 112 180 46 22 84 45 84 50 0 5 7 9 15 9 26 0 65 31 65 51 0 11 -4 19
-10 19 -5 0 -10 -4 -10 -8 0 -5 -13 -9 -29 -10 -16 0 -49 -7 -73 -15 -23 -8
-58 -18 -76 -22 -31 -6 -32 -5 -27 17 3 12 19 91 35 173 17 83 32 158 34 168
5 23 -27 57 -54 57 -11 0 -26 -12 -34 -28z m-121 -624 c-4 -35 -12 -68 -17
-75 -5 -6 -43 -23 -85 -37 l-75 -25 7 57 c8 67 11 71 89 111 85 45 89 43 81
-31z"/>
<path d="M2380 2108 c-17 -38 -34 -97 -70 -236 -10 -39 -16 -45 -83 -78 -40
-20 -74 -38 -77 -41 -3 -3 8 -16 24 -30 23 -20 37 -24 63 -20 39 7 39 6 19
-90 -46 -216 -59 -387 -36 -444 12 -27 14 -29 23 -13 7 13 7 19 -2 22 -15 5 5
32 24 32 8 0 17 29 25 78 19 125 70 404 81 443 8 33 15 39 67 58 31 11 89 28
127 37 39 9 75 23 81 30 6 8 17 14 23 14 7 0 9 5 6 10 -8 13 -94 13 -190 -1
-42 -6 -79 -9 -81 -7 -2 3 8 46 21 97 28 102 31 151 13 169 -22 22 -39 13 -58
-30z"/>
<path d="M2002 1988 c-68 -235 -162 -801 -145 -867 5 -19 42 -41 68 -41 15 0
18 11 40 155 9 55 20 118 26 140 13 48 60 145 71 145 9 0 7 -11 -33 -213 -43
-212 -34 -278 30 -229 19 16 29 47 62 198 42 190 52 302 30 328 -15 18 -73 21
-103 5 -11 -6 -22 -8 -25 -5 -3 2 13 96 35 208 37 183 39 205 26 226 -8 12
-25 22 -38 22 -20 0 -26 -9 -44 -72z"/>
<path d="M2882 1779 c-42 -9 -63 -28 -96 -89 -34 -63 -54 -129 -62 -207 l-7
-63 -34 0 -33 0 6 149 c6 131 5 153 -10 175 -18 29 -37 32 -86 15 -62 -22
-143 -181 -174 -344 -22 -112 -34 -242 -24 -259 14 -25 39 -6 64 50 20 45 31
57 74 79 28 14 54 23 59 21 4 -3 11 -40 15 -83 5 -43 9 -87 10 -97 3 -24 34
-36 64 -25 22 8 23 13 18 57 -3 26 -8 80 -12 120 -6 72 -6 72 26 102 18 17 33
30 35 30 1 0 5 -29 7 -65 3 -58 8 -69 38 -100 60 -62 137 -40 235 67 61 66 77
106 54 134 -8 10 3 20 50 43 41 21 59 35 55 45 -3 8 2 16 13 19 10 3 5 5 -13
6 -45 1 -257 -68 -281 -93 -4 -3 17 -16 45 -28 29 -12 52 -25 52 -28 0 -13
-122 -130 -134 -130 -21 0 -27 57 -16 142 13 105 17 123 47 196 18 45 29 60
36 53 8 -8 8 -23 0 -51 -5 -22 -8 -42 -5 -45 7 -7 67 -6 87 1 19 8 45 66 45
103 0 18 -12 39 -37 63 -43 40 -64 47 -111 37z m-315 -196 c-4 -38 -7 -96 -7
-131 0 -62 0 -63 -35 -78 -50 -20 -55 -18 -49 19 20 115 68 257 87 257 6 0 7
-27 4 -67z"/>
<path d="M1392 1688 c-34 -43 -118 -245 -158 -383 -21 -72 -33 -87 -85 -110
-46 -21 -46 -36 -1 -50 36 -10 37 -13 21 -119 -13 -87 -9 -107 20 -99 12 3 18
9 15 15 -3 5 -12 3 -22 -4 -13 -11 -14 -11 -10 2 3 8 15 14 26 13 17 -2 24 7
37 48 9 27 18 55 19 62 1 7 10 37 19 68 14 47 22 58 53 73 27 12 39 14 44 6 4
-7 10 -62 14 -123 4 -62 9 -113 11 -115 7 -7 43 18 50 35 4 10 10 73 13 140
l4 123 42 25 c51 31 114 85 99 85 -6 0 -38 -8 -72 -19 -33 -10 -61 -17 -63
-16 -2 2 0 66 5 142 4 76 5 148 2 160 -3 13 -19 29 -35 38 -35 18 -35 18 -48
3z m-12 -328 c0 -40 -4 -51 -21 -60 -11 -7 -23 -9 -26 -7 -7 8 29 117 39 117
4 0 8 -22 8 -50z"/>
<path d="M1725 1673 c-32 -8 -66 -44 -91 -98 -42 -89 -29 -135 65 -233 34 -34
61 -68 61 -74 0 -6 -24 -34 -53 -62 -267 -257 -318 -315 -342 -393 -8 -29 15
-31 40 -3 10 11 22 17 27 14 5 -3 43 30 84 74 41 45 124 124 185 178 104 92
139 134 139 169 0 8 -31 49 -70 91 -38 41 -71 85 -72 97 -4 65 13 106 74 179
21 27 36 52 33 58 -6 10 -44 12 -80 3z"/>
<path d="M4 100 c0 -58 1 -81 3 -53 2 29 2 77 0 105 -2 29 -3 6 -3 -52z"/>
<path d="M1133 95 c0 -27 2 -38 4 -22 2 15 8 27 13 27 5 0 11 -12 13 -27 4
-26 4 -26 6 5 1 22 -4 32 -13 32 -8 0 -17 8 -19 18 -3 9 -5 -5 -4 -33z"/>
<path d="M1632 95 c0 -27 2 -43 5 -35 3 8 13 24 22 35 15 18 15 19 -1 7 -14
-12 -17 -10 -21 15 -2 16 -4 6 -5 -22z"/>
<path d="M1250 120 c-4 -25 1 -54 10 -63 4 -5 5 3 3 17 -4 19 -1 26 10 26 9 0
17 -10 19 -22 2 -12 9 -23 16 -24 7 -1 8 0 2 3 -12 6 -13 40 -1 45 5 2 3 9 -5
16 -8 7 -14 8 -14 2 0 -14 -27 -13 -33 3 -4 8 -6 8 -7 -3z"/>
<path d="M1479 118 c-2 -25 3 -53 11 -62 5 -5 6 1 3 14 -3 12 -1 25 4 29 7 4
6 11 -3 19 -11 10 -14 10 -15 0z"/>
<path d="M2030 125 c-1 -5 -1 -21 0 -34 1 -13 -4 -28 -12 -32 -9 -6 -3 -9 17
-9 17 0 25 4 18 8 -6 4 -13 23 -16 42 -2 19 -5 31 -7 25z"/>
<path d="M2090 125 c-1 -5 -1 -21 0 -34 1 -13 -4 -28 -12 -32 -9 -6 -3 -9 17
-9 17 0 25 4 18 8 -6 4 -13 23 -16 42 -2 19 -5 31 -7 25z"/>
<path d="M2140 106 c-15 -29 -8 -56 15 -56 23 0 31 31 12 45 -12 9 -14 14 -5
23 7 7 8 12 2 12 -6 0 -16 -11 -24 -24z m22 -31 c0 -5 -5 -11 -11 -13 -6 -2
-11 4 -11 13 0 9 5 15 11 13 6 -2 11 -8 11 -13z"/>
<path d="M2195 120 c-3 -5 0 -7 8 -4 24 9 28 -12 7 -31 -27 -25 -25 -35 8 -34
21 0 23 2 9 7 -15 7 -16 10 -3 27 7 10 12 25 9 32 -6 15 -29 17 -38 3z"/>
<path d="M2257 123 c-12 -12 -7 -33 7 -33 26 0 28 -20 4 -29 -14 -6 -17 -10
-7 -10 8 -1 20 4 26 10 14 14 6 39 -13 39 -20 0 -17 18 4 23 14 4 14 5 1 6 -9
0 -19 -2 -22 -6z"/>
<path d="M2320 106 c-15 -29 -8 -56 15 -56 23 0 31 31 12 45 -12 9 -14 14 -5
23 7 7 8 12 2 12 -6 0 -16 -11 -24 -24z m22 -31 c0 -5 -5 -11 -11 -13 -6 -2
-11 4 -11 13 0 9 5 15 11 13 6 -2 11 -8 11 -13z"/>
<path d="M2377 123 c-12 -12 -7 -33 7 -33 26 0 28 -20 4 -29 -14 -6 -17 -10
-7 -10 8 -1 20 4 26 10 14 14 6 39 -13 39 -20 0 -17 18 4 23 14 4 14 5 1 6 -9
0 -19 -2 -22 -6z"/>
<path d="M2437 123 c-12 -12 -7 -33 7 -33 26 0 28 -20 4 -29 -14 -6 -17 -10
-7 -10 8 -1 20 4 26 10 14 14 6 39 -13 39 -20 0 -17 18 4 23 14 4 14 5 1 6 -9
0 -19 -2 -22 -6z"/>
<path d="M2495 120 c-3 -5 0 -7 8 -4 24 9 28 -12 7 -31 -27 -25 -25 -35 8 -34
21 0 23 2 9 7 -15 7 -16 10 -3 27 7 10 12 25 9 32 -6 15 -29 17 -38 3z"/>
<path d="M2570 125 c-1 -5 -1 -21 0 -34 1 -13 -4 -28 -12 -32 -9 -6 -3 -9 17
-9 17 0 25 4 18 8 -6 4 -13 23 -16 42 -2 19 -5 31 -7 25z"/>
<path d="M1080 93 c0 -10 4 -14 8 -8 4 6 11 13 16 18 5 4 2 7 -7 7 -10 0 -17
-8 -17 -17z"/>
<path d="M1191 83 c-1 -27 3 -33 19 -33 16 0 20 6 19 33 -2 30 -2 30 -6 5 -6
-36 -20 -36 -26 0 -4 25 -4 25 -6 -5z"/>
<path d="M1334 96 c-9 -23 3 -46 23 -45 17 1 17 2 1 6 -22 6 -24 23 -2 23 9 0
14 5 12 12 -7 19 -27 21 -34 4z"/>
<path d="M1391 78 c2 -28 2 -29 6 -8 3 14 10 28 17 32 7 5 5 8 -6 8 -14 0 -18
-8 -17 -32z"/>
<path d="M1430 93 c0 -10 4 -14 8 -8 4 6 11 13 16 18 5 4 2 7 -7 7 -10 0 -17
-8 -17 -17z"/>
<path d="M1524 95 c-8 -21 2 -45 20 -45 7 0 16 7 20 15 8 21 -3 45 -20 45 -8
0 -17 -7 -20 -15z m31 -15 c0 -7 -6 -15 -12 -17 -8 -3 -13 4 -13 17 0 13 5 20
13 18 6 -3 12 -11 12 -18z"/>
<path d="M1584 95 c-8 -20 2 -45 18 -44 10 0 10 2 1 6 -7 2 -13 13 -13 23 0
10 6 21 13 23 9 4 9 6 -1 6 -7 1 -15 -6 -18 -14z"/>
<path d="M1724 95 c-8 -20 2 -45 18 -44 10 0 10 2 1 6 -7 2 -13 13 -13 23 0
10 6 21 13 23 9 4 9 6 -1 6 -7 1 -15 -6 -18 -14z"/>
<path d="M1774 95 c-8 -21 2 -45 20 -45 7 0 16 7 20 15 8 21 -3 45 -20 45 -8
0 -17 -7 -20 -15z m31 -15 c0 -7 -6 -15 -12 -17 -8 -3 -13 4 -13 17 0 13 5 20
13 18 6 -3 12 -11 12 -18z"/>
<path d="M1831 77 c2 -31 2 -31 6 -4 2 15 8 27 13 27 5 0 11 -12 13 -27 l4
-28 2 28 c0 15 5 27 10 27 5 0 12 -12 14 -27 4 -27 4 -27 6 4 1 29 -1 31 -34
31 -33 0 -35 -2 -34 -31z"/>
<path d="M1092 65 c-11 -12 -10 -15 3 -15 8 0 15 7 15 15 0 18 -2 18 -18 0z"/>
<path d="M1442 65 c-11 -12 -10 -15 3 -15 8 0 15 7 15 15 0 18 -2 18 -18 0z"/>
<path d="M1650 71 c0 -5 5 -13 10 -16 6 -3 10 -2 10 4 0 5 -4 13 -10 16 -5 3
-10 2 -10 -4z"/>
</g>
</svg>
