<?xml version="1.0" encoding="utf-8"?>
<!-- Generator: Adobe Illustrator 24.2.0, SVG Export Plug-In . SVG Version: 6.00 Build 0)  -->
<svg version="1.1" id="Layer_1" xmlns="http://www.w3.org/2000/svg" xmlns:xlink="http://www.w3.org/1999/xlink" x="0px" y="0px"
	 viewBox="0 0 238.6 263.4" style="enable-background:new 0 0 238.6 263.4;" xml:space="preserve">
<style type="text/css">
	.st0{fill:#FFFFFF;}
</style>
<path class="st0" d="M58.6,101.5c-6.9,0-12.2-0.1-17.4,0c-4.8,0.1-8.5-1.8-8.8-6.5c-0.6-7.4-0.6-14.9,0-22.3
	c0.3-4.7,4.1-6.8,8.7-6.9c5.1-0.1,10.2-0.4,15.3,0c5,0.4,6.9-1.6,7.5-6.3c1.6-14.8,3.7-29.5,5.1-44.2C70,3,70.9,1.5,83.2,0.3
	c6.2-0.6,12.6-0.3,18.8,0.2c7.8,0.6,9.8,3.6,8.8,11.3c-2.3,17.5-4.6,35-6.9,53.2c2,0.3,3.7,0.7,5.4,0.7c10.8,0.1,21.6-0.1,32.4,0.1
	c4.5,0.1,6.3-1.2,6.8-6.1c1.6-16.6,4.1-33.1,5.7-49.7c0.6-5.8,3.8-8.8,8.8-9.2c8.5-0.6,17-0.5,25.5-0.1c5.3,0.3,7.8,3.5,7,9.2
	c-2,15.5-3.8,31.1-5.6,46.6c-0.3,2.6-0.4,5.2-0.7,9c5.1,0,9.7,0.2,14.3,0c6.4-0.3,10.5,2.7,11.1,8.8c0.7,6.4,0.7,13,0,19.4
	c-0.6,5.1-4,8.2-9.8,8c-6.5-0.2-13-0.1-20.1-0.1c-2.2,18.5-4.3,36.6-6.6,55.7c5.4,0,10,0,14.6,0c8,0.1,10.5,1.5,11.6,9.4
	c0.9,6.3,0.3,12.9-0.3,19.3c-0.5,5.1-3.9,7.6-9.4,7.4c-6.7-0.3-13.4-0.1-20.9-0.1c-1.3,10.3-2.6,20.3-3.8,30.3
	c-1.3,10.5-2.5,21-3.7,31.5c-0.6,5.3-4.3,7.4-8.8,7.7c-7.9,0.4-15.8,0.6-23.7,0.1c-7.3-0.4-9.2-2.9-8.4-10.3
	c1.6-15,3.6-29.9,5.5-44.8c0.6-4.6,1.1-9.2,1.7-14.5c-13.9,0-27.3-0.1-40.7,0.2c-1.2,0-3.3,2.4-3.5,3.9c-2.3,17.8-4.4,35.5-6.3,53.3
	c-1,9.5-2.3,11.6-12.2,12.4c-7.3,0.6-14.6,0.2-21.9-0.2c-5.2-0.3-7.9-3.1-7.2-9c2.1-17,3.9-33.9,5.7-50.9c0.3-3,0.4-6,0.7-9.7
	c-5.7,0-10.8-0.2-15.8,0.1c-5.2,0.3-8.7-2.1-9.1-6.9c-0.6-7.2-0.5-14.5,0.1-21.7c0.4-5,4.2-7.1,9.1-7.1c5.3,0,10.6,0.2,15.9-0.2
	c1.7-0.1,4.6-1.8,4.8-3C54.3,137,56.3,119.7,58.6,101.5z M93.2,157.4c14,0,27.2,0.1,40.3-0.2c1.3,0,3.3-3.1,3.7-5
	c1.1-5.6,1.6-11.2,2.2-16.9c1.3-11,2.6-22,4-33.7c-14,0-27.4-0.1-40.7,0.2c-1.2,0-3.3,2.4-3.5,3.9C97,122.5,95.2,139.4,93.2,157.4z"
	/>
</svg>
