<?xml version="1.0" encoding="utf-8"?>
<!-- Generator: Adobe Illustrator 24.2.0, SVG Export Plug-In . SVG Version: 6.00 Build 0)  -->
<svg version="1.1" id="Layer_1" xmlns="http://www.w3.org/2000/svg" xmlns:xlink="http://www.w3.org/1999/xlink" x="0px" y="0px"
	 viewBox="0 0 221.3 112.3" style="enable-background:new 0 0 221.3 112.3;" xml:space="preserve">
<style type="text/css">
	.st0{fill:#191C25;}
	.st1{fill:#191C25;stroke:#191C25;stroke-miterlimit:10;}
	.st2{fill:#B79EFF;}
	.st3{fill:#FFFFFF;}
	.st4{fill:#7DD4C6;}
	.st5{fill:#DBEB97;}
	.st6{fill:#D4A77D;}
	.st7{fill:#F691F3;}
	.st8{fill:#FF853D;}
	.st9{fill:#E8BA43;}
	.st10{fill:#F9FF3D;}
	.st11{fill:#3BF53E;}
	.st12{fill:#FF4C68;}
	.st13{clip-path:url(#SVGID_4_);fill:#FF4C68;}
	.st14{clip-path:url(#SVGID_8_);fill:#FF4C68;}
	.st15{clip-path:url(#SVGID_10_);fill:#FF4C68;}
	.st16{clip-path:url(#SVGID_12_);fill:#FF4C68;}
	.st17{fill:url(#SVGID_13_);}
	.st18{fill:url(#SVGID_14_);}
	.st19{fill:url(#SVGID_15_);}
	.st20{fill:url(#SVGID_16_);}
	.st21{fill:#F7A515;}
	.st22{fill:#F4D8B8;}
	.st23{clip-path:url(#SVGID_18_);fill:url(#SVGID_19_);}
	.st24{clip-path:url(#SVGID_21_);fill:url(#SVGID_22_);}
	.st25{clip-path:url(#SVGID_24_);fill:url(#SVGID_25_);}
	.st26{clip-path:url(#SVGID_27_);fill:url(#SVGID_28_);}
</style>
<rect x="0.2" y="0.1" class="st0" width="221.3" height="112.3"/>
<rect y="-136.1" class="st1" width="221.3" height="112.3"/>
<g>
	<path class="st2" d="M32.1-50.6c0.2-3.6,0.8-9.6,1.4-12.9c0.4-1.7,1.4-2.6,5.6-4.7c2.9-1.4,5.6-2.6,6.2-2.6c0.8,0,1.1,1.3,1.4,5.3
		c0.2,2.9,0.1,4.1-0.1,6.9l-0.2,3v1.4c0,0-0.1,1.4,1.6,1.4c1,0,1.7-0.7,2-2.1c0.2-1.1,0.8-3.2,1.1-4.7s0.8-4.4,1.1-6.4
		c0.8-7.5,1.4-8.7,4.5-10.5c1.7-1,2.9-2.3,3-3.1c0.1-1.3-0.3-1.4-2.5-1.2l-2.6,0.3l0.5-3.2c1.6-10.3,1.5-10.2,8.4-13.5
		c3.5-1.7,6.6-3.7,6.6-3.7l1.4-0.9c2.2-1.1,4.9-3.4,4.1-4.1c0,0-0.8-0.7-2-0.6c-1.2,0-5.3,1.4-7.1,2c-1.7,0.6-4.4,1.4-5.7,1.7
		c-2.3,0.5-2.4,0.4-2-1.3c0.2-0.9,1.4-6.8,2.6-13c1.3-6.2,2.4-11.9,2.6-12.6c0.4-1.7-2-4.3-4.1-4.3c-0.8-0.1-1.9,0.8-2.5,2
		c-1.3,2.5-3.5,11.6-5.8,23.7L50-99.2L45.2-97c-7.7,3.5-7.6,3.8-5.5-7.7c1-5.1,1.1-7.5,0.6-8c-1-1-5.7-1.1-7.1-0.2
		c-1,0.6-3.6,12-4.4,19.2c-0.4,3.2-0.9,4.7-2.1,5.5c-0.8,0.7-5.9,4.1-11.4,7.5C10-77.3,5.2-74.1,4.9-73.8c-1,1,3.2,4.5,5.3,4.5
		c2.2,0,5.1-1.4,10.9-5.3c5.4-3.7,6.1-3.7,5.5-0.2c-0.8,4.7-1.1,5.5-2.9,6.3c-0.9,0.5-3.9,2.6-6.7,4.6c-5.4,4-5.7,5.1-2,6.6
		c1.9,0.8,2.8,0.7,5.9-0.6c2-0.8,3.9-1.3,4.1-1c0.2,0.4,0.3,2.9,0.3,5.8s0.2,6.2,0.5,7.3c0.9,4.4,1,3.8,2.7,2.2c0,0,1.8-1.5,2.8-3
		C32.2-48.1,32.1-49.5,32.1-50.6z M48.4-84.9c-0.3,2.6-0.9,5.1-1.3,5.6c-0.4,0.5-3.2,1.7-6.4,2.8l-5.6,1.9l0.5-4.3
		c0.6-5,0.8-5.3,6.7-8.3C48.7-90.6,49-90.5,48.4-84.9z"/>
	<path class="st2" d="M175.4-74.8l-3.1,0.3h-2.5l0.5-11.2c0.5-9.9,0.4-11.5-0.8-13.2c-1.4-2.2-2.8-2.4-6.5-1.1
		c-4.7,1.7-10.8,13.6-13.1,25.9c-1.7,8.4-2.6,18.2-1.8,19.5c1.1,1.9,2.9,0.5,4.8-3.8c1.5-3.4,2.3-4.3,5.6-5.9
		c2.1-1.1,4.1-1.7,4.4-1.6c0.3,0.2,0.8,3,1.1,6.2c0.4,3.2,0.7,6.5,0.8,7.3c0.2,1.8,2.6,2.7,4.8,1.9c1.7-0.6,1.7-1,1.4-4.3
		c-0.2-2-0.6-6-0.9-9c-0.5-5.4-0.5-5.4,2-7.7C172.7-72,174.9-74.3,175.4-74.8C175.4-74.7,175.4-74.8,175.4-74.8z M163.6-86.8
		c-0.3,2.9-0.5,7.2-0.5,9.9c0,4.7,0,4.7-2.6,5.9c-3.8,1.5-4.1,1.4-3.7-1.4c1.5-8.7,5.1-19.3,6.5-19.3
		C163.8-91.8,163.9-89.8,163.6-86.8z"/>
	<path class="st2" d="M183.8-96.3c-2.3,1-4.1,2.9-5,5.2c-0.5,1.1-0.7,2.4-0.9,3.6c-1.8,10.4-2.6,21-2.5,31.6c0,0.4,0,0.9,0.3,1.2
		c0.2,0.2,0.6,0.3,0.9,0.4c1.6,0,2.6-1.6,3.3-3.1c0.4-0.8,0.7-1.6,1.1-2.4c0.6-1.2,1.1-2.4,1.4-3.7c0.4-1.7,0.2-3.4,0.4-5.1
		c0.7-7.3,0.1-8.8,1.9-20C185.1-90.7,187.5-97.9,183.8-96.3z"/>
	<path class="st2" d="M178.5-102.4c-0.3,0.6-0.4,1.2-0.6,1.8c-0.1,0.4-0.2,0.7-0.1,1.1c0,0.3,0.2,0.5,0.3,0.7
		c1.1,1.5,6.1,0.8,7.7-1.9C189.2-106.4,181.6-108.3,178.5-102.4z"/>
</g>
<g>
	<path class="st3" d="M149.6-126.3c-1.3,2.9-2.6,7.3-5.3,17.8c-0.8,2.9-1.2,3.4-6.2,5.9c-3,1.5-5.6,2.9-5.8,3.1s0.6,1.2,1.8,2.3
		c1.7,1.5,2.8,1.8,4.7,1.5c2.9-0.5,2.9-0.5,1.4,6.8c-3.5,16.2-4.4,29.1-2.7,33.4c0.9,2,1.1,2.2,1.7,1c0.5-1,1-1.8,1-1.8l0.8-2.1
		c0,0,1.1-2.4,1.7-6.1c1.4-9.4,5.3-30.4,6.1-33.3c0.6-2.5,1.1-2.9,5-4.4c2.3-0.8,6.7-2.1,9.6-2.8c2.9-0.7,5.6-1.7,6.1-2.3
		s1.3-1.1,1.7-1.1c0.5,0,0.7-0.4,0.5-0.8c-0.6-1-7.1-1-14.3,0.1c-3.2,0.5-5.9,0.7-6.1,0.5c-0.2-0.2,0.6-3.5,1.6-7.3
		c2.1-7.7,2.3-11.4,1-12.7C152.3-130.2,151-129.5,149.6-126.3z"/>
	<path class="st3" d="M121.1-117.2C116-99.5,108.9-56.9,110.2-52c0.4,1.4,3.2,3.1,5.1,3.1c1.1,0,1.4-0.8,3-11.7
		c0.7-4.1,1.5-8.9,2-10.5c1-3.6,4.5-10.9,5.3-10.9c0.7,0,0.5,0.8-2.5,16c-3.2,15.9-2.6,20.9,2.3,17.2c1.4-1.2,2.2-3.5,4.7-14.9
		c3.2-14.3,3.9-22.7,2.3-24.7c-1.1-1.4-5.5-1.6-7.7-0.4c-0.8,0.5-1.7,0.6-1.9,0.4c-0.2-0.2,1-7.2,2.6-15.6c2.8-13.8,2.9-15.4,2-17
		c-0.6-0.9-1.9-1.7-2.9-1.7C123-122.7,122.5-122,121.1-117.2z"/>
	<path class="st3" d="M185.9-70.8L185.9-70.8c0.1,0.2,0.2,2.9,0.2,5.5c0.2,4.4,0.6,5.2,2.9,7.5c4.5,4.7,10.3,3,17.7-5
		c4.6-5,5.8-8,4.1-10.1c-0.6-0.8,0.2-1.5,3.8-3.2c3.1-1.6,4.4-2.6,4.1-3.4c-0.2-0.6,0.2-1.2,1-1.4c0.8-0.2,0.4-0.4-1-0.5
		c-3.4-0.1-19.3,5.1-21.1,7c-0.3,0.2,1.3,1.2,3.4,2.1c2.2,0.9,3.9,1.9,3.9,2.1c0,1-9.2,9.8-10.1,9.8c-1.6,0-2-4.3-1.2-10.7
		c1-7.9,1.3-9.3,3.5-14.7c1.4-3.4,2.2-4.5,2.7-4c0.6,0.6,0.6,1.7,0,3.8c-0.4,1.7-0.6,3.2-0.4,3.4c0.5,0.5,5,0.5,6.5-0.1
		c1.4-0.6,3.4-5,3.4-7.7c0-1.4-0.9-2.9-2.8-4.7c-3.1-3-4.7-3.6-8.3-2.8c-3.2,0.7-4.7,2.1-7.2,6.7c-2.6,4.7-4.1,9.7-4.7,15.6
		L185.9-70.8z"/>
	<path class="st3" d="M63.4-43c0.7-2,1.4-4.1,1.4-4.7c0.1-0.5,0.8-2.8,1.4-5.1c1.1-3.5,1.7-4.4,4-5.5c2-0.9,2.9-1.1,3.3-0.5
		c0.3,0.5,0.8,4.7,1.1,9.3c0.3,4.7,0.7,8.5,0.8,8.7c0.5,0.5,3.2-1.4,3.8-2.6c0.3-0.8,0.8-5.5,1-10.5l0.3-9.3l3.2-1.9
		c3.8-2.3,8.6-6.4,7.4-6.4c-0.5,0-2.9,0.6-5.4,1.4s-4.6,1.3-4.7,1.2c-0.2-0.2,0-5,0.4-10.7c0.3-5.7,0.4-11.1,0.2-12
		c-0.2-1-1.4-2.2-2.6-2.9c-2.8-1.3-2.8-1.3-3.7-0.2c-2.6,3.2-8.9,18.4-11.9,28.8c-1.6,5.4-2.5,6.5-6.4,8.3c-3.5,1.6-3.5,2.7-0.1,3.8
		c2.7,0.8,2.8,1,1.6,9c-1,6.5-0.7,8,1.5,7.4C60.9-37.6,63.4-43,63.4-43z M74.4-70c0,3-0.3,3.8-1.6,4.5c-0.8,0.5-1.7,0.7-2,0.5
		c-0.5-0.6,2.2-8.8,2.9-8.8C74.1-73.8,74.4-72.1,74.4-70z"/>
	<path class="st3" d="M100.3-93.5c-2.4,0.6-5,3.3-6.8,7.4c-3.2,6.7-2.2,10.2,4.9,17.5C101-66,103-63.5,103-63s-1.8,2.6-4,4.7
		C78.9-39.1,75-34.7,73.2-28.9c-0.6,2.2,1.1,2.3,3,0.2c0.8-0.8,1.7-1.3,2-1.1c0.4,0.2,3.2-2.3,6.3-5.6c3.1-3.4,9.3-9.3,13.9-13.4
		c7.8-6.9,10.5-10.1,10.5-12.7c0-0.6-2.3-3.7-5.3-6.8c-2.9-3.1-5.3-6.4-5.4-7.3c-0.3-4.9,1-8,5.6-13.5c1.6-2,2.7-3.9,2.5-4.4
		C105.9-94.1,103-94.2,100.3-93.5z"/>
</g>
<rect x="-1.5" y="127.5" class="st0" width="221.3" height="112.3"/>
<g>
	<path class="st4" d="M30.6,213c0.2-3.6,0.8-9.6,1.4-12.9c0.4-1.7,1.4-2.6,5.6-4.7c2.9-1.4,5.6-2.6,6.2-2.6c0.8,0,1.1,1.3,1.4,5.3
		c0.2,2.9,0.1,4.1-0.1,6.9l-0.2,3v1.4c0,0-0.1,1.4,1.6,1.4c1,0,1.7-0.7,2-2.1c0.2-1.1,0.8-3.2,1.1-4.7s0.8-4.4,1.1-6.4
		c0.8-7.5,1.4-8.7,4.5-10.5c1.7-1,2.9-2.3,3-3.1c0.1-1.3-0.3-1.4-2.5-1.2l-2.6,0.3l0.5-3.2c1.6-10.3,1.5-10.2,8.4-13.5
		c3.5-1.7,6.6-3.7,6.6-3.7l1.4-0.9c2.2-1.1,4.9-3.4,4.1-4.1c0,0-0.8-0.7-2-0.6c-1.2,0-5.3,1.4-7.1,2c-1.7,0.6-4.4,1.4-5.7,1.7
		c-2.3,0.5-2.4,0.4-2-1.3c0.2-0.9,1.4-6.8,2.6-13c1.3-6.2,2.4-11.9,2.6-12.6c0.4-1.7-2-4.3-4.1-4.3c-0.8-0.1-1.9,0.8-2.5,2
		c-1.3,2.5-3.5,11.6-5.8,23.7l-1.7,8.9l-4.8,2.2c-7.7,3.5-7.6,3.8-5.5-7.7c1-5.1,1.1-7.5,0.6-8c-1-1-5.7-1.1-7.1-0.2
		c-1,0.6-3.6,12-4.4,19.2c-0.4,3.2-0.9,4.7-2.1,5.5c-0.8,0.7-5.9,4.1-11.4,7.5c-5.3,3.4-10.1,6.6-10.4,6.9c-1,1,3.2,4.5,5.3,4.5
		c2.2,0,5.1-1.4,10.9-5.3c5.4-3.7,6.1-3.7,5.5-0.2c-0.8,4.7-1.1,5.5-2.9,6.3c-0.9,0.5-3.9,2.6-6.7,4.6c-5.4,4-5.7,5.1-2,6.6
		c1.9,0.8,2.8,0.7,5.9-0.6c2-0.8,3.9-1.3,4.1-1c0.2,0.4,0.3,2.9,0.3,5.8c0,2.9,0.2,6.2,0.5,7.3c0.9,4.4,1,3.8,2.7,2.2
		c0,0,1.8-1.5,2.8-3C30.7,215.5,30.6,214.1,30.6,213z M46.9,178.7c-0.3,2.6-0.9,5.1-1.3,5.6c-0.4,0.5-3.2,1.7-6.4,2.8l-5.6,1.9
		l0.5-4.3c0.6-5,0.8-5.3,6.7-8.3C47.2,173,47.5,173.1,46.9,178.7z"/>
	<path class="st4" d="M173.9,188.9l-3.1,0.3h-2.5l0.5-11.2c0.5-9.9,0.4-11.5-0.8-13.2c-1.4-2.2-2.8-2.4-6.5-1.1
		c-4.7,1.7-10.8,13.6-13.1,25.9c-1.7,8.4-2.6,18.2-1.8,19.5c1.1,1.9,2.9,0.5,4.8-3.8c1.5-3.4,2.3-4.3,5.6-5.9
		c2.1-1.1,4.1-1.7,4.4-1.6c0.3,0.2,0.8,3,1.1,6.2c0.4,3.2,0.7,6.5,0.8,7.3c0.2,1.8,2.6,2.7,4.8,1.9c1.7-0.6,1.7-1,1.4-4.3
		c-0.2-2-0.6-6-0.9-9c-0.5-5.4-0.5-5.4,2-7.7C171.2,191.6,173.4,189.3,173.9,188.9C174,188.9,173.9,188.9,173.9,188.9z M162.1,176.8
		c-0.3,2.9-0.5,7.2-0.5,9.9c0,4.7,0,4.7-2.6,5.9c-3.8,1.5-4.1,1.4-3.7-1.4c1.5-8.7,5.1-19.3,6.5-19.3
		C162.3,171.8,162.4,173.8,162.1,176.8z"/>
	<path class="st4" d="M182.3,167.3c-2.3,1-4.1,2.9-5,5.2c-0.5,1.1-0.7,2.4-0.9,3.6c-1.8,10.4-2.6,21-2.5,31.6c0,0.4,0,0.9,0.3,1.2
		c0.2,0.2,0.6,0.3,0.9,0.4c1.6,0,2.6-1.6,3.3-3.1c0.4-0.8,0.7-1.6,1.1-2.4c0.6-1.2,1.1-2.4,1.4-3.7c0.4-1.7,0.2-3.4,0.4-5.1
		c0.7-7.3,0.1-8.8,1.9-20C183.6,173,186,165.7,182.3,167.3z"/>
	<path class="st4" d="M177.1,161.2c-0.3,0.6-0.4,1.2-0.6,1.8c-0.1,0.4-0.2,0.7-0.1,1.1c0,0.3,0.2,0.5,0.3,0.7
		c1.1,1.5,6.1,0.8,7.7-1.9C187.7,157.2,180.1,155.3,177.1,161.2z"/>
</g>
<g>
	<path class="st3" d="M148.1,137.3c-1.3,2.9-2.6,7.3-5.3,17.8c-0.8,2.9-1.2,3.4-6.2,5.9c-3,1.5-5.6,2.9-5.8,3.1s0.6,1.2,1.8,2.3
		c1.7,1.5,2.8,1.8,4.7,1.5c2.9-0.5,2.9-0.5,1.4,6.8c-3.5,16.2-4.4,29.1-2.7,33.4c0.9,2,1.1,2.2,1.7,1c0.5-1,1-1.8,1-1.8l0.8-2.1
		c0,0,1.1-2.4,1.7-6.1c1.4-9.4,5.3-30.4,6.1-33.3c0.6-2.5,1.1-2.9,5-4.4c2.3-0.8,6.7-2.1,9.6-2.8c2.9-0.7,5.6-1.7,6.1-2.3
		s1.3-1.1,1.7-1.1c0.5,0,0.7-0.4,0.5-0.8c-0.6-1-7.1-1-14.3,0.1c-3.2,0.5-5.9,0.7-6.1,0.5c-0.2-0.2,0.6-3.5,1.6-7.3
		c2.1-7.7,2.3-11.4,1-12.7C150.8,133.4,149.5,134.1,148.1,137.3z"/>
	<path class="st3" d="M119.6,146.4c-5.1,17.7-12.2,60.3-10.9,65.2c0.4,1.4,3.2,3.1,5.1,3.1c1.1,0,1.4-0.8,3-11.7
		c0.7-4.1,1.5-8.9,2-10.5c1-3.6,4.5-10.9,5.3-10.9c0.7,0,0.5,0.8-2.5,16c-3.2,15.9-2.6,20.9,2.3,17.2c1.4-1.2,2.2-3.5,4.7-14.9
		c3.2-14.3,3.9-22.7,2.3-24.7c-1.1-1.4-5.5-1.6-7.7-0.4c-0.8,0.5-1.7,0.6-1.9,0.4c-0.2-0.2,1-7.2,2.6-15.6c2.8-13.8,2.9-15.4,2-17
		c-0.6-0.9-1.9-1.7-2.9-1.7C121.5,140.9,121,141.6,119.6,146.4z"/>
	<path class="st3" d="M184.4,192.8L184.4,192.8c0.1,0.2,0.2,2.9,0.2,5.5c0.2,4.4,0.6,5.2,2.9,7.5c4.5,4.7,10.3,3,17.7-5
		c4.6-5,5.8-8,4.1-10.1c-0.6-0.8,0.2-1.5,3.8-3.2c3.1-1.6,4.4-2.6,4.1-3.4c-0.2-0.6,0.2-1.2,1-1.4s0.4-0.4-1-0.5
		c-3.4-0.1-19.3,5.1-21.1,7c-0.3,0.2,1.3,1.2,3.4,2.1c2.2,0.9,3.9,1.9,3.9,2.1c0,1-9.2,9.8-10.1,9.8c-1.6,0-2-4.3-1.2-10.7
		c1-7.9,1.3-9.3,3.5-14.7c1.4-3.4,2.2-4.5,2.7-4c0.6,0.6,0.6,1.7,0,3.8c-0.4,1.7-0.6,3.2-0.4,3.4c0.5,0.5,5,0.5,6.5-0.1
		c1.4-0.6,3.4-5,3.4-7.7c0-1.4-0.9-2.9-2.8-4.7c-3.1-3-4.7-3.6-8.3-2.8c-3.2,0.7-4.7,2.1-7.2,6.7c-2.6,4.7-4.1,9.7-4.7,15.6
		L184.4,192.8z"/>
	<path class="st3" d="M61.9,220.6c0.7-2,1.4-4.1,1.4-4.7c0.1-0.5,0.8-2.8,1.4-5.1c1.1-3.5,1.7-4.4,4-5.5c2-0.9,2.9-1.1,3.3-0.5
		c0.3,0.5,0.8,4.7,1.1,9.3c0.3,4.7,0.7,8.5,0.8,8.7c0.5,0.5,3.2-1.4,3.8-2.6c0.3-0.8,0.8-5.5,1-10.5l0.3-9.3l3.2-1.9
		c3.8-2.3,8.6-6.4,7.4-6.4c-0.5,0-2.9,0.6-5.4,1.4s-4.6,1.3-4.7,1.2c-0.2-0.2,0-5,0.4-10.7c0.3-5.7,0.4-11.1,0.2-12
		c-0.2-1-1.4-2.2-2.6-2.9c-2.8-1.3-2.8-1.3-3.7-0.2c-2.6,3.2-8.9,18.4-11.9,28.8c-1.6,5.4-2.5,6.5-6.4,8.3c-3.5,1.6-3.5,2.7-0.1,3.8
		c2.7,0.8,2.8,1,1.6,9c-1,6.5-0.7,8,1.5,7.4C59.4,226,61.9,220.6,61.9,220.6z M72.9,193.6c0,3-0.3,3.8-1.6,4.5
		c-0.8,0.5-1.7,0.7-2,0.5c-0.5-0.6,2.2-8.8,2.9-8.8C72.6,189.8,72.9,191.5,72.9,193.6z"/>
	<path class="st3" d="M98.8,170.1c-2.4,0.6-5,3.3-6.8,7.4c-3.2,6.7-2.2,10.2,4.9,17.5c2.6,2.6,4.6,5.1,4.6,5.6s-1.8,2.6-4,4.7
		c-20.1,19.2-24,23.6-25.8,29.4c-0.6,2.2,1.1,2.3,3,0.2c0.8-0.8,1.7-1.3,2-1.1c0.4,0.2,3.2-2.3,6.3-5.6c3.1-3.4,9.3-9.3,13.9-13.4
		c7.8-6.9,10.5-10.1,10.5-12.7c0-0.6-2.3-3.7-5.3-6.8c-2.9-3.1-5.3-6.4-5.4-7.3c-0.3-4.9,1-8,5.6-13.5c1.6-2,2.7-3.9,2.5-4.4
		C104.4,169.5,101.5,169.4,98.8,170.1z"/>
</g>
<rect x="-1.5" y="255.7" class="st0" width="221.3" height="112.3"/>
<g>
	<path class="st5" d="M30.6,341.2c0.2-3.6,0.8-9.6,1.4-12.9c0.4-1.7,1.4-2.6,5.6-4.7c2.9-1.4,5.6-2.6,6.2-2.6c0.8,0,1.1,1.3,1.4,5.3
		c0.2,2.9,0.1,4.1-0.1,6.9l-0.2,3v1.4c0,0-0.1,1.4,1.6,1.4c1,0,1.7-0.7,2-2.1c0.2-1.1,0.8-3.2,1.1-4.7s0.8-4.4,1.1-6.4
		c0.8-7.5,1.4-8.7,4.5-10.5c1.7-1,2.9-2.3,3-3.1c0.1-1.3-0.3-1.4-2.5-1.2l-2.6,0.3l0.5-3.2c1.6-10.3,1.5-10.2,8.4-13.5
		c3.5-1.7,6.6-3.7,6.6-3.7L70,290c2.2-1.1,4.9-3.4,4.1-4.1c0,0-0.8-0.7-2-0.6c-1.2,0-5.3,1.4-7.1,2c-1.7,0.6-4.4,1.4-5.7,1.7
		c-2.3,0.5-2.4,0.4-2-1.3c0.2-0.9,1.4-6.8,2.6-13c1.3-6.2,2.4-11.9,2.6-12.6c0.4-1.7-2-4.3-4.1-4.3c-0.8-0.1-1.9,0.8-2.5,2
		c-1.3,2.5-3.5,11.6-5.8,23.7l-1.7,8.9l-4.8,2.2c-7.7,3.5-7.6,3.8-5.5-7.7c1-5.1,1.1-7.5,0.6-8c-1-1-5.7-1.1-7.1-0.2
		c-1,0.6-3.6,12-4.4,19.2c-0.4,3.2-0.9,4.7-2.1,5.5c-0.8,0.7-5.9,4.1-11.4,7.5c-5.3,3.4-10.1,6.6-10.4,6.9c-1,1,3.2,4.5,5.3,4.5
		c2.2,0,5.1-1.4,10.9-5.3c5.4-3.7,6.1-3.7,5.5-0.2c-0.8,4.7-1.1,5.5-2.9,6.3c-0.9,0.5-3.9,2.6-6.7,4.6c-5.4,4-5.7,5.1-2,6.6
		c1.9,0.8,2.8,0.7,5.9-0.6c2-0.8,3.9-1.3,4.1-1c0.2,0.4,0.3,2.9,0.3,5.8s0.2,6.2,0.5,7.3c0.9,4.4,1,3.8,2.7,2.2c0,0,1.8-1.5,2.8-3
		C30.7,343.7,30.6,342.3,30.6,341.2z M46.9,306.9c-0.3,2.6-0.9,5.1-1.3,5.6c-0.4,0.5-3.2,1.7-6.4,2.8l-5.6,1.9l0.5-4.3
		c0.6-5,0.8-5.3,6.7-8.3C47.2,301.2,47.5,301.3,46.9,306.9z"/>
	<path class="st5" d="M173.9,317l-3.1,0.3h-2.5l0.5-11.2c0.5-9.9,0.4-11.5-0.8-13.2c-1.4-2.2-2.8-2.4-6.5-1.1
		c-4.7,1.7-10.8,13.6-13.1,25.9c-1.7,8.4-2.6,18.2-1.8,19.5c1.1,1.9,2.9,0.5,4.8-3.8c1.5-3.4,2.3-4.3,5.6-5.9
		c2.1-1.1,4.1-1.7,4.4-1.6c0.3,0.2,0.8,3,1.1,6.2c0.4,3.2,0.7,6.5,0.8,7.3c0.2,1.8,2.6,2.7,4.8,1.9c1.7-0.6,1.7-1,1.4-4.3
		c-0.2-2-0.6-6-0.9-9c-0.5-5.4-0.5-5.4,2-7.7C171.2,319.8,173.4,317.5,173.9,317C174,317.1,173.9,317,173.9,317z M162.1,305
		c-0.3,2.9-0.5,7.2-0.5,9.9c0,4.7,0,4.7-2.6,5.9c-3.8,1.5-4.1,1.4-3.7-1.4c1.5-8.7,5.1-19.3,6.5-19.3C162.3,300,162.4,302,162.1,305
		z"/>
	<path class="st5" d="M182.3,295.5c-2.3,1-4.1,2.9-5,5.2c-0.5,1.1-0.7,2.4-0.9,3.6c-1.8,10.4-2.6,21-2.5,31.6c0,0.4,0,0.9,0.3,1.2
		c0.2,0.2,0.6,0.3,0.9,0.4c1.6,0,2.6-1.6,3.3-3.1c0.4-0.8,0.7-1.6,1.1-2.4c0.6-1.2,1.1-2.4,1.4-3.7c0.4-1.7,0.2-3.4,0.4-5.1
		c0.7-7.3,0.1-8.8,1.9-20C183.6,301.1,186,293.9,182.3,295.5z"/>
	<path class="st5" d="M177.1,289.4c-0.3,0.6-0.4,1.2-0.6,1.8c-0.1,0.4-0.2,0.7-0.1,1.1c0,0.3,0.2,0.5,0.3,0.7
		c1.1,1.5,6.1,0.8,7.7-1.9C187.7,285.4,180.1,283.5,177.1,289.4z"/>
</g>
<g>
	<path class="st3" d="M148.1,265.5c-1.3,2.9-2.6,7.3-5.3,17.8c-0.8,2.9-1.2,3.4-6.2,5.9c-3,1.5-5.6,2.9-5.8,3.1s0.6,1.2,1.8,2.3
		c1.7,1.5,2.8,1.8,4.7,1.5c2.9-0.5,2.9-0.5,1.4,6.8c-3.5,16.2-4.4,29.1-2.7,33.4c0.9,2,1.1,2.2,1.7,1c0.5-1,1-1.8,1-1.8l0.8-2.1
		c0,0,1.1-2.4,1.7-6.1c1.4-9.4,5.3-30.4,6.1-33.3c0.6-2.5,1.1-2.9,5-4.4c2.3-0.8,6.7-2.1,9.6-2.8c2.9-0.7,5.6-1.7,6.1-2.3
		c0.5-0.6,1.3-1.1,1.7-1.1c0.5,0,0.7-0.4,0.5-0.8c-0.6-1-7.1-1-14.3,0.1c-3.2,0.5-5.9,0.7-6.1,0.5c-0.2-0.2,0.6-3.5,1.6-7.3
		c2.1-7.7,2.3-11.4,1-12.7C150.8,261.6,149.5,262.3,148.1,265.5z"/>
	<path class="st3" d="M119.6,274.6c-5.1,17.7-12.2,60.3-10.9,65.2c0.4,1.4,3.2,3.1,5.1,3.1c1.1,0,1.4-0.8,3-11.7
		c0.7-4.1,1.5-8.9,2-10.5c1-3.6,4.5-10.9,5.3-10.9c0.7,0,0.5,0.8-2.5,16c-3.2,15.9-2.6,20.9,2.3,17.2c1.4-1.2,2.2-3.5,4.7-14.9
		c3.2-14.3,3.9-22.7,2.3-24.7c-1.1-1.4-5.5-1.6-7.7-0.4c-0.8,0.5-1.7,0.6-1.9,0.4c-0.2-0.2,1-7.2,2.6-15.6c2.8-13.8,2.9-15.4,2-17
		c-0.6-0.9-1.9-1.7-2.9-1.7C121.5,269.1,121,269.8,119.6,274.6z"/>
	<path class="st3" d="M184.4,321L184.4,321c0.1,0.2,0.2,2.9,0.2,5.5c0.2,4.4,0.6,5.2,2.9,7.5c4.5,4.7,10.3,3,17.7-5
		c4.6-5,5.8-8,4.1-10.1c-0.6-0.8,0.2-1.5,3.8-3.2c3.1-1.6,4.4-2.6,4.1-3.4c-0.2-0.6,0.2-1.2,1-1.4c0.8-0.2,0.4-0.4-1-0.5
		c-3.4-0.1-19.3,5.1-21.1,7c-0.3,0.2,1.3,1.2,3.4,2.1c2.2,0.9,3.9,1.9,3.9,2.1c0,1-9.2,9.8-10.1,9.8c-1.6,0-2-4.3-1.2-10.7
		c1-7.9,1.3-9.3,3.5-14.7c1.4-3.4,2.2-4.5,2.7-4c0.6,0.6,0.6,1.7,0,3.8c-0.4,1.7-0.6,3.2-0.4,3.4c0.5,0.5,5,0.5,6.5-0.1
		c1.4-0.6,3.4-5,3.4-7.7c0-1.4-0.9-2.9-2.8-4.7c-3.1-3-4.7-3.6-8.3-2.8c-3.2,0.7-4.7,2.1-7.2,6.7c-2.6,4.7-4.1,9.7-4.7,15.6
		L184.4,321z"/>
	<path class="st3" d="M61.9,348.8c0.7-2,1.4-4.1,1.4-4.7c0.1-0.5,0.8-2.8,1.4-5.1c1.1-3.5,1.7-4.4,4-5.5c2-0.9,2.9-1.1,3.3-0.5
		c0.3,0.5,0.8,4.7,1.1,9.3c0.3,4.7,0.7,8.5,0.8,8.7c0.5,0.5,3.2-1.4,3.8-2.6c0.3-0.8,0.8-5.5,1-10.5l0.3-9.3l3.2-1.9
		c3.8-2.3,8.6-6.4,7.4-6.4c-0.5,0-2.9,0.6-5.4,1.4s-4.6,1.3-4.7,1.2c-0.2-0.2,0-5,0.4-10.7c0.3-5.7,0.4-11.1,0.2-12
		c-0.2-1-1.4-2.2-2.6-2.9c-2.8-1.3-2.8-1.3-3.7-0.2c-2.6,3.2-8.9,18.4-11.9,28.8c-1.6,5.4-2.5,6.5-6.4,8.3c-3.5,1.6-3.5,2.7-0.1,3.8
		c2.7,0.8,2.8,1,1.6,9c-1,6.5-0.7,8,1.5,7.4C59.4,354.2,61.9,348.8,61.9,348.8z M72.9,321.8c0,3-0.3,3.8-1.6,4.5
		c-0.8,0.5-1.7,0.7-2,0.5c-0.5-0.6,2.2-8.8,2.9-8.8C72.6,318,72.9,319.7,72.9,321.8z"/>
	<path class="st3" d="M98.8,298.3c-2.4,0.6-5,3.3-6.8,7.4c-3.2,6.7-2.2,10.2,4.9,17.5c2.6,2.6,4.6,5.1,4.6,5.6s-1.8,2.6-4,4.7
		c-20.1,19.2-24,23.6-25.8,29.4c-0.6,2.2,1.1,2.3,3,0.2c0.8-0.8,1.7-1.3,2-1.1c0.4,0.2,3.2-2.3,6.3-5.6c3.1-3.4,9.3-9.3,13.9-13.4
		c7.8-6.9,10.5-10.1,10.5-12.7c0-0.6-2.3-3.7-5.3-6.8c-2.9-3.1-5.3-6.4-5.4-7.3c-0.3-4.9,1-8,5.6-13.5c1.6-2,2.7-3.9,2.5-4.4
		C104.4,297.7,101.5,297.6,98.8,298.3z"/>
</g>
<rect x="-1.5" y="386.5" class="st0" width="221.3" height="112.3"/>
<g>
	<path class="st6" d="M30.6,472c0.2-3.6,0.8-9.6,1.4-12.9c0.4-1.7,1.4-2.6,5.6-4.7c2.9-1.4,5.6-2.6,6.2-2.6c0.8,0,1.1,1.3,1.4,5.3
		c0.2,2.9,0.1,4.1-0.1,6.9l-0.2,3v1.4c0,0-0.1,1.4,1.6,1.4c1,0,1.7-0.7,2-2.1c0.2-1.1,0.8-3.2,1.1-4.7s0.8-4.4,1.1-6.4
		c0.8-7.5,1.4-8.7,4.5-10.5c1.7-1,2.9-2.3,3-3.1c0.1-1.3-0.3-1.4-2.5-1.2l-2.6,0.3l0.5-3.2c1.6-10.3,1.5-10.2,8.4-13.5
		c3.5-1.7,6.6-3.7,6.6-3.7l1.4-0.9c2.2-1.1,4.9-3.4,4.1-4.1c0,0-0.8-0.7-2-0.6c-1.2,0-5.3,1.4-7.1,2c-1.7,0.6-4.4,1.4-5.7,1.7
		c-2.3,0.5-2.4,0.4-2-1.3c0.2-0.9,1.4-6.8,2.6-13c1.3-6.2,2.4-11.9,2.6-12.6c0.4-1.7-2-4.3-4.1-4.3c-0.8-0.1-1.9,0.8-2.5,2
		c-1.3,2.5-3.5,11.6-5.8,23.7l-1.7,8.9l-4.8,2.2c-7.7,3.5-7.6,3.8-5.5-7.7c1-5.1,1.1-7.5,0.6-8c-1-1-5.7-1.1-7.1-0.2
		c-1,0.6-3.6,12-4.4,19.2c-0.4,3.2-0.9,4.7-2.1,5.5c-0.8,0.7-5.9,4.1-11.4,7.5c-5.3,3.4-10.1,6.6-10.4,6.9c-1,1,3.2,4.5,5.3,4.5
		c2.2,0,5.1-1.4,10.9-5.3c5.4-3.7,6.1-3.7,5.5-0.2c-0.8,4.7-1.1,5.5-2.9,6.3c-0.9,0.5-3.9,2.6-6.7,4.6c-5.4,4-5.7,5.1-2,6.6
		c1.9,0.8,2.8,0.7,5.9-0.6c2-0.8,3.9-1.3,4.1-1c0.2,0.4,0.3,2.9,0.3,5.8s0.2,6.2,0.5,7.3c0.9,4.4,1,3.8,2.7,2.2c0,0,1.8-1.5,2.8-3
		C30.7,474.4,30.6,473,30.6,472z M46.9,437.7c-0.3,2.6-0.9,5.1-1.3,5.6c-0.4,0.5-3.2,1.7-6.4,2.8l-5.6,1.9l0.5-4.3
		c0.6-5,0.8-5.3,6.7-8.3C47.2,432,47.5,432.1,46.9,437.7z"/>
	<path class="st6" d="M173.9,447.8l-3.1,0.3h-2.5l0.5-11.2c0.5-9.9,0.4-11.5-0.8-13.2c-1.4-2.2-2.8-2.4-6.5-1.1
		c-4.7,1.7-10.8,13.6-13.1,25.9c-1.7,8.4-2.6,18.2-1.8,19.5c1.1,1.9,2.9,0.5,4.8-3.8c1.5-3.4,2.3-4.3,5.6-5.9
		c2.1-1.1,4.1-1.7,4.4-1.6c0.3,0.2,0.8,3,1.1,6.2c0.4,3.2,0.7,6.5,0.8,7.3c0.2,1.8,2.6,2.7,4.8,1.9c1.7-0.6,1.7-1,1.4-4.3
		c-0.2-2-0.6-6-0.9-9c-0.5-5.4-0.5-5.4,2-7.7C171.2,450.5,173.4,448.2,173.9,447.8C174,447.8,173.9,447.8,173.9,447.8z M162.1,435.8
		c-0.3,2.9-0.5,7.2-0.5,9.9c0,4.7,0,4.7-2.6,5.9c-3.8,1.5-4.1,1.4-3.7-1.4c1.5-8.7,5.1-19.3,6.5-19.3
		C162.3,430.8,162.4,432.8,162.1,435.8z"/>
	<path class="st6" d="M182.3,426.2c-2.3,1-4.1,2.9-5,5.2c-0.5,1.1-0.7,2.4-0.9,3.6c-1.8,10.4-2.6,21-2.5,31.6c0,0.4,0,0.9,0.3,1.2
		c0.2,0.2,0.6,0.3,0.9,0.4c1.6,0,2.6-1.6,3.3-3.1c0.4-0.8,0.7-1.6,1.1-2.4c0.6-1.2,1.1-2.4,1.4-3.7c0.4-1.7,0.2-3.4,0.4-5.1
		c0.7-7.3,0.1-8.8,1.9-20C183.6,431.9,186,424.6,182.3,426.2z"/>
	<path class="st6" d="M177.1,420.1c-0.3,0.6-0.4,1.2-0.6,1.8c-0.1,0.4-0.2,0.7-0.1,1.1c0,0.3,0.2,0.5,0.3,0.7
		c1.1,1.5,6.1,0.8,7.7-1.9C187.7,416.1,180.1,414.2,177.1,420.1z"/>
</g>
<g>
	<path class="st3" d="M148.1,396.3c-1.3,2.9-2.6,7.3-5.3,17.8c-0.8,2.9-1.2,3.4-6.2,5.9c-3,1.5-5.6,2.9-5.8,3.1s0.6,1.2,1.8,2.3
		c1.7,1.5,2.8,1.8,4.7,1.5c2.9-0.5,2.9-0.5,1.4,6.8c-3.5,16.2-4.4,29.1-2.7,33.4c0.9,2,1.1,2.2,1.7,1c0.5-1,1-1.8,1-1.8l0.8-2.1
		c0,0,1.1-2.4,1.7-6.1c1.4-9.4,5.3-30.4,6.1-33.3c0.6-2.5,1.1-2.9,5-4.4c2.3-0.8,6.7-2.1,9.6-2.8c2.9-0.7,5.6-1.7,6.1-2.3
		c0.5-0.6,1.3-1.1,1.7-1.1c0.5,0,0.7-0.4,0.5-0.8c-0.6-1-7.1-1-14.3,0.1c-3.2,0.5-5.9,0.7-6.1,0.5c-0.2-0.2,0.6-3.5,1.6-7.3
		c2.1-7.7,2.3-11.4,1-12.7C150.8,392.4,149.5,393.1,148.1,396.3z"/>
	<path class="st3" d="M119.6,405.4c-5.1,17.7-12.2,60.3-10.9,65.2c0.4,1.4,3.2,3.1,5.1,3.1c1.1,0,1.4-0.8,3-11.7
		c0.7-4.1,1.5-8.9,2-10.5c1-3.6,4.5-10.9,5.3-10.9c0.7,0,0.5,0.8-2.5,16c-3.2,15.9-2.6,20.9,2.3,17.2c1.4-1.2,2.2-3.5,4.7-14.9
		c3.2-14.3,3.9-22.7,2.3-24.7c-1.1-1.4-5.5-1.6-7.7-0.4c-0.8,0.5-1.7,0.6-1.9,0.4c-0.2-0.2,1-7.2,2.6-15.6c2.8-13.8,2.9-15.4,2-17
		c-0.6-0.9-1.9-1.7-2.9-1.7C121.5,399.9,121,400.6,119.6,405.4z"/>
	<path class="st3" d="M184.4,451.7L184.4,451.7c0.1,0.2,0.2,2.9,0.2,5.5c0.2,4.4,0.6,5.2,2.9,7.5c4.5,4.7,10.3,3,17.7-5
		c4.6-5,5.8-8,4.1-10.1c-0.6-0.8,0.2-1.5,3.8-3.2c3.1-1.6,4.4-2.6,4.1-3.4c-0.2-0.6,0.2-1.2,1-1.4c0.8-0.2,0.4-0.4-1-0.5
		c-3.4-0.1-19.3,5.1-21.1,7c-0.3,0.2,1.3,1.2,3.4,2.1c2.2,0.9,3.9,1.9,3.9,2.1c0,1-9.2,9.8-10.1,9.8c-1.6,0-2-4.3-1.2-10.7
		c1-7.9,1.3-9.3,3.5-14.7c1.4-3.4,2.2-4.5,2.7-4c0.6,0.6,0.6,1.7,0,3.8c-0.4,1.7-0.6,3.2-0.4,3.4c0.5,0.5,5,0.5,6.5-0.1
		c1.4-0.6,3.4-5,3.4-7.7c0-1.4-0.9-2.9-2.8-4.7c-3.1-3-4.7-3.6-8.3-2.8c-3.2,0.7-4.7,2.1-7.2,6.7c-2.6,4.7-4.1,9.7-4.7,15.6
		L184.4,451.7z"/>
	<path class="st3" d="M61.9,479.6c0.7-2,1.4-4.1,1.4-4.7c0.1-0.5,0.8-2.8,1.4-5.1c1.1-3.5,1.7-4.4,4-5.5c2-0.9,2.9-1.1,3.3-0.5
		c0.3,0.5,0.8,4.7,1.1,9.3c0.3,4.7,0.7,8.5,0.8,8.7c0.5,0.5,3.2-1.4,3.8-2.6c0.3-0.8,0.8-5.5,1-10.5l0.3-9.3l3.2-1.9
		c3.8-2.3,8.6-6.4,7.4-6.4c-0.5,0-2.9,0.6-5.4,1.4s-4.6,1.3-4.7,1.2c-0.2-0.2,0-5,0.4-10.7c0.3-5.7,0.4-11.1,0.2-12
		c-0.2-1-1.4-2.2-2.6-2.9c-2.8-1.3-2.8-1.3-3.7-0.2c-2.6,3.2-8.9,18.4-11.9,28.8c-1.6,5.4-2.5,6.5-6.4,8.3c-3.5,1.6-3.5,2.7-0.1,3.8
		c2.7,0.8,2.8,1,1.6,9c-1,6.5-0.7,8,1.5,7.4C59.4,485,61.9,479.6,61.9,479.6z M72.9,452.6c0,3-0.3,3.8-1.6,4.5
		c-0.8,0.5-1.7,0.7-2,0.5c-0.5-0.6,2.2-8.8,2.9-8.8C72.6,448.8,72.9,450.5,72.9,452.6z"/>
	<path class="st3" d="M98.8,429.1c-2.4,0.6-5,3.3-6.8,7.4c-3.2,6.7-2.2,10.2,4.9,17.5c2.6,2.6,4.6,5.1,4.6,5.6s-1.8,2.6-4,4.7
		c-20.1,19.2-24,23.6-25.8,29.4c-0.6,2.2,1.1,2.3,3,0.2c0.8-0.8,1.7-1.3,2-1.1c0.4,0.2,3.2-2.3,6.3-5.6c3.1-3.4,9.3-9.3,13.9-13.4
		c7.8-6.9,10.5-10.1,10.5-12.7c0-0.6-2.3-3.7-5.3-6.8c-2.9-3.1-5.3-6.4-5.4-7.3c-0.3-4.9,1-8,5.6-13.5c1.6-2,2.7-3.9,2.5-4.4
		C104.4,428.5,101.5,428.4,98.8,429.1z"/>
</g>
<rect x="-1.5" y="514.6" class="st0" width="221.3" height="112.3"/>
<g>
	<path class="st7" d="M30.6,600.1c0.2-3.6,0.8-9.6,1.4-12.9c0.4-1.7,1.4-2.6,5.6-4.7c2.9-1.4,5.6-2.6,6.2-2.6c0.8,0,1.1,1.3,1.4,5.3
		c0.2,2.9,0.1,4.1-0.1,6.9l-0.2,3v1.4c0,0-0.1,1.4,1.6,1.4c1,0,1.7-0.7,2-2.1c0.2-1.1,0.8-3.2,1.1-4.7s0.8-4.4,1.1-6.4
		c0.8-7.5,1.4-8.7,4.5-10.5c1.7-1,2.9-2.3,3-3.1c0.1-1.3-0.3-1.4-2.5-1.2l-2.6,0.3l0.5-3.2c1.6-10.3,1.5-10.2,8.4-13.5
		c3.5-1.7,6.6-3.7,6.6-3.7l1.4-0.9c2.2-1.1,4.9-3.4,4.1-4.1c0,0-0.8-0.7-2-0.6c-1.2,0-5.3,1.4-7.1,2c-1.7,0.6-4.4,1.4-5.7,1.7
		c-2.3,0.5-2.4,0.4-2-1.3c0.2-0.9,1.4-6.8,2.6-13c1.3-6.2,2.4-11.9,2.6-12.6c0.4-1.7-2-4.3-4.1-4.3c-0.8-0.1-1.9,0.8-2.5,2
		c-1.3,2.5-3.5,11.6-5.8,23.7l-1.7,8.9l-4.8,2.2c-7.7,3.5-7.6,3.8-5.5-7.7c1-5.1,1.1-7.5,0.6-8c-1-1-5.7-1.1-7.1-0.2
		c-1,0.6-3.6,12-4.4,19.2c-0.4,3.2-0.9,4.7-2.1,5.5c-0.8,0.7-5.9,4.1-11.4,7.5c-5.3,3.4-10.1,6.6-10.4,6.9c-1,1,3.2,4.5,5.3,4.5
		c2.2,0,5.1-1.4,10.9-5.3c5.4-3.7,6.1-3.7,5.5-0.2c-0.8,4.7-1.1,5.5-2.9,6.3c-0.9,0.5-3.9,2.6-6.7,4.6c-5.4,4-5.7,5.1-2,6.6
		c1.9,0.8,2.8,0.7,5.9-0.6c2-0.8,3.9-1.3,4.1-1c0.2,0.4,0.3,2.9,0.3,5.8s0.2,6.2,0.5,7.3c0.9,4.4,1,3.8,2.7,2.2c0,0,1.8-1.5,2.8-3
		C30.7,602.6,30.6,601.2,30.6,600.1z M46.9,565.8c-0.3,2.6-0.9,5.1-1.3,5.6c-0.4,0.5-3.2,1.7-6.4,2.8l-5.6,1.9l0.5-4.3
		c0.6-5,0.8-5.3,6.7-8.3C47.2,560.1,47.5,560.2,46.9,565.8z"/>
	<path class="st7" d="M173.9,576l-3.1,0.3h-2.5l0.5-11.2c0.5-9.9,0.4-11.5-0.8-13.2c-1.4-2.2-2.8-2.4-6.5-1.1
		c-4.7,1.7-10.8,13.6-13.1,25.9c-1.7,8.4-2.6,18.2-1.8,19.5c1.1,1.9,2.9,0.5,4.8-3.8c1.5-3.4,2.3-4.3,5.6-5.9
		c2.1-1.1,4.1-1.7,4.4-1.6c0.3,0.2,0.8,3,1.1,6.2c0.4,3.2,0.7,6.5,0.8,7.3c0.2,1.8,2.6,2.7,4.8,1.9c1.7-0.6,1.7-1,1.4-4.3
		c-0.2-2-0.6-6-0.9-9c-0.5-5.4-0.5-5.4,2-7.7C171.2,578.7,173.4,576.4,173.9,576C174,576,173.9,576,173.9,576z M162.1,563.9
		c-0.3,2.9-0.5,7.2-0.5,9.9c0,4.7,0,4.7-2.6,5.9c-3.8,1.5-4.1,1.4-3.7-1.4c1.5-8.7,5.1-19.3,6.5-19.3
		C162.3,558.9,162.4,560.9,162.1,563.9z"/>
	<path class="st7" d="M182.3,554.4c-2.3,1-4.1,2.9-5,5.2c-0.5,1.1-0.7,2.4-0.9,3.6c-1.8,10.4-2.6,21-2.5,31.6c0,0.4,0,0.9,0.3,1.2
		c0.2,0.2,0.6,0.3,0.9,0.4c1.6,0,2.6-1.6,3.3-3.1c0.4-0.8,0.7-1.6,1.1-2.4c0.6-1.2,1.1-2.4,1.4-3.7c0.4-1.7,0.2-3.4,0.4-5.1
		c0.7-7.3,0.1-8.8,1.9-20C183.6,560,186,552.8,182.3,554.4z"/>
	<path class="st7" d="M177.1,548.3c-0.3,0.6-0.4,1.2-0.6,1.8c-0.1,0.4-0.2,0.7-0.1,1.1c0,0.3,0.2,0.5,0.3,0.7
		c1.1,1.5,6.1,0.8,7.7-1.9C187.7,544.3,180.1,542.4,177.1,548.3z"/>
</g>
<g>
	<path class="st3" d="M148.1,524.4c-1.3,2.9-2.6,7.3-5.3,17.8c-0.8,2.9-1.2,3.4-6.2,5.9c-3,1.5-5.6,2.9-5.8,3.1s0.6,1.2,1.8,2.3
		c1.7,1.5,2.8,1.8,4.7,1.5c2.9-0.5,2.9-0.5,1.4,6.8c-3.5,16.2-4.4,29.1-2.7,33.4c0.9,2,1.1,2.2,1.7,1c0.5-1,1-1.8,1-1.8l0.8-2.1
		c0,0,1.1-2.4,1.7-6.1c1.4-9.4,5.3-30.4,6.1-33.3c0.6-2.5,1.1-2.9,5-4.4c2.3-0.8,6.7-2.1,9.6-2.8c2.9-0.7,5.6-1.7,6.1-2.3
		s1.3-1.1,1.7-1.1c0.5,0,0.7-0.4,0.5-0.8c-0.6-1-7.1-1-14.3,0.1c-3.2,0.5-5.9,0.7-6.1,0.5c-0.2-0.2,0.6-3.5,1.6-7.3
		c2.1-7.7,2.3-11.4,1-12.7C150.8,520.5,149.5,521.2,148.1,524.4z"/>
	<path class="st3" d="M119.6,533.5c-5.1,17.7-12.2,60.3-10.9,65.2c0.4,1.4,3.2,3.1,5.1,3.1c1.1,0,1.4-0.8,3-11.7
		c0.7-4.1,1.5-8.9,2-10.5c1-3.6,4.5-10.9,5.3-10.9c0.7,0,0.5,0.8-2.5,16c-3.2,15.9-2.6,20.9,2.3,17.2c1.4-1.2,2.2-3.5,4.7-14.9
		c3.2-14.3,3.9-22.7,2.3-24.7c-1.1-1.4-5.5-1.6-7.7-0.4c-0.8,0.5-1.7,0.6-1.9,0.4c-0.2-0.2,1-7.2,2.6-15.6c2.8-13.8,2.9-15.4,2-17
		c-0.6-0.9-1.9-1.7-2.9-1.7C121.5,528,121,528.7,119.6,533.5z"/>
	<path class="st3" d="M184.4,579.9L184.4,579.9c0.1,0.2,0.2,2.9,0.2,5.5c0.2,4.4,0.6,5.2,2.9,7.5c4.5,4.7,10.3,3,17.7-5
		c4.6-5,5.8-8,4.1-10.1c-0.6-0.8,0.2-1.5,3.8-3.2c3.1-1.6,4.4-2.6,4.1-3.4c-0.2-0.6,0.2-1.2,1-1.4s0.4-0.4-1-0.5
		c-3.4-0.1-19.3,5.1-21.1,7c-0.3,0.2,1.3,1.2,3.4,2.1c2.2,0.9,3.9,1.9,3.9,2.1c0,1-9.2,9.8-10.1,9.8c-1.6,0-2-4.3-1.2-10.7
		c1-7.9,1.3-9.3,3.5-14.7c1.4-3.4,2.2-4.5,2.7-4c0.6,0.6,0.6,1.7,0,3.8c-0.4,1.7-0.6,3.2-0.4,3.4c0.5,0.5,5,0.5,6.5-0.1
		c1.4-0.6,3.4-5,3.4-7.7c0-1.4-0.9-2.9-2.8-4.7c-3.1-3-4.7-3.6-8.3-2.8c-3.2,0.7-4.7,2.1-7.2,6.7c-2.6,4.7-4.1,9.7-4.7,15.6
		L184.4,579.9z"/>
	<path class="st3" d="M61.9,607.7c0.7-2,1.4-4.1,1.4-4.7c0.1-0.5,0.8-2.8,1.4-5.1c1.1-3.5,1.7-4.4,4-5.5c2-0.9,2.9-1.1,3.3-0.5
		c0.3,0.5,0.8,4.7,1.1,9.3c0.3,4.7,0.7,8.5,0.8,8.7c0.5,0.5,3.2-1.4,3.8-2.6c0.3-0.8,0.8-5.5,1-10.5l0.3-9.3l3.2-1.9
		c3.8-2.3,8.6-6.4,7.4-6.4c-0.5,0-2.9,0.6-5.4,1.4s-4.6,1.3-4.7,1.2c-0.2-0.2,0-5,0.4-10.7c0.3-5.7,0.4-11.1,0.2-12
		c-0.2-1-1.4-2.2-2.6-2.9c-2.8-1.3-2.8-1.3-3.7-0.2c-2.6,3.2-8.9,18.4-11.9,28.8c-1.6,5.4-2.5,6.5-6.4,8.3c-3.5,1.6-3.5,2.7-0.1,3.8
		c2.7,0.8,2.8,1,1.6,9c-1,6.5-0.7,8,1.5,7.4C59.4,613.1,61.9,607.7,61.9,607.7z M72.9,580.7c0,3-0.3,3.8-1.6,4.5
		c-0.8,0.5-1.7,0.7-2,0.5c-0.5-0.6,2.2-8.8,2.9-8.8C72.6,576.9,72.9,578.6,72.9,580.7z"/>
	<path class="st3" d="M98.8,557.2c-2.4,0.6-5,3.3-6.8,7.4c-3.2,6.7-2.2,10.2,4.9,17.5c2.6,2.6,4.6,5.1,4.6,5.6s-1.8,2.6-4,4.7
		c-20.1,19.2-24,23.6-25.8,29.4c-0.6,2.2,1.1,2.3,3,0.2c0.8-0.8,1.7-1.3,2-1.1c0.4,0.2,3.2-2.3,6.3-5.6c3.1-3.4,9.3-9.3,13.9-13.4
		c7.8-6.9,10.5-10.1,10.5-12.7c0-0.6-2.3-3.7-5.3-6.8c-2.9-3.1-5.3-6.4-5.4-7.3c-0.3-4.9,1-8,5.6-13.5c1.6-2,2.7-3.9,2.5-4.4
		C104.4,556.6,101.5,556.5,98.8,557.2z"/>
</g>
<rect x="248.9" y="0" class="st0" width="221.3" height="112.3"/>
<g>
	<path class="st3" d="M398.5,9.8c-1.3,2.9-2.6,7.3-5.3,17.8c-0.8,2.9-1.2,3.4-6.2,5.9c-3,1.5-5.6,2.9-5.8,3.1
		c-0.2,0.2,0.6,1.2,1.8,2.3c1.7,1.5,2.8,1.8,4.7,1.5c2.9-0.5,2.9-0.5,1.4,6.8c-3.5,16.2-4.4,29.1-2.7,33.4c0.9,2,1.1,2.2,1.7,1
		c0.5-1,1-1.8,1-1.8l0.8-2.1c0,0,1.1-2.4,1.7-6.1c1.4-9.4,5.3-30.4,6.1-33.3c0.6-2.5,1.1-2.9,5-4.4c2.3-0.8,6.7-2.1,9.6-2.8
		c2.9-0.7,5.6-1.7,6.1-2.3c0.5-0.6,1.3-1.1,1.7-1.1c0.5,0,0.7-0.4,0.5-0.8c-0.6-1-7.1-1-14.3,0.1c-3.2,0.5-5.9,0.7-6.1,0.5
		s0.6-3.5,1.6-7.3c2.1-7.7,2.3-11.4,1-12.7C401.2,5.9,399.9,6.6,398.5,9.8z"/>
	<path class="st3" d="M370,18.9c-5.1,17.7-12.2,60.3-10.9,65.2c0.4,1.4,3.2,3.1,5.1,3.1c1.1,0,1.4-0.8,3-11.7
		c0.7-4.1,1.5-8.9,2-10.5c1-3.6,4.5-10.9,5.3-10.9c0.7,0,0.5,0.8-2.5,16c-3.2,15.9-2.6,20.9,2.3,17.2c1.4-1.2,2.2-3.5,4.7-14.9
		c3.2-14.3,3.9-22.7,2.3-24.7c-1.1-1.4-5.5-1.6-7.7-0.4c-0.8,0.5-1.7,0.6-1.9,0.4c-0.2-0.2,1-7.2,2.6-15.6c2.8-13.8,2.9-15.4,2-17
		c-0.6-0.9-1.9-1.7-2.9-1.7C371.9,13.4,371.4,14.1,370,18.9z"/>
	<path class="st3" d="M434.7,65.3L434.7,65.3c0.1,0.2,0.2,2.9,0.2,5.5c0.2,4.4,0.6,5.2,2.9,7.5c4.5,4.7,10.3,3,17.7-5
		c4.6-5,5.8-8,4.1-10.1c-0.6-0.8,0.2-1.5,3.8-3.2c3.1-1.6,4.4-2.6,4.1-3.4c-0.2-0.6,0.2-1.2,1-1.4s0.4-0.4-1-0.5
		c-3.4-0.1-19.3,5.1-21.1,7c-0.3,0.2,1.3,1.2,3.4,2.1c2.2,0.9,3.9,1.9,3.9,2.1c0,1-9.2,9.8-10.1,9.8c-1.6,0-2-4.3-1.2-10.7
		c1-7.9,1.3-9.3,3.5-14.7c1.4-3.4,2.2-4.5,2.7-4c0.6,0.6,0.6,1.7,0,3.8c-0.4,1.7-0.6,3.2-0.4,3.4c0.5,0.5,5,0.5,6.5-0.1
		c1.4-0.6,3.4-5,3.4-7.7c0-1.4-0.9-2.9-2.8-4.7c-3.1-3-4.7-3.6-8.3-2.8c-3.2,0.7-4.7,2.1-7.2,6.7c-2.6,4.7-4.1,9.7-4.7,15.6
		L434.7,65.3z"/>
	<path class="st3" d="M312.3,93.1c0.7-2,1.4-4.1,1.4-4.7c0.1-0.5,0.8-2.8,1.4-5.1c1.1-3.5,1.7-4.4,4-5.5c2-0.9,2.9-1.1,3.3-0.5
		c0.3,0.5,0.8,4.7,1.1,9.3c0.3,4.7,0.7,8.5,0.8,8.7c0.5,0.5,3.2-1.4,3.8-2.6c0.3-0.8,0.8-5.5,1-10.5l0.3-9.3l3.2-1.9
		c3.8-2.3,8.6-6.4,7.4-6.4c-0.5,0-2.9,0.6-5.4,1.4s-4.6,1.3-4.7,1.2c-0.2-0.2,0-5,0.4-10.7c0.3-5.7,0.4-11.1,0.2-12
		c-0.2-1-1.4-2.2-2.6-2.9c-2.8-1.3-2.8-1.3-3.7-0.2c-2.6,3.2-8.9,18.4-11.9,28.8c-1.6,5.4-2.5,6.5-6.4,8.3c-3.5,1.6-3.5,2.7-0.1,3.8
		c2.7,0.8,2.8,1,1.6,9c-1,6.5-0.7,8,1.5,7.4C309.8,98.5,312.3,93.1,312.3,93.1z M323.3,66.1c0,3-0.3,3.8-1.6,4.5
		c-0.8,0.5-1.7,0.7-2,0.5c-0.5-0.6,2.2-8.8,2.9-8.8C323,62.3,323.3,64,323.3,66.1z"/>
	<path class="st3" d="M349.2,42.6c-2.4,0.6-5,3.3-6.8,7.4c-3.2,6.7-2.2,10.2,4.9,17.5c2.6,2.6,4.6,5.1,4.6,5.6s-1.8,2.6-4,4.7
		c-20.1,19.2-24,23.6-25.8,29.4c-0.6,2.2,1.1,2.3,3,0.2c0.8-0.8,1.7-1.3,2-1.1c0.4,0.2,3.2-2.3,6.3-5.6c3.1-3.4,9.3-9.3,13.9-13.4
		c7.8-6.9,10.5-10.1,10.5-12.7c0-0.6-2.3-3.7-5.3-6.8c-2.9-3.1-5.3-6.4-5.4-7.3c-0.3-4.9,1-8,5.6-13.5c1.6-2,2.7-3.9,2.5-4.4
		C354.8,42,351.9,41.9,349.2,42.6z"/>
</g>
<rect x="247.4" y="127.5" class="st0" width="221.3" height="112.3"/>
<g>
	<path class="st8" d="M279.5,213c0.2-3.6,0.8-9.6,1.4-12.9c0.4-1.7,1.4-2.6,5.6-4.7c2.9-1.4,5.6-2.6,6.2-2.6c0.8,0,1.1,1.3,1.4,5.3
		c0.2,2.9,0.1,4.1-0.1,6.9l-0.2,3v1.4c0,0-0.1,1.4,1.6,1.4c1,0,1.7-0.7,2-2.1c0.2-1.1,0.8-3.2,1.1-4.7s0.8-4.4,1.1-6.4
		c0.8-7.5,1.4-8.7,4.5-10.5c1.7-1,2.9-2.3,3-3.1c0.1-1.3-0.3-1.4-2.5-1.2l-2.6,0.3l0.5-3.2c1.6-10.3,1.5-10.2,8.4-13.5
		c3.5-1.7,6.6-3.7,6.6-3.7l1.4-0.9c2.2-1.1,4.9-3.4,4.1-4.1c0,0-0.8-0.7-2-0.6c-1.2,0-5.3,1.4-7.1,2c-1.7,0.6-4.4,1.4-5.7,1.7
		c-2.3,0.5-2.4,0.4-2-1.3c0.2-0.9,1.4-6.8,2.6-13c1.3-6.2,2.4-11.9,2.6-12.6c0.4-1.7-2-4.3-4.1-4.3c-0.8-0.1-1.9,0.8-2.5,2
		c-1.3,2.5-3.5,11.6-5.8,23.7l-1.7,8.9l-4.8,2.2c-7.7,3.5-7.6,3.8-5.5-7.7c1-5.1,1.1-7.5,0.6-8c-1-1-5.7-1.1-7.1-0.2
		c-1,0.6-3.6,12-4.4,19.2c-0.4,3.2-0.9,4.7-2.1,5.5c-0.8,0.7-5.9,4.1-11.4,7.5c-5.3,3.4-10.1,6.6-10.4,6.9c-1,1,3.2,4.5,5.3,4.5
		c2.2,0,5.1-1.4,10.9-5.3c5.4-3.7,6.1-3.7,5.5-0.2c-0.8,4.7-1.1,5.5-2.9,6.3c-0.9,0.5-3.9,2.6-6.7,4.6c-5.4,4-5.7,5.1-2,6.6
		c1.9,0.8,2.8,0.7,5.9-0.6c2-0.8,3.9-1.3,4.1-1c0.2,0.4,0.3,2.9,0.3,5.8c0,2.9,0.2,6.2,0.5,7.3c0.9,4.4,1,3.8,2.7,2.2
		c0,0,1.8-1.5,2.8-3C279.6,215.5,279.4,214.1,279.5,213z M295.8,178.7c-0.3,2.6-0.9,5.1-1.3,5.6s-3.2,1.7-6.4,2.8l-5.6,1.9l0.5-4.3
		c0.6-5,0.8-5.3,6.7-8.3C296.1,173,296.4,173.1,295.8,178.7z"/>
	<path class="st8" d="M422.8,188.9l-3.1,0.3h-2.5l0.5-11.2c0.5-9.9,0.4-11.5-0.8-13.2c-1.4-2.2-2.8-2.4-6.5-1.1
		c-4.7,1.7-10.8,13.6-13.1,25.9c-1.7,8.4-2.6,18.2-1.8,19.5c1.1,1.9,2.9,0.5,4.8-3.8c1.5-3.4,2.3-4.3,5.6-5.9
		c2.1-1.1,4.1-1.7,4.4-1.6c0.3,0.2,0.8,3,1.1,6.2c0.4,3.2,0.7,6.5,0.8,7.3c0.2,1.8,2.6,2.7,4.8,1.9c1.7-0.6,1.7-1,1.4-4.3
		c-0.2-2-0.6-6-0.9-9c-0.5-5.4-0.5-5.4,2-7.7C420.1,191.6,422.3,189.3,422.8,188.9L422.8,188.9z M411,176.8
		c-0.3,2.9-0.5,7.2-0.5,9.9c0,4.7,0,4.7-2.6,5.9c-3.8,1.5-4.1,1.4-3.7-1.4c1.5-8.7,5.1-19.3,6.5-19.3
		C411.2,171.8,411.3,173.8,411,176.8z"/>
	<path class="st8" d="M431.2,167.3c-2.3,1-4.1,2.9-5,5.2c-0.5,1.1-0.7,2.4-0.9,3.6c-1.8,10.4-2.6,21-2.5,31.6c0,0.4,0,0.9,0.3,1.2
		c0.2,0.2,0.6,0.3,0.9,0.4c1.6,0,2.6-1.6,3.3-3.1c0.4-0.8,0.7-1.6,1.1-2.4c0.6-1.2,1.1-2.4,1.4-3.7c0.4-1.7,0.2-3.4,0.4-5.1
		c0.7-7.3,0.1-8.8,1.9-20C432.5,173,434.8,165.7,431.2,167.3z"/>
	<path class="st8" d="M425.9,161.2c-0.3,0.6-0.4,1.2-0.6,1.8c-0.1,0.4-0.2,0.7-0.1,1.1c0,0.3,0.2,0.5,0.3,0.7
		c1.1,1.5,6.1,0.8,7.7-1.9C436.6,157.2,429,155.3,425.9,161.2z"/>
</g>
<g>
	<path class="st3" d="M397,137.3c-1.3,2.9-2.6,7.3-5.3,17.8c-0.8,2.9-1.2,3.4-6.2,5.9c-3,1.5-5.6,2.9-5.8,3.1
		c-0.2,0.2,0.6,1.2,1.8,2.3c1.7,1.5,2.8,1.8,4.7,1.5c2.9-0.5,2.9-0.5,1.4,6.8c-3.5,16.2-4.4,29.1-2.7,33.4c0.9,2,1.1,2.2,1.7,1
		c0.5-1,1-1.8,1-1.8l0.8-2.1c0,0,1.1-2.4,1.7-6.1c1.4-9.4,5.3-30.4,6.1-33.3c0.6-2.5,1.1-2.9,5-4.4c2.3-0.8,6.7-2.1,9.6-2.8
		s5.6-1.7,6.1-2.3s1.3-1.1,1.7-1.1c0.5,0,0.7-0.4,0.5-0.8c-0.6-1-7.1-1-14.3,0.1c-3.2,0.5-5.9,0.7-6.1,0.5s0.6-3.5,1.6-7.3
		c2.1-7.7,2.3-11.4,1-12.7C399.7,133.4,398.4,134.1,397,137.3z"/>
	<path class="st3" d="M368.5,146.4c-5.1,17.7-12.2,60.3-10.9,65.2c0.4,1.4,3.2,3.1,5.1,3.1c1.1,0,1.4-0.8,3-11.7
		c0.7-4.1,1.5-8.9,2-10.5c1-3.6,4.5-10.9,5.3-10.9c0.7,0,0.5,0.8-2.5,16c-3.2,15.9-2.6,20.9,2.3,17.2c1.4-1.2,2.2-3.5,4.7-14.9
		c3.2-14.3,3.9-22.7,2.3-24.7c-1.1-1.4-5.5-1.6-7.7-0.4c-0.8,0.5-1.7,0.6-1.9,0.4s1-7.2,2.6-15.6c2.8-13.8,2.9-15.4,2-17
		c-0.6-0.9-1.9-1.7-2.9-1.7C370.4,140.9,369.9,141.6,368.5,146.4z"/>
	<path class="st3" d="M433.2,192.8L433.2,192.8c0.1,0.2,0.2,2.9,0.2,5.5c0.2,4.4,0.6,5.2,2.9,7.5c4.5,4.7,10.3,3,17.7-5
		c4.6-5,5.8-8,4.1-10.1c-0.6-0.8,0.2-1.5,3.8-3.2c3.1-1.6,4.4-2.6,4.1-3.4c-0.2-0.6,0.2-1.2,1-1.4s0.4-0.4-1-0.5
		c-3.4-0.1-19.3,5.1-21.1,7c-0.3,0.2,1.3,1.2,3.4,2.1c2.2,0.9,3.9,1.9,3.9,2.1c0,1-9.2,9.8-10.1,9.8c-1.6,0-2-4.3-1.2-10.7
		c1-7.9,1.3-9.3,3.5-14.7c1.4-3.4,2.2-4.5,2.7-4c0.6,0.6,0.6,1.7,0,3.8c-0.4,1.7-0.6,3.2-0.4,3.4c0.5,0.5,5,0.5,6.5-0.1
		c1.4-0.6,3.4-5,3.4-7.7c0-1.4-0.9-2.9-2.8-4.7c-3.1-3-4.7-3.6-8.3-2.8c-3.2,0.7-4.7,2.1-7.2,6.7c-2.6,4.7-4.1,9.7-4.7,15.6
		L433.2,192.8z"/>
	<path class="st3" d="M310.8,220.6c0.7-2,1.4-4.1,1.4-4.7c0.1-0.5,0.8-2.8,1.4-5.1c1.1-3.5,1.7-4.4,4-5.5c2-0.9,2.9-1.1,3.3-0.5
		c0.3,0.5,0.8,4.7,1.1,9.3c0.3,4.7,0.7,8.5,0.8,8.7c0.5,0.5,3.2-1.4,3.8-2.6c0.3-0.8,0.8-5.5,1-10.5l0.3-9.3l3.2-1.9
		c3.8-2.3,8.6-6.4,7.4-6.4c-0.5,0-2.9,0.6-5.4,1.4s-4.6,1.3-4.7,1.2c-0.2-0.2,0-5,0.4-10.7c0.3-5.7,0.4-11.1,0.2-12
		c-0.2-1-1.4-2.2-2.6-2.9c-2.8-1.3-2.8-1.3-3.7-0.2c-2.6,3.2-8.9,18.4-11.9,28.8c-1.6,5.4-2.5,6.5-6.4,8.3c-3.5,1.6-3.5,2.7-0.1,3.8
		c2.7,0.8,2.8,1,1.6,9c-1,6.5-0.7,8,1.5,7.4C308.3,226,310.8,220.6,310.8,220.6z M321.8,193.6c0,3-0.3,3.8-1.6,4.5
		c-0.8,0.5-1.7,0.7-2,0.5c-0.5-0.6,2.2-8.8,2.9-8.8C321.5,189.8,321.8,191.5,321.8,193.6z"/>
	<path class="st3" d="M347.7,170.1c-2.4,0.6-5,3.3-6.8,7.4c-3.2,6.7-2.2,10.2,4.9,17.5c2.6,2.6,4.6,5.1,4.6,5.6s-1.8,2.6-4,4.7
		c-20.1,19.2-24,23.6-25.8,29.4c-0.6,2.2,1.1,2.3,3,0.2c0.8-0.8,1.7-1.3,2-1.1c0.4,0.2,3.2-2.3,6.3-5.6c3.1-3.4,9.3-9.3,13.9-13.4
		c7.8-6.9,10.5-10.1,10.5-12.7c0-0.6-2.3-3.7-5.3-6.8c-2.9-3.1-5.3-6.4-5.4-7.3c-0.3-4.9,1-8,5.6-13.5c1.6-2,2.7-3.9,2.5-4.4
		C353.3,169.5,350.4,169.4,347.7,170.1z"/>
</g>
<rect x="247.4" y="255.7" class="st0" width="221.3" height="112.3"/>
<g>
	<path class="st9" d="M279.5,341.2c0.2-3.6,0.8-9.6,1.4-12.9c0.4-1.7,1.4-2.6,5.6-4.7c2.9-1.4,5.6-2.6,6.2-2.6
		c0.8,0,1.1,1.3,1.4,5.3c0.2,2.9,0.1,4.1-0.1,6.9l-0.2,3v1.4c0,0-0.1,1.4,1.6,1.4c1,0,1.7-0.7,2-2.1c0.2-1.1,0.8-3.2,1.1-4.7
		s0.8-4.4,1.1-6.4c0.8-7.5,1.4-8.7,4.5-10.5c1.7-1,2.9-2.3,3-3.1c0.1-1.3-0.3-1.4-2.5-1.2l-2.6,0.3l0.5-3.2
		c1.6-10.3,1.5-10.2,8.4-13.5c3.5-1.7,6.6-3.7,6.6-3.7l1.4-0.9c2.2-1.1,4.9-3.4,4.1-4.1c0,0-0.8-0.7-2-0.6c-1.2,0-5.3,1.4-7.1,2
		c-1.7,0.6-4.4,1.4-5.7,1.7c-2.3,0.5-2.4,0.4-2-1.3c0.2-0.9,1.4-6.8,2.6-13c1.3-6.2,2.4-11.9,2.6-12.6c0.4-1.7-2-4.3-4.1-4.3
		c-0.8-0.1-1.9,0.8-2.5,2c-1.3,2.5-3.5,11.6-5.8,23.7l-1.7,8.9l-4.8,2.2c-7.7,3.5-7.6,3.8-5.5-7.7c1-5.1,1.1-7.5,0.6-8
		c-1-1-5.7-1.1-7.1-0.2c-1,0.6-3.6,12-4.4,19.2c-0.4,3.2-0.9,4.7-2.1,5.5c-0.8,0.7-5.9,4.1-11.4,7.5c-5.3,3.4-10.1,6.6-10.4,6.9
		c-1,1,3.2,4.5,5.3,4.5c2.2,0,5.1-1.4,10.9-5.3c5.4-3.7,6.1-3.7,5.5-0.2c-0.8,4.7-1.1,5.5-2.9,6.3c-0.9,0.5-3.9,2.6-6.7,4.6
		c-5.4,4-5.7,5.1-2,6.6c1.9,0.8,2.8,0.7,5.9-0.6c2-0.8,3.9-1.3,4.1-1c0.2,0.4,0.3,2.9,0.3,5.8s0.2,6.2,0.5,7.3
		c0.9,4.4,1,3.8,2.7,2.2c0,0,1.8-1.5,2.8-3C279.6,343.7,279.4,342.3,279.5,341.2z M295.8,306.9c-0.3,2.6-0.9,5.1-1.3,5.6
		s-3.2,1.7-6.4,2.8l-5.6,1.9l0.5-4.3c0.6-5,0.8-5.3,6.7-8.3C296.1,301.2,296.4,301.3,295.8,306.9z"/>
	<path class="st9" d="M422.8,317l-3.1,0.3h-2.5l0.5-11.2c0.5-9.9,0.4-11.5-0.8-13.2c-1.4-2.2-2.8-2.4-6.5-1.1
		c-4.7,1.7-10.8,13.6-13.1,25.9c-1.7,8.4-2.6,18.2-1.8,19.5c1.1,1.9,2.9,0.5,4.8-3.8c1.5-3.4,2.3-4.3,5.6-5.9
		c2.1-1.1,4.1-1.7,4.4-1.6c0.3,0.2,0.8,3,1.1,6.2c0.4,3.2,0.7,6.5,0.8,7.3c0.2,1.8,2.6,2.7,4.8,1.9c1.7-0.6,1.7-1,1.4-4.3
		c-0.2-2-0.6-6-0.9-9c-0.5-5.4-0.5-5.4,2-7.7C420.1,319.8,422.3,317.5,422.8,317C422.8,317.1,422.8,317,422.8,317z M411,305
		c-0.3,2.9-0.5,7.2-0.5,9.9c0,4.7,0,4.7-2.6,5.9c-3.8,1.5-4.1,1.4-3.7-1.4c1.5-8.7,5.1-19.3,6.5-19.3C411.2,300,411.3,302,411,305z"
		/>
	<path class="st9" d="M431.2,295.5c-2.3,1-4.1,2.9-5,5.2c-0.5,1.1-0.7,2.4-0.9,3.6c-1.8,10.4-2.6,21-2.5,31.6c0,0.4,0,0.9,0.3,1.2
		c0.2,0.2,0.6,0.3,0.9,0.4c1.6,0,2.6-1.6,3.3-3.1c0.4-0.8,0.7-1.6,1.1-2.4c0.6-1.2,1.1-2.4,1.4-3.7c0.4-1.7,0.2-3.4,0.4-5.1
		c0.7-7.3,0.1-8.8,1.9-20C432.5,301.1,434.8,293.9,431.2,295.5z"/>
	<path class="st9" d="M425.9,289.4c-0.3,0.6-0.4,1.2-0.6,1.8c-0.1,0.4-0.2,0.7-0.1,1.1c0,0.3,0.2,0.5,0.3,0.7
		c1.1,1.5,6.1,0.8,7.7-1.9C436.6,285.4,429,283.5,425.9,289.4z"/>
</g>
<g>
	<path class="st3" d="M397,265.5c-1.3,2.9-2.6,7.3-5.3,17.8c-0.8,2.9-1.2,3.4-6.2,5.9c-3,1.5-5.6,2.9-5.8,3.1
		c-0.2,0.2,0.6,1.2,1.8,2.3c1.7,1.5,2.8,1.8,4.7,1.5c2.9-0.5,2.9-0.5,1.4,6.8c-3.5,16.2-4.4,29.1-2.7,33.4c0.9,2,1.1,2.2,1.7,1
		c0.5-1,1-1.8,1-1.8l0.8-2.1c0,0,1.1-2.4,1.7-6.1c1.4-9.4,5.3-30.4,6.1-33.3c0.6-2.5,1.1-2.9,5-4.4c2.3-0.8,6.7-2.1,9.6-2.8
		c2.9-0.7,5.6-1.7,6.1-2.3c0.5-0.6,1.3-1.1,1.7-1.1c0.5,0,0.7-0.4,0.5-0.8c-0.6-1-7.1-1-14.3,0.1c-3.2,0.5-5.9,0.7-6.1,0.5
		s0.6-3.5,1.6-7.3c2.1-7.7,2.3-11.4,1-12.7C399.7,261.6,398.4,262.3,397,265.5z"/>
	<path class="st3" d="M368.5,274.6c-5.1,17.7-12.2,60.3-10.9,65.2c0.4,1.4,3.2,3.1,5.1,3.1c1.1,0,1.4-0.8,3-11.7
		c0.7-4.1,1.5-8.9,2-10.5c1-3.6,4.5-10.9,5.3-10.9c0.7,0,0.5,0.8-2.5,16c-3.2,15.9-2.6,20.9,2.3,17.2c1.4-1.2,2.2-3.5,4.7-14.9
		c3.2-14.3,3.9-22.7,2.3-24.7c-1.1-1.4-5.5-1.6-7.7-0.4c-0.8,0.5-1.7,0.6-1.9,0.4c-0.2-0.2,1-7.2,2.6-15.6c2.8-13.8,2.9-15.4,2-17
		c-0.6-0.9-1.9-1.7-2.9-1.7C370.4,269.1,369.9,269.8,368.5,274.6z"/>
	<path class="st3" d="M433.2,321L433.2,321c0.1,0.2,0.2,2.9,0.2,5.5c0.2,4.4,0.6,5.2,2.9,7.5c4.5,4.7,10.3,3,17.7-5
		c4.6-5,5.8-8,4.1-10.1c-0.6-0.8,0.2-1.5,3.8-3.2c3.1-1.6,4.4-2.6,4.1-3.4c-0.2-0.6,0.2-1.2,1-1.4c0.8-0.2,0.4-0.4-1-0.5
		c-3.4-0.1-19.3,5.1-21.1,7c-0.3,0.2,1.3,1.2,3.4,2.1c2.2,0.9,3.9,1.9,3.9,2.1c0,1-9.2,9.8-10.1,9.8c-1.6,0-2-4.3-1.2-10.7
		c1-7.9,1.3-9.3,3.5-14.7c1.4-3.4,2.2-4.5,2.7-4c0.6,0.6,0.6,1.7,0,3.8c-0.4,1.7-0.6,3.2-0.4,3.4c0.5,0.5,5,0.5,6.5-0.1
		c1.4-0.6,3.4-5,3.4-7.7c0-1.4-0.9-2.9-2.8-4.7c-3.1-3-4.7-3.6-8.3-2.8c-3.2,0.7-4.7,2.1-7.2,6.7c-2.6,4.7-4.1,9.7-4.7,15.6
		L433.2,321z"/>
	<path class="st3" d="M310.8,348.8c0.7-2,1.4-4.1,1.4-4.7c0.1-0.5,0.8-2.8,1.4-5.1c1.1-3.5,1.7-4.4,4-5.5c2-0.9,2.9-1.1,3.3-0.5
		c0.3,0.5,0.8,4.7,1.1,9.3c0.3,4.7,0.7,8.5,0.8,8.7c0.5,0.5,3.2-1.4,3.8-2.6c0.3-0.8,0.8-5.5,1-10.5l0.3-9.3l3.2-1.9
		c3.8-2.3,8.6-6.4,7.4-6.4c-0.5,0-2.9,0.6-5.4,1.4s-4.6,1.3-4.7,1.2c-0.2-0.2,0-5,0.4-10.7c0.3-5.7,0.4-11.1,0.2-12
		c-0.2-1-1.4-2.2-2.6-2.9c-2.8-1.3-2.8-1.3-3.7-0.2c-2.6,3.2-8.9,18.4-11.9,28.8c-1.6,5.4-2.5,6.5-6.4,8.3c-3.5,1.6-3.5,2.7-0.1,3.8
		c2.7,0.8,2.8,1,1.6,9c-1,6.5-0.7,8,1.5,7.4C308.3,354.2,310.8,348.8,310.8,348.8z M321.8,321.8c0,3-0.3,3.8-1.6,4.5
		c-0.8,0.5-1.7,0.7-2,0.5c-0.5-0.6,2.2-8.8,2.9-8.8C321.5,318,321.8,319.7,321.8,321.8z"/>
	<path class="st3" d="M347.7,298.3c-2.4,0.6-5,3.3-6.8,7.4c-3.2,6.7-2.2,10.2,4.9,17.5c2.6,2.6,4.6,5.1,4.6,5.6s-1.8,2.6-4,4.7
		c-20.1,19.2-24,23.6-25.8,29.4c-0.6,2.2,1.1,2.3,3,0.2c0.8-0.8,1.7-1.3,2-1.1c0.4,0.2,3.2-2.3,6.3-5.6c3.1-3.4,9.3-9.3,13.9-13.4
		c7.8-6.9,10.5-10.1,10.5-12.7c0-0.6-2.3-3.7-5.3-6.8c-2.9-3.1-5.3-6.4-5.4-7.3c-0.3-4.9,1-8,5.6-13.5c1.6-2,2.7-3.9,2.5-4.4
		C353.3,297.7,350.4,297.6,347.7,298.3z"/>
</g>
<rect x="247.4" y="387.3" class="st0" width="221.3" height="112.3"/>
<g>
	<path class="st10" d="M279.5,472.8c0.2-3.6,0.8-9.6,1.4-12.9c0.4-1.7,1.4-2.6,5.6-4.7c2.9-1.4,5.6-2.6,6.2-2.6
		c0.8,0,1.1,1.3,1.4,5.3c0.2,2.9,0.1,4.1-0.1,6.9l-0.2,3v1.4c0,0-0.1,1.4,1.6,1.4c1,0,1.7-0.7,2-2.1c0.2-1.1,0.8-3.2,1.1-4.7
		s0.8-4.4,1.1-6.4c0.8-7.5,1.4-8.7,4.5-10.5c1.7-1,2.9-2.3,3-3.1c0.1-1.3-0.3-1.4-2.5-1.2l-2.6,0.3l0.5-3.2
		c1.6-10.3,1.5-10.2,8.4-13.5c3.5-1.7,6.6-3.7,6.6-3.7l1.4-0.9c2.2-1.1,4.9-3.4,4.1-4.1c0,0-0.8-0.7-2-0.6c-1.2,0-5.3,1.4-7.1,2
		c-1.7,0.6-4.4,1.4-5.7,1.7c-2.3,0.5-2.4,0.4-2-1.3c0.2-0.9,1.4-6.8,2.6-13c1.3-6.2,2.4-11.9,2.6-12.6c0.4-1.7-2-4.3-4.1-4.3
		c-0.8-0.1-1.9,0.8-2.5,2c-1.3,2.5-3.5,11.6-5.8,23.7l-1.7,8.9l-4.8,2.2c-7.7,3.5-7.6,3.8-5.5-7.7c1-5.1,1.1-7.5,0.6-8
		c-1-1-5.7-1.1-7.1-0.2c-1,0.6-3.6,12-4.4,19.2c-0.4,3.2-0.9,4.7-2.1,5.5c-0.8,0.7-5.9,4.1-11.4,7.5c-5.3,3.4-10.1,6.6-10.4,6.9
		c-1,1,3.2,4.5,5.3,4.5c2.2,0,5.1-1.4,10.9-5.3c5.4-3.7,6.1-3.7,5.5-0.2c-0.8,4.7-1.1,5.5-2.9,6.3c-0.9,0.5-3.9,2.6-6.7,4.6
		c-5.4,4-5.7,5.1-2,6.6c1.9,0.8,2.8,0.7,5.9-0.6c2-0.8,3.9-1.3,4.1-1c0.2,0.4,0.3,2.9,0.3,5.8s0.2,6.2,0.5,7.3
		c0.9,4.4,1,3.8,2.7,2.2c0,0,1.8-1.5,2.8-3C279.6,475.2,279.4,473.9,279.5,472.8z M295.8,438.5c-0.3,2.6-0.9,5.1-1.3,5.6
		s-3.2,1.7-6.4,2.8l-5.6,1.9l0.5-4.3c0.6-5,0.8-5.3,6.7-8.3C296.1,432.8,296.4,432.9,295.8,438.5z"/>
	<path class="st10" d="M422.8,448.6l-3.1,0.3h-2.5l0.5-11.2c0.5-9.9,0.4-11.5-0.8-13.2c-1.4-2.2-2.8-2.4-6.5-1.1
		c-4.7,1.7-10.8,13.6-13.1,25.9c-1.7,8.4-2.6,18.2-1.8,19.5c1.1,1.9,2.9,0.5,4.8-3.8c1.5-3.4,2.3-4.3,5.6-5.9
		c2.1-1.1,4.1-1.7,4.4-1.6c0.3,0.2,0.8,3,1.1,6.2c0.4,3.2,0.7,6.5,0.8,7.3c0.2,1.8,2.6,2.7,4.8,1.9c1.7-0.6,1.7-1,1.4-4.3
		c-0.2-2-0.6-6-0.9-9c-0.5-5.4-0.5-5.4,2-7.7C420.1,451.3,422.3,449.1,422.8,448.6L422.8,448.6z M411,436.6
		c-0.3,2.9-0.5,7.2-0.5,9.9c0,4.7,0,4.7-2.6,5.9c-3.8,1.5-4.1,1.4-3.7-1.4c1.5-8.7,5.1-19.3,6.5-19.3
		C411.2,431.6,411.3,433.6,411,436.6z"/>
	<path class="st10" d="M431.2,427c-2.3,1-4.1,2.9-5,5.2c-0.5,1.1-0.7,2.4-0.9,3.6c-1.8,10.4-2.6,21-2.5,31.6c0,0.4,0,0.9,0.3,1.2
		c0.2,0.2,0.6,0.3,0.9,0.4c1.6,0,2.6-1.6,3.3-3.1c0.4-0.8,0.7-1.6,1.1-2.4c0.6-1.2,1.1-2.4,1.4-3.7c0.4-1.7,0.2-3.4,0.4-5.1
		c0.7-7.3,0.1-8.8,1.9-20C432.5,432.7,434.8,425.4,431.2,427z"/>
	<path class="st10" d="M425.9,420.9c-0.3,0.6-0.4,1.2-0.6,1.8c-0.1,0.4-0.2,0.7-0.1,1.1c0,0.3,0.2,0.5,0.3,0.7
		c1.1,1.5,6.1,0.8,7.7-1.9C436.6,417,429,415,425.9,420.9z"/>
</g>
<g>
	<path class="st3" d="M397,397.1c-1.3,2.9-2.6,7.3-5.3,17.8c-0.8,2.9-1.2,3.4-6.2,5.9c-3,1.5-5.6,2.9-5.8,3.1
		c-0.2,0.2,0.6,1.2,1.8,2.3c1.7,1.5,2.8,1.8,4.7,1.5c2.9-0.5,2.9-0.5,1.4,6.8c-3.5,16.2-4.4,29.1-2.7,33.4c0.9,2,1.1,2.2,1.7,1
		c0.5-1,1-1.8,1-1.8l0.8-2.1c0,0,1.1-2.4,1.7-6.1c1.4-9.4,5.3-30.4,6.1-33.3c0.6-2.5,1.1-2.9,5-4.4c2.3-0.8,6.7-2.1,9.6-2.8
		c2.9-0.7,5.6-1.7,6.1-2.3c0.5-0.6,1.3-1.1,1.7-1.1c0.5,0,0.7-0.4,0.5-0.8c-0.6-1-7.1-1-14.3,0.1c-3.2,0.5-5.9,0.7-6.1,0.5
		s0.6-3.5,1.6-7.3c2.1-7.7,2.3-11.4,1-12.7C399.7,393.2,398.4,393.9,397,397.1z"/>
	<path class="st3" d="M368.5,406.2c-5.1,17.7-12.2,60.3-10.9,65.2c0.4,1.4,3.2,3.1,5.1,3.1c1.1,0,1.4-0.8,3-11.7
		c0.7-4.1,1.5-8.9,2-10.5c1-3.6,4.5-10.9,5.3-10.9c0.7,0,0.5,0.8-2.5,16c-3.2,15.9-2.6,20.9,2.3,17.2c1.4-1.2,2.2-3.5,4.7-14.9
		c3.2-14.3,3.9-22.7,2.3-24.7c-1.1-1.4-5.5-1.6-7.7-0.4c-0.8,0.5-1.7,0.6-1.9,0.4c-0.2-0.2,1-7.2,2.6-15.6c2.8-13.8,2.9-15.4,2-17
		c-0.6-0.9-1.9-1.7-2.9-1.7C370.4,400.7,369.9,401.4,368.5,406.2z"/>
	<path class="st3" d="M433.2,452.5L433.2,452.5c0.1,0.2,0.2,2.9,0.2,5.5c0.2,4.4,0.6,5.2,2.9,7.5c4.5,4.7,10.3,3,17.7-5
		c4.6-5,5.8-8,4.1-10.1c-0.6-0.8,0.2-1.5,3.8-3.2c3.1-1.6,4.4-2.6,4.1-3.4c-0.2-0.6,0.2-1.2,1-1.4c0.8-0.2,0.4-0.4-1-0.5
		c-3.4-0.1-19.3,5.1-21.1,7c-0.3,0.2,1.3,1.2,3.4,2.1c2.2,0.9,3.9,1.9,3.9,2.1c0,1-9.2,9.8-10.1,9.8c-1.6,0-2-4.3-1.2-10.7
		c1-7.9,1.3-9.3,3.5-14.7c1.4-3.4,2.2-4.5,2.7-4c0.6,0.6,0.6,1.7,0,3.8c-0.4,1.7-0.6,3.2-0.4,3.4c0.5,0.5,5,0.5,6.5-0.1
		c1.4-0.6,3.4-5,3.4-7.7c0-1.4-0.9-2.9-2.8-4.7c-3.1-3-4.7-3.6-8.3-2.8c-3.2,0.7-4.7,2.1-7.2,6.7c-2.6,4.7-4.1,9.7-4.7,15.6
		L433.2,452.5z"/>
	<path class="st3" d="M310.8,480.4c0.7-2,1.4-4.1,1.4-4.7c0.1-0.5,0.8-2.8,1.4-5.1c1.1-3.5,1.7-4.4,4-5.5c2-0.9,2.9-1.1,3.3-0.5
		c0.3,0.5,0.8,4.7,1.1,9.3c0.3,4.7,0.7,8.5,0.8,8.7c0.5,0.5,3.2-1.4,3.8-2.6c0.3-0.8,0.8-5.5,1-10.5l0.3-9.3l3.2-1.9
		c3.8-2.3,8.6-6.4,7.4-6.4c-0.5,0-2.9,0.6-5.4,1.4s-4.6,1.3-4.7,1.2c-0.2-0.2,0-5,0.4-10.7c0.3-5.7,0.4-11.1,0.2-12
		c-0.2-1-1.4-2.2-2.6-2.9c-2.8-1.3-2.8-1.3-3.7-0.2c-2.6,3.2-8.9,18.4-11.9,28.8c-1.6,5.4-2.5,6.5-6.4,8.3c-3.5,1.6-3.5,2.7-0.1,3.8
		c2.7,0.8,2.8,1,1.6,9c-1,6.5-0.7,8,1.5,7.4C308.3,485.8,310.8,480.4,310.8,480.4z M321.8,453.4c0,3-0.3,3.8-1.6,4.5
		c-0.8,0.5-1.7,0.7-2,0.5c-0.5-0.6,2.2-8.8,2.9-8.8C321.5,449.6,321.8,451.3,321.8,453.4z"/>
	<path class="st3" d="M347.7,429.9c-2.4,0.6-5,3.3-6.8,7.4c-3.2,6.7-2.2,10.2,4.9,17.5c2.6,2.6,4.6,5.1,4.6,5.6s-1.8,2.6-4,4.7
		c-20.1,19.2-24,23.6-25.8,29.4c-0.6,2.2,1.1,2.3,3,0.2c0.8-0.8,1.7-1.3,2-1.1c0.4,0.2,3.2-2.3,6.3-5.6c3.1-3.4,9.3-9.3,13.9-13.4
		c7.8-6.9,10.5-10.1,10.5-12.7c0-0.6-2.3-3.7-5.3-6.8c-2.9-3.1-5.3-6.4-5.4-7.3c-0.3-4.9,1-8,5.6-13.5c1.6-2,2.7-3.9,2.5-4.4
		C353.3,429.3,350.4,429.2,347.7,429.9z"/>
</g>
<rect x="247.4" y="515.4" class="st0" width="221.3" height="112.3"/>
<g>
	<path class="st11" d="M279.5,600.9c0.2-3.6,0.8-9.6,1.4-12.9c0.4-1.7,1.4-2.6,5.6-4.7c2.9-1.4,5.6-2.6,6.2-2.6
		c0.8,0,1.1,1.3,1.4,5.3c0.2,2.9,0.1,4.1-0.1,6.9l-0.2,3v1.4c0,0-0.1,1.4,1.6,1.4c1,0,1.7-0.7,2-2.1c0.2-1.1,0.8-3.2,1.1-4.7
		s0.8-4.4,1.1-6.4c0.8-7.5,1.4-8.7,4.5-10.5c1.7-1,2.9-2.3,3-3.1c0.1-1.3-0.3-1.4-2.5-1.2L302,571l0.5-3.2
		c1.6-10.3,1.5-10.2,8.4-13.5c3.5-1.7,6.6-3.7,6.6-3.7l1.4-0.9c2.2-1.1,4.9-3.4,4.1-4.1c0,0-0.8-0.7-2-0.6c-1.2,0-5.3,1.4-7.1,2
		c-1.7,0.6-4.4,1.4-5.7,1.7c-2.3,0.5-2.4,0.4-2-1.3c0.2-0.9,1.4-6.8,2.6-13c1.3-6.2,2.4-11.9,2.6-12.6c0.4-1.7-2-4.3-4.1-4.3
		c-0.8-0.1-1.9,0.8-2.5,2c-1.3,2.5-3.5,11.6-5.8,23.7l-1.7,8.9l-4.8,2.2c-7.7,3.5-7.6,3.8-5.5-7.7c1-5.1,1.1-7.5,0.6-8
		c-1-1-5.7-1.1-7.1-0.2c-1,0.6-3.6,12-4.4,19.2c-0.4,3.2-0.9,4.7-2.1,5.5c-0.8,0.7-5.9,4.1-11.4,7.5c-5.3,3.4-10.1,6.6-10.4,6.9
		c-1,1,3.2,4.5,5.3,4.5c2.2,0,5.1-1.4,10.9-5.3c5.4-3.7,6.1-3.7,5.5-0.2c-0.8,4.7-1.1,5.5-2.9,6.3c-0.9,0.5-3.9,2.6-6.7,4.6
		c-5.4,4-5.7,5.1-2,6.6c1.9,0.8,2.8,0.7,5.9-0.6c2-0.8,3.9-1.3,4.1-1c0.2,0.4,0.3,2.9,0.3,5.8c0,2.9,0.2,6.2,0.5,7.3
		c0.9,4.4,1,3.8,2.7,2.2c0,0,1.8-1.5,2.8-3C279.6,603.4,279.4,602,279.5,600.9z M295.8,566.6c-0.3,2.6-0.9,5.1-1.3,5.6
		s-3.2,1.7-6.4,2.8l-5.6,1.9l0.5-4.3c0.6-5,0.8-5.3,6.7-8.3C296.1,560.9,296.4,561,295.8,566.6z"/>
	<path class="st11" d="M422.8,576.8l-3.1,0.3h-2.5l0.5-11.2c0.5-9.9,0.4-11.5-0.8-13.2c-1.4-2.2-2.8-2.4-6.5-1.1
		c-4.7,1.7-10.8,13.6-13.1,25.9c-1.7,8.4-2.6,18.2-1.8,19.5c1.1,1.9,2.9,0.5,4.8-3.8c1.5-3.4,2.3-4.3,5.6-5.9
		c2.1-1.1,4.1-1.7,4.4-1.6c0.3,0.2,0.8,3,1.1,6.2c0.4,3.2,0.7,6.5,0.8,7.3c0.2,1.8,2.6,2.7,4.8,1.9c1.7-0.6,1.7-1,1.4-4.3
		c-0.2-2-0.6-6-0.9-9c-0.5-5.4-0.5-5.4,2-7.7C420.1,579.5,422.3,577.2,422.8,576.8L422.8,576.8z M411,564.7
		c-0.3,2.9-0.5,7.2-0.5,9.9c0,4.7,0,4.7-2.6,5.9c-3.8,1.5-4.1,1.4-3.7-1.4c1.5-8.7,5.1-19.3,6.5-19.3
		C411.2,559.7,411.3,561.7,411,564.7z"/>
	<path class="st11" d="M431.2,555.2c-2.3,1-4.1,2.9-5,5.2c-0.5,1.1-0.7,2.4-0.9,3.6c-1.8,10.4-2.6,21-2.5,31.6c0,0.4,0,0.9,0.3,1.2
		c0.2,0.2,0.6,0.3,0.9,0.4c1.6,0,2.6-1.6,3.3-3.1c0.4-0.8,0.7-1.6,1.1-2.4c0.6-1.2,1.1-2.4,1.4-3.7c0.4-1.7,0.2-3.4,0.4-5.1
		c0.7-7.3,0.1-8.8,1.9-20C432.5,560.9,434.8,553.6,431.2,555.2z"/>
	<path class="st11" d="M425.9,549.1c-0.3,0.6-0.4,1.2-0.6,1.8c-0.1,0.4-0.2,0.7-0.1,1.1c0,0.3,0.2,0.5,0.3,0.7
		c1.1,1.5,6.1,0.8,7.7-1.9C436.6,545.1,429,543.2,425.9,549.1z"/>
</g>
<g>
	<path class="st3" d="M397,525.2c-1.3,2.9-2.6,7.3-5.3,17.8c-0.8,2.9-1.2,3.4-6.2,5.9c-3,1.5-5.6,2.9-5.8,3.1
		c-0.2,0.2,0.6,1.2,1.8,2.3c1.7,1.5,2.8,1.8,4.7,1.5c2.9-0.5,2.9-0.5,1.4,6.8c-3.5,16.2-4.4,29.1-2.7,33.4c0.9,2,1.1,2.2,1.7,1
		c0.5-1,1-1.8,1-1.8l0.8-2.1c0,0,1.1-2.4,1.7-6.1c1.4-9.4,5.3-30.4,6.1-33.3c0.6-2.5,1.1-2.9,5-4.4c2.3-0.8,6.7-2.1,9.6-2.8
		s5.6-1.7,6.1-2.3s1.3-1.1,1.7-1.1c0.5,0,0.7-0.4,0.5-0.8c-0.6-1-7.1-1-14.3,0.1c-3.2,0.5-5.9,0.7-6.1,0.5s0.6-3.5,1.6-7.3
		c2.1-7.7,2.3-11.4,1-12.7C399.7,521.3,398.4,522,397,525.2z"/>
	<path class="st3" d="M368.5,534.3c-5.1,17.7-12.2,60.3-10.9,65.2c0.4,1.4,3.2,3.1,5.1,3.1c1.1,0,1.4-0.8,3-11.7
		c0.7-4.1,1.5-8.9,2-10.5c1-3.6,4.5-10.9,5.3-10.9c0.7,0,0.5,0.8-2.5,16c-3.2,15.9-2.6,20.9,2.3,17.2c1.4-1.2,2.2-3.5,4.7-14.9
		c3.2-14.3,3.9-22.7,2.3-24.7c-1.1-1.4-5.5-1.6-7.7-0.4c-0.8,0.5-1.7,0.6-1.9,0.4s1-7.2,2.6-15.6c2.8-13.8,2.9-15.4,2-17
		c-0.6-0.9-1.9-1.7-2.9-1.7C370.4,528.8,369.9,529.5,368.5,534.3z"/>
	<path class="st3" d="M433.2,580.7L433.2,580.7c0.1,0.2,0.2,2.9,0.2,5.5c0.2,4.4,0.6,5.2,2.9,7.5c4.5,4.7,10.3,3,17.7-5
		c4.6-5,5.8-8,4.1-10.1c-0.6-0.8,0.2-1.5,3.8-3.2c3.1-1.6,4.4-2.6,4.1-3.4c-0.2-0.6,0.2-1.2,1-1.4s0.4-0.4-1-0.5
		c-3.4-0.1-19.3,5.1-21.1,7c-0.3,0.2,1.3,1.2,3.4,2.1c2.2,0.9,3.9,1.9,3.9,2.1c0,1-9.2,9.8-10.1,9.8c-1.6,0-2-4.3-1.2-10.7
		c1-7.9,1.3-9.3,3.5-14.7c1.4-3.4,2.2-4.5,2.7-4c0.6,0.6,0.6,1.7,0,3.8c-0.4,1.7-0.6,3.2-0.4,3.4c0.5,0.5,5,0.5,6.5-0.1
		c1.4-0.6,3.4-5,3.4-7.7c0-1.4-0.9-2.9-2.8-4.7c-3.1-3-4.7-3.6-8.3-2.8c-3.2,0.7-4.7,2.1-7.2,6.7c-2.6,4.7-4.1,9.7-4.7,15.6
		L433.2,580.7z"/>
	<path class="st3" d="M310.8,608.5c0.7-2,1.4-4.1,1.4-4.7c0.1-0.5,0.8-2.8,1.4-5.1c1.1-3.5,1.7-4.4,4-5.5c2-0.9,2.9-1.1,3.3-0.5
		c0.3,0.5,0.8,4.7,1.1,9.3c0.3,4.7,0.7,8.5,0.8,8.7c0.5,0.5,3.2-1.4,3.8-2.6c0.3-0.8,0.8-5.5,1-10.5l0.3-9.3l3.2-1.9
		c3.8-2.3,8.6-6.4,7.4-6.4c-0.5,0-2.9,0.6-5.4,1.4c-2.5,0.8-4.6,1.3-4.7,1.2c-0.2-0.2,0-5,0.4-10.7c0.3-5.7,0.4-11.1,0.2-12
		c-0.2-1-1.4-2.2-2.6-2.9c-2.8-1.3-2.8-1.3-3.7-0.2c-2.6,3.2-8.9,18.4-11.9,28.8c-1.6,5.4-2.5,6.5-6.4,8.3c-3.5,1.6-3.5,2.7-0.1,3.8
		c2.7,0.8,2.8,1,1.6,9c-1,6.5-0.7,8,1.5,7.4C308.3,613.9,310.8,608.5,310.8,608.5z M321.8,581.5c0,3-0.3,3.8-1.6,4.5
		c-0.8,0.5-1.7,0.7-2,0.5c-0.5-0.6,2.2-8.8,2.9-8.8C321.5,577.7,321.8,579.4,321.8,581.5z"/>
	<path class="st3" d="M347.7,558c-2.4,0.6-5,3.3-6.8,7.4c-3.2,6.7-2.2,10.2,4.9,17.5c2.6,2.6,4.6,5.1,4.6,5.6s-1.8,2.6-4,4.7
		c-20.1,19.2-24,23.6-25.8,29.4c-0.6,2.2,1.1,2.3,3,0.2c0.8-0.8,1.7-1.3,2-1.1c0.4,0.2,3.2-2.3,6.3-5.6c3.1-3.4,9.3-9.3,13.9-13.4
		c7.8-6.9,10.5-10.1,10.5-12.7c0-0.6-2.3-3.7-5.3-6.8c-2.9-3.1-5.3-6.4-5.4-7.3c-0.3-4.9,1-8,5.6-13.5c1.6-2,2.7-3.9,2.5-4.4
		C353.3,557.4,350.4,557.3,347.7,558z"/>
</g>
<g>
	<g>
		<g>
			<path id="SVGID_1_" class="st12" d="M281,85.5c0.2-3.6,0.8-9.6,1.4-12.9c0.4-1.7,1.4-2.6,5.6-4.7c2.9-1.4,5.6-2.6,6.2-2.6
				c0.8,0,1.1,1.3,1.4,5.3c0.2,2.9,0.1,4.1-0.1,6.9l-0.2,3v1.4c0,0-0.1,1.4,1.6,1.4c1,0,1.7-0.7,2-2.1c0.2-1.1,0.8-3.2,1.1-4.7
				c0.3-1.5,0.8-4.4,1.1-6.4c0.8-7.5,1.4-8.7,4.5-10.5c1.7-1,2.9-2.3,3-3.1c0.1-1.3-0.3-1.4-2.5-1.2l-2.6,0.3l0.5-3.2
				c1.6-10.3,1.5-10.2,8.4-13.5c3.5-1.7,6.6-3.7,6.6-3.7l1.4-0.9c2.2-1.1,4.9-3.4,4.1-4.1c0,0-0.8-0.7-2-0.6c-1.2,0-5.3,1.4-7.1,2
				c-1.7,0.6-4.4,1.4-5.7,1.7c-2.3,0.5-2.4,0.4-2-1.3c0.2-0.9,1.4-6.8,2.6-13c1.3-6.2,2.4-11.9,2.6-12.6c0.4-1.7-2-4.3-4.1-4.3
				c-0.8-0.1-1.9,0.8-2.5,2c-1.3,2.5-3.5,11.6-5.8,23.7l-1.7,8.9l-4.8,2.2c-7.7,3.5-7.6,3.8-5.5-7.7c1-5.1,1.1-7.5,0.6-8
				c-1-1-5.7-1.1-7.1-0.2c-1,0.6-3.6,12-4.4,19.2c-0.4,3.2-0.9,4.7-2.1,5.5c-0.8,0.7-5.9,4.1-11.4,7.5c-5.3,3.4-10.1,6.6-10.4,6.9
				c-1,1,3.2,4.5,5.3,4.5c2.2,0,5.1-1.4,10.9-5.3c5.4-3.7,6.1-3.7,5.5-0.2c-0.8,4.7-1.1,5.5-2.9,6.3c-0.9,0.5-3.9,2.6-6.7,4.6
				c-5.4,4-5.7,5.1-2,6.6c1.9,0.8,2.8,0.7,5.9-0.6c2-0.8,3.9-1.3,4.1-1c0.2,0.4,0.3,2.9,0.3,5.8s0.2,6.2,0.5,7.3
				c0.9,4.4,1,3.8,2.7,2.2c0,0,1.8-1.5,2.8-3C281.1,88,280.9,86.6,281,85.5z M297.3,51.2c-0.3,2.6-0.9,5.1-1.3,5.6s-3.2,1.7-6.4,2.8
				l-5.6,1.9l0.5-4.3c0.6-5,0.8-5.3,6.7-8.3C297.6,45.5,297.9,45.6,297.3,51.2z"/>
		</g>
		<g>
			<defs>
				<path id="SVGID_2_" d="M281,85.5c0.2-3.6,0.8-9.6,1.4-12.9c0.4-1.7,1.4-2.6,5.6-4.7c2.9-1.4,5.6-2.6,6.2-2.6
					c0.8,0,1.1,1.3,1.4,5.3c0.2,2.9,0.1,4.1-0.1,6.9l-0.2,3v1.4c0,0-0.1,1.4,1.6,1.4c1,0,1.7-0.7,2-2.1c0.2-1.1,0.8-3.2,1.1-4.7
					c0.3-1.5,0.8-4.4,1.1-6.4c0.8-7.5,1.4-8.7,4.5-10.5c1.7-1,2.9-2.3,3-3.1c0.1-1.3-0.3-1.4-2.5-1.2l-2.6,0.3l0.5-3.2
					c1.6-10.3,1.5-10.2,8.4-13.5c3.5-1.7,6.6-3.7,6.6-3.7l1.4-0.9c2.2-1.1,4.9-3.4,4.1-4.1c0,0-0.8-0.7-2-0.6c-1.2,0-5.3,1.4-7.1,2
					c-1.7,0.6-4.4,1.4-5.7,1.7c-2.3,0.5-2.4,0.4-2-1.3c0.2-0.9,1.4-6.8,2.6-13c1.3-6.2,2.4-11.9,2.6-12.6c0.4-1.7-2-4.3-4.1-4.3
					c-0.8-0.1-1.9,0.8-2.5,2c-1.3,2.5-3.5,11.6-5.8,23.7l-1.7,8.9l-4.8,2.2c-7.7,3.5-7.6,3.8-5.5-7.7c1-5.1,1.1-7.5,0.6-8
					c-1-1-5.7-1.1-7.1-0.2c-1,0.6-3.6,12-4.4,19.2c-0.4,3.2-0.9,4.7-2.1,5.5c-0.8,0.7-5.9,4.1-11.4,7.5c-5.3,3.4-10.1,6.6-10.4,6.9
					c-1,1,3.2,4.5,5.3,4.5c2.2,0,5.1-1.4,10.9-5.3c5.4-3.7,6.1-3.7,5.5-0.2c-0.8,4.7-1.1,5.5-2.9,6.3c-0.9,0.5-3.9,2.6-6.7,4.6
					c-5.4,4-5.7,5.1-2,6.6c1.9,0.8,2.8,0.7,5.9-0.6c2-0.8,3.9-1.3,4.1-1c0.2,0.4,0.3,2.9,0.3,5.8s0.2,6.2,0.5,7.3
					c0.9,4.4,1,3.8,2.7,2.2c0,0,1.8-1.5,2.8-3C281.1,88,280.9,86.6,281,85.5z M297.3,51.2c-0.3,2.6-0.9,5.1-1.3,5.6
					s-3.2,1.7-6.4,2.8l-5.6,1.9l0.5-4.3c0.6-5,0.8-5.3,6.7-8.3C297.6,45.5,297.9,45.6,297.3,51.2z"/>
			</defs>
			<clipPath id="SVGID_4_">
				<use xlink:href="#SVGID_2_"  style="overflow:visible;"/>
			</clipPath>
			<path class="st13" d="M482.5,98.5V-27.9c0-26-24.1-47.1-53.9-47.1H283.9C254.2-75,230-53.9,230-27.9V98.5
				c0,26,24.1,47.1,53.9,47.1h144.7C458.3,145.6,482.5,124.5,482.5,98.5z"/>
		</g>
	</g>
	<g>
		<g>
			<path id="SVGID_3_" class="st12" d="M424.3,61.3l-3.1,0.3h-2.5l0.5-11.2c0.5-9.9,0.4-11.5-0.8-13.2c-1.4-2.2-2.8-2.4-6.5-1.1
				c-4.7,1.7-10.8,13.6-13.1,25.9c-1.7,8.4-2.6,18.2-1.8,19.5c1.1,1.9,2.9,0.5,4.8-3.8c1.5-3.4,2.3-4.3,5.6-5.9
				c2.1-1.1,4.1-1.7,4.4-1.6c0.3,0.2,0.8,3,1.1,6.2c0.4,3.2,0.7,6.5,0.8,7.3c0.2,1.8,2.6,2.7,4.8,1.9c1.7-0.6,1.7-1,1.4-4.3
				c-0.2-2-0.6-6-0.9-9c-0.5-5.4-0.5-5.4,2-7.7C421.6,64.1,423.8,61.8,424.3,61.3C424.3,61.4,424.3,61.3,424.3,61.3z M412.5,49.3
				c-0.3,2.9-0.5,7.2-0.5,9.9c0,4.7,0,4.7-2.6,5.9c-3.8,1.5-4.1,1.4-3.7-1.4c1.5-8.7,5.1-19.3,6.5-19.3
				C412.7,44.3,412.8,46.3,412.5,49.3z"/>
		</g>
		<g>
			<defs>
				<path id="SVGID_6_" d="M424.3,61.3l-3.1,0.3h-2.5l0.5-11.2c0.5-9.9,0.4-11.5-0.8-13.2c-1.4-2.2-2.8-2.4-6.5-1.1
					c-4.7,1.7-10.8,13.6-13.1,25.9c-1.7,8.4-2.6,18.2-1.8,19.5c1.1,1.9,2.9,0.5,4.8-3.8c1.5-3.4,2.3-4.3,5.6-5.9
					c2.1-1.1,4.1-1.7,4.4-1.6c0.3,0.2,0.8,3,1.1,6.2c0.4,3.2,0.7,6.5,0.8,7.3c0.2,1.8,2.6,2.7,4.8,1.9c1.7-0.6,1.7-1,1.4-4.3
					c-0.2-2-0.6-6-0.9-9c-0.5-5.4-0.5-5.4,2-7.7C421.6,64.1,423.8,61.8,424.3,61.3C424.3,61.4,424.3,61.3,424.3,61.3z M412.5,49.3
					c-0.3,2.9-0.5,7.2-0.5,9.9c0,4.7,0,4.7-2.6,5.9c-3.8,1.5-4.1,1.4-3.7-1.4c1.5-8.7,5.1-19.3,6.5-19.3
					C412.7,44.3,412.8,46.3,412.5,49.3z"/>
			</defs>
			<clipPath id="SVGID_8_">
				<use xlink:href="#SVGID_6_"  style="overflow:visible;"/>
			</clipPath>
			<path class="st14" d="M482.5,98.5V-27.9c0-26-24.1-47.1-53.9-47.1H283.9C254.2-75,230-53.9,230-27.9V98.5
				c0,26,24.1,47.1,53.9,47.1h144.7C458.3,145.6,482.5,124.5,482.5,98.5z"/>
		</g>
	</g>
	<g>
		<g>
			<path id="SVGID_5_" class="st12" d="M432.7,39.8c-2.3,1-4.1,2.9-5,5.2c-0.5,1.1-0.7,2.4-0.9,3.6c-1.8,10.4-2.6,21-2.5,31.6
				c0,0.4,0,0.9,0.3,1.2c0.2,0.2,0.6,0.3,0.9,0.4c1.6,0,2.6-1.6,3.3-3.1c0.4-0.8,0.7-1.6,1.1-2.4c0.6-1.2,1.1-2.4,1.4-3.7
				c0.4-1.7,0.2-3.4,0.4-5.1c0.7-7.3,0.1-8.8,1.9-20C434,45.4,436.3,38.2,432.7,39.8z"/>
		</g>
		<g>
			<defs>
				<path id="SVGID_9_" d="M432.7,39.8c-2.3,1-4.1,2.9-5,5.2c-0.5,1.1-0.7,2.4-0.9,3.6c-1.8,10.4-2.6,21-2.5,31.6
					c0,0.4,0,0.9,0.3,1.2c0.2,0.2,0.6,0.3,0.9,0.4c1.6,0,2.6-1.6,3.3-3.1c0.4-0.8,0.7-1.6,1.1-2.4c0.6-1.2,1.1-2.4,1.4-3.7
					c0.4-1.7,0.2-3.4,0.4-5.1c0.7-7.3,0.1-8.8,1.9-20C434,45.4,436.3,38.2,432.7,39.8z"/>
			</defs>
			<clipPath id="SVGID_10_">
				<use xlink:href="#SVGID_9_"  style="overflow:visible;"/>
			</clipPath>
			<path class="st15" d="M482.5,98.5V-27.9c0-26-24.1-47.1-53.9-47.1H283.9C254.2-75,230-53.9,230-27.9V98.5
				c0,26,24.1,47.1,53.9,47.1h144.7C458.3,145.6,482.5,124.5,482.5,98.5z"/>
		</g>
	</g>
	<g>
		<g>
			<path id="SVGID_7_" class="st12" d="M427.4,33.7c-0.3,0.6-0.4,1.2-0.6,1.8c-0.1,0.4-0.2,0.7-0.1,1.1c0,0.3,0.2,0.5,0.3,0.7
				c1.1,1.5,6.1,0.8,7.7-1.9C438.1,29.7,430.5,27.8,427.4,33.7z"/>
		</g>
		<g>
			<defs>
				<path id="SVGID_11_" d="M427.4,33.7c-0.3,0.6-0.4,1.2-0.6,1.8c-0.1,0.4-0.2,0.7-0.1,1.1c0,0.3,0.2,0.5,0.3,0.7
					c1.1,1.5,6.1,0.8,7.7-1.9C438.1,29.7,430.5,27.8,427.4,33.7z"/>
			</defs>
			<clipPath id="SVGID_12_">
				<use xlink:href="#SVGID_11_"  style="overflow:visible;"/>
			</clipPath>
			<path class="st16" d="M482.5,98.5V-27.9c0-26-24.1-47.1-53.9-47.1H283.9C254.2-75,230-53.9,230-27.9V98.5
				c0,26,24.1,47.1,53.9,47.1h144.7C458.3,145.6,482.5,124.5,482.5,98.5z"/>
		</g>
	</g>
</g>
<rect x="496.4" y="0" class="st0" width="221.3" height="112.3"/>
<g>
	<path class="st3" d="M646,9.8c-1.3,2.9-2.6,7.3-5.3,17.8c-0.8,2.9-1.2,3.4-6.2,5.9c-3,1.5-5.6,2.9-5.8,3.1
		c-0.2,0.2,0.6,1.2,1.8,2.3c1.7,1.5,2.8,1.8,4.7,1.5c2.9-0.5,2.9-0.5,1.4,6.8c-3.5,16.2-4.4,29.1-2.7,33.4c0.9,2,1.1,2.2,1.7,1
		c0.5-1,1-1.8,1-1.8l0.8-2.1c0,0,1.1-2.4,1.7-6.1c1.4-9.4,5.3-30.4,6.1-33.3c0.6-2.5,1.1-2.9,5-4.4c2.3-0.8,6.7-2.1,9.6-2.8
		c2.9-0.7,5.6-1.7,6.1-2.3c0.5-0.6,1.3-1.1,1.7-1.1c0.5,0,0.7-0.4,0.5-0.8c-0.6-1-7.1-1-14.3,0.1c-3.2,0.5-5.9,0.7-6.1,0.5
		s0.6-3.5,1.6-7.3c2.1-7.7,2.3-11.4,1-12.7C648.7,5.9,647.4,6.6,646,9.8z"/>
	<path class="st3" d="M617.5,18.9c-5.1,17.7-12.2,60.3-10.9,65.2c0.4,1.4,3.2,3.1,5.1,3.1c1.1,0,1.4-0.8,3-11.7
		c0.7-4.1,1.5-8.9,2-10.5c1-3.6,4.5-10.9,5.3-10.9c0.7,0,0.5,0.8-2.5,16c-3.2,15.9-2.6,20.9,2.3,17.2c1.4-1.2,2.2-3.5,4.7-14.9
		c3.2-14.3,3.9-22.7,2.3-24.7c-1.1-1.4-5.5-1.6-7.7-0.4c-0.8,0.5-1.7,0.6-1.9,0.4c-0.2-0.2,1-7.2,2.6-15.6c2.8-13.8,2.9-15.4,2-17
		c-0.6-0.9-1.9-1.7-2.9-1.7C619.4,13.4,618.9,14.1,617.5,18.9z"/>
	<path class="st3" d="M682.2,65.3L682.2,65.3c0.1,0.2,0.2,2.9,0.2,5.5c0.2,4.4,0.6,5.2,2.9,7.5c4.5,4.7,10.3,3,17.7-5
		c4.6-5,5.8-8,4.1-10.1c-0.6-0.8,0.2-1.5,3.8-3.2c3.1-1.6,4.4-2.6,4.1-3.4c-0.2-0.6,0.2-1.2,1-1.4s0.4-0.4-1-0.5
		c-3.4-0.1-19.3,5.1-21.1,7c-0.3,0.2,1.3,1.2,3.4,2.1c2.2,0.9,3.9,1.9,3.9,2.1c0,1-9.2,9.8-10.1,9.8c-1.6,0-2-4.3-1.2-10.7
		c1-7.9,1.3-9.3,3.5-14.7c1.4-3.4,2.2-4.5,2.7-4c0.6,0.6,0.6,1.7,0,3.8c-0.4,1.7-0.6,3.2-0.4,3.4c0.5,0.5,5,0.5,6.5-0.1
		c1.4-0.6,3.4-5,3.4-7.7c0-1.4-0.9-2.9-2.8-4.7c-3.1-3-4.7-3.6-8.3-2.8c-3.2,0.7-4.7,2.1-7.2,6.7c-2.6,4.7-4.1,9.7-4.7,15.6
		L682.2,65.3z"/>
	<path class="st3" d="M559.8,93.1c0.7-2,1.4-4.1,1.4-4.7c0.1-0.5,0.8-2.8,1.4-5.1c1.1-3.5,1.7-4.4,4-5.5c2-0.9,2.9-1.1,3.3-0.5
		c0.3,0.5,0.8,4.7,1.1,9.3c0.3,4.7,0.7,8.5,0.8,8.7c0.5,0.5,3.2-1.4,3.8-2.6c0.3-0.8,0.8-5.5,1-10.5l0.3-9.3l3.2-1.9
		c3.8-2.3,8.6-6.4,7.4-6.4c-0.5,0-2.9,0.6-5.4,1.4s-4.6,1.3-4.7,1.2c-0.2-0.2,0-5,0.4-10.7c0.3-5.7,0.4-11.1,0.2-12
		c-0.2-1-1.4-2.2-2.6-2.9c-2.8-1.3-2.8-1.3-3.7-0.2c-2.6,3.2-8.9,18.4-11.9,28.8c-1.6,5.4-2.5,6.5-6.4,8.3c-3.5,1.6-3.5,2.7-0.1,3.8
		c2.7,0.8,2.8,1,1.6,9c-1,6.5-0.7,8,1.5,7.4C557.3,98.5,559.8,93.1,559.8,93.1z M570.8,66.1c0,3-0.3,3.8-1.6,4.5
		c-0.8,0.5-1.7,0.7-2,0.5c-0.5-0.6,2.2-8.8,2.9-8.8C570.5,62.3,570.8,64,570.8,66.1z"/>
	<path class="st3" d="M596.7,42.6c-2.4,0.6-5,3.3-6.8,7.4c-3.2,6.7-2.2,10.2,4.9,17.5c2.6,2.6,4.6,5.1,4.6,5.6s-1.8,2.6-4,4.7
		c-20.1,19.2-24,23.6-25.8,29.4c-0.6,2.2,1.1,2.3,3,0.2c0.8-0.8,1.7-1.3,2-1.1c0.4,0.2,3.2-2.3,6.3-5.6c3.1-3.4,9.3-9.3,13.9-13.4
		c7.8-6.9,10.5-10.1,10.5-12.7c0-0.6-2.3-3.7-5.3-6.8c-2.9-3.1-5.3-6.4-5.4-7.3c-0.3-4.9,1-8,5.6-13.5c1.6-2,2.7-3.9,2.5-4.4
		C602.3,42,599.4,41.9,596.7,42.6z"/>
</g>
<rect x="-236.5" y="-0.9" class="st0" width="221.3" height="112.3"/>
<linearGradient id="SVGID_13_" gradientUnits="userSpaceOnUse" x1="-222.806" y1="32.3214" x2="-159.8069" y2="95.3205" gradientTransform="matrix(1 0 0 -1 0 111.8898)">
	<stop  offset="0" style="stop-color:#F5FF77"/>
	<stop  offset="0" style="stop-color:#FFC66C"/>
	<stop  offset="4.238903e-02" style="stop-color:#FFC169"/>
	<stop  offset="9.573603e-02" style="stop-color:#FFB161"/>
	<stop  offset="0.1547" style="stop-color:#FF9754"/>
	<stop  offset="0.2096" style="stop-color:#FF7945"/>
	<stop  offset="0.2421" style="stop-color:#F76C49"/>
	<stop  offset="0.3184" style="stop-color:#E75451"/>
	<stop  offset="0.3652" style="stop-color:#E14B54"/>
	<stop  offset="0.4123" style="stop-color:#DB495B"/>
	<stop  offset="0.4803" style="stop-color:#CB426E"/>
	<stop  offset="0.5607" style="stop-color:#B0378D"/>
	<stop  offset="0.6239" style="stop-color:#972DAB"/>
	<stop  offset="0.6893" style="stop-color:#8729B4"/>
	<stop  offset="0.8174" style="stop-color:#5D20CB"/>
	<stop  offset="0.9943" style="stop-color:#1911F1"/>
	<stop  offset="1" style="stop-color:#1710F2"/>
</linearGradient>
<path class="st17" d="M-204.3,84.6c0.2-3.6,0.8-9.6,1.4-12.9c0.4-1.7,1.4-2.6,5.6-4.7c2.9-1.4,5.6-2.6,6.2-2.6
	c0.8,0,1.1,1.3,1.4,5.3c0.2,2.9,0.1,4.1-0.1,6.9l-0.2,3V81c0,0-0.1,1.4,1.6,1.4c1,0,1.7-0.7,2-2.1c0.2-1.1,0.8-3.2,1.1-4.7
	s0.8-4.4,1.1-6.4c0.8-7.5,1.4-8.7,4.5-10.5c1.7-1,2.9-2.3,3-3.1c0.1-1.3-0.3-1.4-2.5-1.2l-2.6,0.3l0.5-3.2
	c1.6-10.3,1.5-10.2,8.4-13.5c3.5-1.7,6.6-3.7,6.6-3.7l1.4-0.9c2.2-1.1,4.9-3.4,4.1-4.1c0,0-0.8-0.7-2-0.6c-1.2,0-5.3,1.4-7.1,2
	c-1.7,0.6-4.4,1.4-5.7,1.7c-2.3,0.5-2.4,0.4-2-1.3c0.2-0.9,1.4-6.8,2.6-13c1.3-6.2,2.4-11.9,2.6-12.6c0.4-1.7-2-4.3-4.1-4.3
	c-0.8-0.1-1.9,0.8-2.5,2c-1.3,2.5-3.5,11.6-5.8,23.7l-1.7,8.9l-4.8,2.2c-7.7,3.5-7.6,3.8-5.5-7.7c1-5.1,1.1-7.5,0.6-8
	c-1-1-5.7-1.1-7.1-0.2c-1,0.6-3.6,12-4.4,19.2c-0.4,3.2-0.9,4.7-2.1,5.5c-0.8,0.7-5.9,4.1-11.4,7.5c-5.3,3.4-10.1,6.6-10.4,6.9
	c-1,1,3.2,4.5,5.3,4.5c2.2,0,5.1-1.4,10.9-5.3c5.4-3.7,6.1-3.7,5.5-0.2c-0.8,4.7-1.1,5.5-2.9,6.3c-0.9,0.5-3.9,2.6-6.7,4.6
	c-5.4,4-5.7,5.1-2,6.6c1.9,0.8,2.8,0.7,5.9-0.6c2-0.8,3.9-1.3,4.1-1c0.2,0.4,0.3,2.9,0.3,5.8s0.2,6.2,0.5,7.3c0.9,4.4,1,3.8,2.7,2.2
	c0,0,1.8-1.5,2.8-3C-204.2,87-204.4,85.7-204.3,84.6z M-188,50.3c-0.3,2.6-0.9,5.1-1.3,5.6c-0.4,0.5-3.2,1.7-6.4,2.8l-5.6,1.9
	l0.5-4.3c0.6-5,0.8-5.3,6.7-8.3C-187.7,44.6-187.4,44.7-188,50.3z"/>
<linearGradient id="SVGID_14_" gradientUnits="userSpaceOnUse" x1="-89.7117" y1="32.5538" x2="-56.6876" y2="65.5779" gradientTransform="matrix(1 0 0 -1 0 111.8898)">
	<stop  offset="0" style="stop-color:#F5FF77"/>
	<stop  offset="0" style="stop-color:#FFC66C"/>
	<stop  offset="4.238903e-02" style="stop-color:#FFC169"/>
	<stop  offset="9.573603e-02" style="stop-color:#FFB161"/>
	<stop  offset="0.1547" style="stop-color:#FF9754"/>
	<stop  offset="0.2096" style="stop-color:#FF7945"/>
	<stop  offset="0.2421" style="stop-color:#F76C49"/>
	<stop  offset="0.3184" style="stop-color:#E75451"/>
	<stop  offset="0.3652" style="stop-color:#E14B54"/>
	<stop  offset="0.4123" style="stop-color:#DB495B"/>
	<stop  offset="0.4803" style="stop-color:#CB426E"/>
	<stop  offset="0.5607" style="stop-color:#B0378D"/>
	<stop  offset="0.6239" style="stop-color:#972DAB"/>
	<stop  offset="0.6893" style="stop-color:#8729B4"/>
	<stop  offset="0.8174" style="stop-color:#5D20CB"/>
	<stop  offset="0.9943" style="stop-color:#1911F1"/>
	<stop  offset="1" style="stop-color:#1710F2"/>
</linearGradient>
<path class="st18" d="M-61.1,60.4l-3.1,0.3h-2.5l0.5-11.2c0.5-9.9,0.4-11.5-0.8-13.2c-1.4-2.2-2.8-2.4-6.5-1.1
	c-4.7,1.7-10.8,13.6-13.1,25.9c-1.7,8.4-2.6,18.2-1.8,19.5c1.1,1.9,2.9,0.5,4.8-3.8c1.5-3.4,2.3-4.3,5.6-5.9
	c2.1-1.1,4.1-1.7,4.4-1.6c0.3,0.2,0.8,3,1.1,6.2c0.4,3.2,0.7,6.5,0.8,7.3c0.2,1.8,2.6,2.7,4.8,1.9c1.7-0.6,1.7-1,1.4-4.3
	c-0.2-2-0.6-6-0.9-9c-0.5-5.4-0.5-5.4,2-7.7C-63.8,63.1-61.6,60.9-61.1,60.4C-61,60.4-61.1,60.4-61.1,60.4z M-72.8,48.4
	c-0.3,2.9-0.5,7.2-0.5,9.9c0,4.7,0,4.7-2.6,5.9c-3.8,1.5-4.1,1.4-3.7-1.4c1.5-8.7,5.1-19.3,6.5-19.3C-72.6,43.4-72.5,45.4-72.8,48.4
	z"/>
<linearGradient id="SVGID_15_" gradientUnits="userSpaceOnUse" x1="-68.6975" y1="39.447" x2="-43.1026" y2="65.0419" gradientTransform="matrix(1 0 0 -1 0 111.8898)">
	<stop  offset="0" style="stop-color:#F5FF77"/>
	<stop  offset="0" style="stop-color:#FFC66C"/>
	<stop  offset="4.238903e-02" style="stop-color:#FFC169"/>
	<stop  offset="9.573603e-02" style="stop-color:#FFB161"/>
	<stop  offset="0.1547" style="stop-color:#FF9754"/>
	<stop  offset="0.2096" style="stop-color:#FF7945"/>
	<stop  offset="0.2421" style="stop-color:#F76C49"/>
	<stop  offset="0.3184" style="stop-color:#E75451"/>
	<stop  offset="0.3652" style="stop-color:#E14B54"/>
	<stop  offset="0.4123" style="stop-color:#DB495B"/>
	<stop  offset="0.4803" style="stop-color:#CB426E"/>
	<stop  offset="0.5607" style="stop-color:#B0378D"/>
	<stop  offset="0.6239" style="stop-color:#972DAB"/>
	<stop  offset="0.6893" style="stop-color:#8729B4"/>
	<stop  offset="0.8174" style="stop-color:#5D20CB"/>
	<stop  offset="0.9943" style="stop-color:#1911F1"/>
	<stop  offset="1" style="stop-color:#1710F2"/>
</linearGradient>
<path class="st19" d="M-52.6,38.9c-2.3,1-4.1,2.9-5,5.2c-0.5,1.1-0.7,2.4-0.9,3.6c-1.8,10.4-2.6,21-2.5,31.6c0,0.4,0,0.9,0.3,1.2
	c0.2,0.2,0.6,0.3,0.9,0.4c1.6,0,2.6-1.6,3.3-3.1c0.4-0.8,0.7-1.6,1.1-2.4c0.6-1.2,1.1-2.4,1.4-3.7c0.4-1.7,0.2-3.4,0.4-5.1
	c0.7-7.3,0.1-8.8,1.9-20C-51.4,44.5-49,37.2-52.6,38.9z"/>
<linearGradient id="SVGID_16_" gradientUnits="userSpaceOnUse" x1="-57.7696" y1="74.9878" x2="-50.6656" y2="82.0918" gradientTransform="matrix(1 0 0 -1 0 111.8898)">
	<stop  offset="0" style="stop-color:#F5FF77"/>
	<stop  offset="0" style="stop-color:#FFC66C"/>
	<stop  offset="4.238903e-02" style="stop-color:#FFC169"/>
	<stop  offset="9.573603e-02" style="stop-color:#FFB161"/>
	<stop  offset="0.1547" style="stop-color:#FF9754"/>
	<stop  offset="0.2096" style="stop-color:#FF7945"/>
	<stop  offset="0.2421" style="stop-color:#F76C49"/>
	<stop  offset="0.3184" style="stop-color:#E75451"/>
	<stop  offset="0.3652" style="stop-color:#E14B54"/>
	<stop  offset="0.4123" style="stop-color:#DB495B"/>
	<stop  offset="0.4803" style="stop-color:#CB426E"/>
	<stop  offset="0.5607" style="stop-color:#B0378D"/>
	<stop  offset="0.6239" style="stop-color:#972DAB"/>
	<stop  offset="0.6893" style="stop-color:#8729B4"/>
	<stop  offset="0.8174" style="stop-color:#5D20CB"/>
	<stop  offset="0.9943" style="stop-color:#1911F1"/>
	<stop  offset="1" style="stop-color:#1710F2"/>
</linearGradient>
<path class="st20" d="M-57.9,32.7c-0.3,0.6-0.4,1.2-0.6,1.8c-0.1,0.4-0.2,0.7-0.1,1.1c0,0.3,0.2,0.5,0.3,0.7
	c1.1,1.5,6.1,0.8,7.7-1.9C-47.3,28.8-54.8,26.8-57.9,32.7z"/>
<g>
	<path class="st3" d="M-86.8,8.9c-1.3,2.9-2.6,7.3-5.3,17.8c-0.8,2.9-1.2,3.4-6.2,5.9c-3,1.5-5.6,2.9-5.8,3.1
		c-0.2,0.2,0.6,1.2,1.8,2.3c1.7,1.5,2.8,1.8,4.7,1.5c2.9-0.5,2.9-0.5,1.4,6.8c-3.5,16.2-4.4,29.1-2.7,33.4c0.9,2,1.1,2.2,1.7,1
		c0.5-1,1-1.8,1-1.8l0.8-2.1c0,0,1.1-2.4,1.7-6.1c1.4-9.4,5.3-30.4,6.1-33.3c0.6-2.5,1.1-2.9,5-4.4c2.3-0.8,6.7-2.1,9.6-2.8
		c2.9-0.7,5.6-1.7,6.1-2.3c0.5-0.6,1.3-1.1,1.7-1.1c0.5,0,0.7-0.4,0.5-0.8c-0.6-1-7.1-1-14.3,0.1c-3.2,0.5-5.9,0.7-6.1,0.5
		s0.6-3.5,1.6-7.3c2.1-7.7,2.3-11.4,1-12.7C-84.1,5-85.4,5.7-86.8,8.9z"/>
	<path class="st3" d="M-115.3,18c-5.1,17.7-12.2,60.3-10.9,65.2c0.4,1.4,3.2,3.1,5.1,3.1c1.1,0,1.4-0.8,3-11.7
		c0.7-4.1,1.5-8.9,2-10.5c1-3.6,4.5-10.9,5.3-10.9c0.7,0,0.5,0.8-2.5,16c-3.2,15.9-2.6,20.9,2.3,17.2c1.4-1.2,2.2-3.5,4.7-14.9
		c3.2-14.3,3.9-22.7,2.3-24.7c-1.1-1.4-5.5-1.6-7.7-0.4c-0.8,0.5-1.7,0.6-1.9,0.4c-0.2-0.2,1-7.2,2.6-15.6c2.8-13.8,2.9-15.4,2-17
		c-0.6-0.9-1.9-1.7-2.9-1.7C-113.4,12.5-113.9,13.2-115.3,18z"/>
	<path class="st3" d="M-50.6,64.3C-50.6,64.4-50.6,64.4-50.6,64.3c0.1,0.2,0.2,2.9,0.2,5.5c0.2,4.4,0.6,5.2,2.9,7.5
		c4.5,4.7,10.3,3,17.7-5c4.6-5,5.8-8,4.1-10.1c-0.6-0.8,0.2-1.5,3.8-3.2c3.1-1.6,4.4-2.6,4.1-3.4c-0.2-0.6,0.2-1.2,1-1.4
		c0.8-0.2,0.4-0.4-1-0.5c-3.4-0.1-19.3,5.1-21.1,7c-0.3,0.2,1.3,1.2,3.4,2.1c2.2,0.9,3.9,1.9,3.9,2.1c0,1-9.2,9.8-10.1,9.8
		c-1.6,0-2-4.3-1.2-10.7c1-7.9,1.3-9.3,3.5-14.7c1.4-3.4,2.2-4.5,2.7-4c0.6,0.6,0.6,1.7,0,3.8c-0.4,1.7-0.6,3.2-0.4,3.4
		c0.5,0.5,5,0.5,6.5-0.1c1.4-0.6,3.4-5,3.4-7.7c0-1.4-0.9-2.9-2.8-4.7c-3.1-3-4.7-3.6-8.3-2.8c-3.2,0.7-4.7,2.1-7.2,6.7
		c-2.6,4.7-4.1,9.7-4.7,15.6L-50.6,64.3z"/>
	<path class="st3" d="M-173,92.2c0.7-2,1.4-4.1,1.4-4.7c0.1-0.5,0.8-2.8,1.4-5.1c1.1-3.5,1.7-4.4,4-5.5c2-0.9,2.9-1.1,3.3-0.5
		c0.3,0.5,0.8,4.7,1.1,9.3c0.3,4.7,0.7,8.5,0.8,8.7c0.5,0.5,3.2-1.4,3.8-2.6c0.3-0.8,0.8-5.5,1-10.5l0.3-9.3l3.2-1.9
		c3.8-2.3,8.6-6.4,7.4-6.4c-0.5,0-2.9,0.6-5.4,1.4s-4.6,1.3-4.7,1.2c-0.2-0.2,0-5,0.4-10.7c0.3-5.7,0.4-11.1,0.2-12
		c-0.2-1-1.4-2.2-2.6-2.9c-2.8-1.3-2.8-1.3-3.7-0.2c-2.6,3.2-8.9,18.4-11.9,28.8c-1.6,5.4-2.5,6.5-6.4,8.3c-3.5,1.6-3.5,2.7-0.1,3.8
		c2.7,0.8,2.8,1,1.6,9c-1,6.5-0.7,8,1.5,7.4C-175.5,97.6-173,92.2-173,92.2z M-162,65.2c0,3-0.3,3.8-1.6,4.5c-0.8,0.5-1.7,0.7-2,0.5
		c-0.5-0.6,2.2-8.8,2.9-8.8C-162.3,61.4-162,63.1-162,65.2z"/>
	<path class="st3" d="M-136.1,41.7c-2.4,0.6-5,3.3-6.8,7.4c-3.2,6.7-2.2,10.2,4.9,17.5c2.6,2.6,4.6,5.1,4.6,5.6s-1.8,2.6-4,4.7
		c-20.1,19.2-24,23.6-25.8,29.4c-0.6,2.2,1.1,2.3,3,0.2c0.8-0.8,1.7-1.3,2-1.1c0.4,0.2,3.2-2.3,6.3-5.6c3.1-3.4,9.3-9.3,13.9-13.4
		c7.8-6.9,10.5-10.1,10.5-12.7c0-0.6-2.3-3.7-5.3-6.8c-2.9-3.1-5.3-6.4-5.4-7.3c-0.3-4.9,1-8,5.6-13.5c1.6-2,2.7-3.9,2.5-4.4
		C-130.5,41.1-133.4,41-136.1,41.7z"/>
</g>
<path class="st21" d="M175.5,61.4l-3.1,0.3h-2.5l0.5-11.2c0.5-9.9,0.4-11.5-0.8-13.2c-1.4-2.2-2.8-2.4-6.5-1.1
	c-4.7,1.7-10.8,13.6-13.1,25.9c-1.7,8.4-2.6,18.2-1.8,19.5c1.1,1.9,2.9,0.5,4.8-3.8c1.5-3.4,2.3-4.3,5.6-5.9
	c2.1-1.1,4.1-1.7,4.4-1.6c0.3,0.2,0.8,3,1.1,6.2c0.4,3.2,0.7,6.5,0.8,7.3c0.2,1.8,2.6,2.7,4.8,1.9c1.7-0.6,1.7-1,1.4-4.3
	c-0.2-2-0.6-6-0.9-9c-0.5-5.4-0.5-5.4,2-7.7C172.8,64.1,175,61.8,175.5,61.4L175.5,61.4z M163.7,49.3c-0.3,2.9-0.5,7.2-0.5,9.9
	c0,4.7,0,4.7-2.6,5.9c-3.8,1.5-4.1,1.4-3.7-1.4c1.5-8.7,5.1-19.3,6.5-19.3C163.9,44.3,164,46.3,163.7,49.3z"/>
<path class="st21" d="M183.9,39.8c-2.3,1-4.1,2.9-5,5.2c-0.5,1.1-0.7,2.4-0.9,3.6c-1.8,10.4-2.6,21-2.5,31.6c0,0.4,0,0.9,0.3,1.2
	c0.2,0.2,0.6,0.3,0.9,0.4c1.6,0,2.6-1.6,3.3-3.1c0.4-0.8,0.7-1.6,1.1-2.4c0.6-1.2,1.1-2.4,1.4-3.7c0.4-1.7,0.2-3.4,0.4-5.1
	c0.7-7.3,0.1-8.8,1.9-20C185.2,45.5,187.5,38.2,183.9,39.8z"/>
<path class="st21" d="M178.6,33.7c-0.3,0.6-0.4,1.2-0.6,1.8c-0.1,0.4-0.2,0.7-0.1,1.1c0,0.3,0.2,0.5,0.3,0.7
	c1.1,1.5,6.1,0.8,7.7-1.9C189.3,29.7,181.7,27.8,178.6,33.7z"/>
<g>
	<path class="st22" d="M149.7,9.8c-1.3,2.9-2.6,7.3-5.3,17.8c-0.8,2.9-1.2,3.4-6.2,5.9c-3,1.5-5.6,2.9-5.8,3.1
		c-0.2,0.2,0.6,1.2,1.8,2.3c1.7,1.5,2.8,1.8,4.7,1.5c2.9-0.5,2.9-0.5,1.4,6.8c-3.5,16.2-4.4,29.1-2.7,33.4c0.9,2,1.1,2.2,1.7,1
		c0.5-1,1-1.8,1-1.8l0.8-2.1c0,0,1.1-2.4,1.7-6.1c1.4-9.4,5.3-30.4,6.1-33.3c0.6-2.5,1.1-2.9,5-4.4c2.3-0.8,6.7-2.1,9.6-2.8
		c2.9-0.7,5.6-1.7,6.1-2.3c0.5-0.6,1.3-1.1,1.7-1.1c0.5,0,0.7-0.4,0.5-0.8c-0.6-1-7.1-1-14.3,0.1c-3.2,0.5-5.9,0.7-6.1,0.5
		c-0.2-0.2,0.6-3.5,1.6-7.3c2.1-7.7,2.3-11.4,1-12.7C152.4,5.9,151.1,6.6,149.7,9.8z"/>
	<path class="st22" d="M121.2,18.9c-5.1,17.7-12.2,60.3-10.9,65.2c0.4,1.4,3.2,3.1,5.1,3.1c1.1,0,1.4-0.8,3-11.7
		c0.7-4.1,1.5-8.9,2-10.5c1-3.6,4.5-10.9,5.3-10.9c0.7,0,0.5,0.8-2.5,16C120,86,120.6,91,125.5,87.3c1.4-1.2,2.2-3.5,4.7-14.9
		c3.2-14.3,3.9-22.7,2.3-24.7c-1.1-1.4-5.5-1.6-7.7-0.4c-0.8,0.5-1.7,0.6-1.9,0.4c-0.2-0.2,1-7.2,2.6-15.6c2.8-13.8,2.9-15.4,2-17
		c-0.6-0.9-1.9-1.7-2.9-1.7C123.1,13.4,122.6,14.1,121.2,18.9z"/>
	<path class="st22" d="M185.9,65.3L185.9,65.3c0.1,0.2,0.2,2.9,0.2,5.5c0.2,4.4,0.6,5.2,2.9,7.5c4.5,4.7,10.3,3,17.7-5
		c4.6-5,5.8-8,4.1-10.1c-0.6-0.8,0.2-1.5,3.8-3.2c3.1-1.6,4.4-2.6,4.1-3.4c-0.2-0.6,0.2-1.2,1-1.4s0.4-0.4-1-0.5
		c-3.4-0.1-19.3,5.1-21.1,7c-0.3,0.2,1.3,1.2,3.4,2.1c2.2,0.9,3.9,1.9,3.9,2.1c0,1-9.2,9.8-10.1,9.8c-1.6,0-2-4.3-1.2-10.7
		c1-7.9,1.3-9.3,3.5-14.7c1.4-3.4,2.2-4.5,2.7-4c0.6,0.6,0.6,1.7,0,3.8c-0.4,1.7-0.6,3.2-0.4,3.4c0.5,0.5,5,0.5,6.5-0.1
		c1.4-0.6,3.4-5,3.4-7.7c0-1.4-0.9-2.9-2.8-4.7c-3.1-3-4.7-3.6-8.3-2.8c-3.2,0.7-4.7,2.1-7.2,6.7c-2.6,4.7-4.1,9.7-4.7,15.6
		L185.9,65.3z"/>
	<path class="st22" d="M63.5,93.1c0.7-2,1.4-4.1,1.4-4.7c0.1-0.5,0.8-2.8,1.4-5.1c1.1-3.5,1.7-4.4,4-5.5c2-0.9,2.9-1.1,3.3-0.5
		c0.3,0.5,0.8,4.7,1.1,9.3c0.3,4.7,0.7,8.5,0.8,8.7c0.5,0.5,3.2-1.4,3.8-2.6c0.3-0.8,0.8-5.5,1-10.5l0.3-9.3l3.2-1.9
		c3.8-2.3,8.6-6.4,7.4-6.4c-0.5,0-2.9,0.6-5.4,1.4s-4.6,1.3-4.7,1.2c-0.2-0.2,0-5,0.4-10.7c0.3-5.7,0.4-11.1,0.2-12
		c-0.2-1-1.4-2.2-2.6-2.9c-2.8-1.3-2.8-1.3-3.7-0.2c-2.6,3.2-8.9,18.4-11.9,28.8c-1.6,5.4-2.5,6.5-6.4,8.3c-3.5,1.6-3.5,2.7-0.1,3.8
		c2.7,0.8,2.8,1,1.6,9c-1,6.5-0.7,8,1.5,7.4C61,98.5,63.5,93.1,63.5,93.1z M74.5,66.1c0,3-0.3,3.8-1.6,4.5c-0.8,0.5-1.7,0.7-2,0.5
		c-0.5-0.6,2.2-8.8,2.9-8.8C74.2,62.3,74.5,64,74.5,66.1z"/>
	<path class="st22" d="M100.4,42.6c-2.4,0.6-5,3.3-6.8,7.4c-3.2,6.7-2.2,10.2,4.9,17.5c2.6,2.6,4.6,5.1,4.6,5.6s-1.8,2.6-4,4.7
		C79,97,75.1,101.4,73.3,107.2c-0.6,2.2,1.1,2.3,3,0.2c0.8-0.8,1.7-1.3,2-1.1c0.4,0.2,3.2-2.3,6.3-5.6c3.1-3.4,9.3-9.3,13.9-13.4
		c7.8-6.9,10.5-10.1,10.5-12.7c0-0.6-2.3-3.7-5.3-6.8c-2.9-3.1-5.3-6.4-5.4-7.3c-0.3-4.9,1-8,5.6-13.5c1.6-2,2.7-3.9,2.5-4.4
		C106,42,103.1,41.9,100.4,42.6z"/>
</g>
<g>
	<g>
		<g>
			<defs>
				<path id="SVGID_17_" d="M528.5,85.5c0.2-3.6,0.8-9.6,1.4-12.9c0.4-1.7,1.4-2.6,5.6-4.7c2.9-1.4,5.6-2.6,6.2-2.6
					c0.8,0,1.1,1.3,1.4,5.3c0.2,2.9,0.1,4.1-0.1,6.9l-0.2,3v1.4c0,0-0.1,1.4,1.6,1.4c1,0,1.7-0.7,2-2.1c0.2-1.1,0.8-3.2,1.1-4.7
					s0.8-4.4,1.1-6.4c0.8-7.5,1.4-8.7,4.5-10.5c1.7-1,2.9-2.3,3-3.1c0.1-1.3-0.3-1.4-2.5-1.2l-2.6,0.3l0.5-3.2
					c1.6-10.3,1.5-10.2,8.4-13.5c3.5-1.7,6.6-3.7,6.6-3.7l1.4-0.9c2.2-1.1,4.9-3.4,4.1-4.1c0,0-0.8-0.7-2-0.6c-1.2,0-5.3,1.4-7.1,2
					c-1.7,0.6-4.4,1.4-5.7,1.7c-2.3,0.5-2.4,0.4-2-1.3c0.2-0.9,1.4-6.8,2.6-13c1.3-6.2,2.4-11.9,2.6-12.6c0.4-1.7-2-4.3-4.1-4.3
					c-0.8-0.1-1.9,0.8-2.5,2c-1.3,2.5-3.5,11.6-5.8,23.7l-1.7,8.9l-4.8,2.2c-7.7,3.5-7.6,3.8-5.5-7.7c1-5.1,1.1-7.5,0.6-8
					c-1-1-5.7-1.1-7.1-0.2c-1,0.6-3.6,12-4.4,19.2c-0.4,3.2-0.9,4.7-2.1,5.5c-0.8,0.7-5.9,4.1-11.4,7.5c-5.3,3.4-10.1,6.6-10.4,6.9
					c-1,1,3.2,4.5,5.3,4.5c2.2,0,5.1-1.4,10.9-5.3c5.4-3.7,6.1-3.7,5.5-0.2c-0.8,4.7-1.1,5.5-2.9,6.3c-0.9,0.5-3.9,2.6-6.7,4.6
					c-5.4,4-5.7,5.1-2,6.6c1.9,0.8,2.8,0.7,5.9-0.6c2-0.8,3.9-1.3,4.1-1c0.2,0.4,0.3,2.9,0.3,5.8s0.2,6.2,0.5,7.3
					c0.9,4.4,1,3.8,2.7,2.2c0,0,1.8-1.5,2.8-3C528.6,88,528.4,86.6,528.5,85.5z M544.8,51.2c-0.3,2.6-0.9,5.1-1.3,5.6
					s-3.2,1.7-6.4,2.8l-5.6,1.9l0.5-4.3c0.6-5,0.8-5.3,6.7-8.3C545.1,45.5,545.4,45.6,544.8,51.2z"/>
			</defs>
			<clipPath id="SVGID_18_">
				<use xlink:href="#SVGID_17_"  style="overflow:visible;"/>
			</clipPath>
			
				<linearGradient id="SVGID_19_" gradientUnits="userSpaceOnUse" x1="500.1904" y1="-26.9868" x2="707.3266" y2="180.1494" gradientTransform="matrix(1 0 0 -1 0 111.8898)">
				<stop  offset="0" style="stop-color:#F5FF77"/>
				<stop  offset="0" style="stop-color:#FFC66C"/>
				<stop  offset="4.238903e-02" style="stop-color:#FFC169"/>
				<stop  offset="9.573603e-02" style="stop-color:#FFB161"/>
				<stop  offset="0.1547" style="stop-color:#FF9754"/>
				<stop  offset="0.2096" style="stop-color:#FF7945"/>
				<stop  offset="0.2421" style="stop-color:#F76C49"/>
				<stop  offset="0.3184" style="stop-color:#E75451"/>
				<stop  offset="0.3652" style="stop-color:#E14B54"/>
				<stop  offset="0.4123" style="stop-color:#DB495B"/>
				<stop  offset="0.4803" style="stop-color:#CB426E"/>
				<stop  offset="0.5607" style="stop-color:#B0378D"/>
				<stop  offset="0.6239" style="stop-color:#972DAB"/>
				<stop  offset="0.6893" style="stop-color:#8729B4"/>
				<stop  offset="0.8174" style="stop-color:#5D20CB"/>
				<stop  offset="0.9943" style="stop-color:#1911F1"/>
				<stop  offset="1" style="stop-color:#1710F2"/>
			</linearGradient>
			<path class="st23" d="M730,98.5V-27.9c0-26-24.1-47.1-53.9-47.1H531.4c-29.7,0-53.9,21.1-53.9,47.1V98.5
				c0,26,24.1,47.1,53.9,47.1h144.7C705.9,145.6,730,124.5,730,98.5z"/>
		</g>
	</g>
	<g>
		<g>
			<defs>
				<path id="SVGID_20_" d="M671.8,61.3l-3.1,0.3h-2.5l0.5-11.2c0.5-9.9,0.4-11.5-0.8-13.2c-1.4-2.2-2.8-2.4-6.5-1.1
					c-4.7,1.7-10.8,13.6-13.1,25.9c-1.7,8.4-2.6,18.2-1.8,19.5c1.1,1.9,2.9,0.5,4.8-3.8c1.5-3.4,2.3-4.3,5.6-5.9
					c2.1-1.1,4.1-1.7,4.4-1.6c0.3,0.2,0.8,3,1.1,6.2c0.4,3.2,0.7,6.5,0.8,7.3c0.2,1.8,2.6,2.7,4.8,1.9c1.7-0.6,1.7-1,1.4-4.3
					c-0.2-2-0.6-6-0.9-9c-0.5-5.4-0.5-5.4,2-7.7C669.1,64.1,671.3,61.8,671.8,61.3C671.8,61.4,671.8,61.3,671.8,61.3z M660,49.3
					c-0.3,2.9-0.5,7.2-0.5,9.9c0,4.7,0,4.7-2.6,5.9c-3.8,1.5-4.1,1.4-3.7-1.4c1.5-8.7,5.1-19.3,6.5-19.3
					C660.2,44.3,660.3,46.3,660,49.3z"/>
			</defs>
			<clipPath id="SVGID_21_">
				<use xlink:href="#SVGID_20_"  style="overflow:visible;"/>
			</clipPath>
			
				<linearGradient id="SVGID_22_" gradientUnits="userSpaceOnUse" x1="500.1904" y1="-26.9868" x2="707.3266" y2="180.1494" gradientTransform="matrix(1 0 0 -1 0 111.8898)">
				<stop  offset="0" style="stop-color:#F5FF77"/>
				<stop  offset="0" style="stop-color:#FFC66C"/>
				<stop  offset="4.238903e-02" style="stop-color:#FFC169"/>
				<stop  offset="9.573603e-02" style="stop-color:#FFB161"/>
				<stop  offset="0.1547" style="stop-color:#FF9754"/>
				<stop  offset="0.2096" style="stop-color:#FF7945"/>
				<stop  offset="0.2421" style="stop-color:#F76C49"/>
				<stop  offset="0.3184" style="stop-color:#E75451"/>
				<stop  offset="0.3652" style="stop-color:#E14B54"/>
				<stop  offset="0.4123" style="stop-color:#DB495B"/>
				<stop  offset="0.4803" style="stop-color:#CB426E"/>
				<stop  offset="0.5607" style="stop-color:#B0378D"/>
				<stop  offset="0.6239" style="stop-color:#972DAB"/>
				<stop  offset="0.6893" style="stop-color:#8729B4"/>
				<stop  offset="0.8174" style="stop-color:#5D20CB"/>
				<stop  offset="0.9943" style="stop-color:#1911F1"/>
				<stop  offset="1" style="stop-color:#1710F2"/>
			</linearGradient>
			<path class="st24" d="M730,98.5V-27.9c0-26-24.1-47.1-53.9-47.1H531.4c-29.7,0-53.9,21.1-53.9,47.1V98.5
				c0,26,24.1,47.1,53.9,47.1h144.7C705.9,145.6,730,124.5,730,98.5z"/>
		</g>
	</g>
	<g>
		<g>
			<defs>
				<path id="SVGID_23_" d="M680.2,39.8c-2.3,1-4.1,2.9-5,5.2c-0.5,1.1-0.7,2.4-0.9,3.6c-1.8,10.4-2.6,21-2.5,31.6
					c0,0.4,0,0.9,0.3,1.2c0.2,0.2,0.6,0.3,0.9,0.4c1.6,0,2.6-1.6,3.3-3.1c0.4-0.8,0.7-1.6,1.1-2.4c0.6-1.2,1.1-2.4,1.4-3.7
					c0.4-1.7,0.2-3.4,0.4-5.1c0.7-7.3,0.1-8.8,1.9-20C681.5,45.4,683.8,38.2,680.2,39.8z"/>
			</defs>
			<clipPath id="SVGID_24_">
				<use xlink:href="#SVGID_23_"  style="overflow:visible;"/>
			</clipPath>
			
				<linearGradient id="SVGID_25_" gradientUnits="userSpaceOnUse" x1="500.1904" y1="-26.9868" x2="707.3266" y2="180.1494" gradientTransform="matrix(1 0 0 -1 0 111.8898)">
				<stop  offset="0" style="stop-color:#F5FF77"/>
				<stop  offset="0" style="stop-color:#FFC66C"/>
				<stop  offset="4.238903e-02" style="stop-color:#FFC169"/>
				<stop  offset="9.573603e-02" style="stop-color:#FFB161"/>
				<stop  offset="0.1547" style="stop-color:#FF9754"/>
				<stop  offset="0.2096" style="stop-color:#FF7945"/>
				<stop  offset="0.2421" style="stop-color:#F76C49"/>
				<stop  offset="0.3184" style="stop-color:#E75451"/>
				<stop  offset="0.3652" style="stop-color:#E14B54"/>
				<stop  offset="0.4123" style="stop-color:#DB495B"/>
				<stop  offset="0.4803" style="stop-color:#CB426E"/>
				<stop  offset="0.5607" style="stop-color:#B0378D"/>
				<stop  offset="0.6239" style="stop-color:#972DAB"/>
				<stop  offset="0.6893" style="stop-color:#8729B4"/>
				<stop  offset="0.8174" style="stop-color:#5D20CB"/>
				<stop  offset="0.9943" style="stop-color:#1911F1"/>
				<stop  offset="1" style="stop-color:#1710F2"/>
			</linearGradient>
			<path class="st25" d="M730,98.5V-27.9c0-26-24.1-47.1-53.9-47.1H531.4c-29.7,0-53.9,21.1-53.9,47.1V98.5
				c0,26,24.1,47.1,53.9,47.1h144.7C705.9,145.6,730,124.5,730,98.5z"/>
		</g>
	</g>
	<g>
		<g>
			<defs>
				<path id="SVGID_26_" d="M674.9,33.7c-0.3,0.6-0.4,1.2-0.6,1.8c-0.1,0.4-0.2,0.7-0.1,1.1c0,0.3,0.2,0.5,0.3,0.7
					c1.1,1.5,6.1,0.8,7.7-1.9C685.6,29.7,678,27.8,674.9,33.7z"/>
			</defs>
			<clipPath id="SVGID_27_">
				<use xlink:href="#SVGID_26_"  style="overflow:visible;"/>
			</clipPath>
			
				<linearGradient id="SVGID_28_" gradientUnits="userSpaceOnUse" x1="500.1904" y1="-26.9868" x2="707.3266" y2="180.1494" gradientTransform="matrix(1 0 0 -1 0 111.8898)">
				<stop  offset="0" style="stop-color:#F5FF77"/>
				<stop  offset="0" style="stop-color:#FFC66C"/>
				<stop  offset="4.238903e-02" style="stop-color:#FFC169"/>
				<stop  offset="9.573603e-02" style="stop-color:#FFB161"/>
				<stop  offset="0.1547" style="stop-color:#FF9754"/>
				<stop  offset="0.2096" style="stop-color:#FF7945"/>
				<stop  offset="0.2421" style="stop-color:#F76C49"/>
				<stop  offset="0.3184" style="stop-color:#E75451"/>
				<stop  offset="0.3652" style="stop-color:#E14B54"/>
				<stop  offset="0.4123" style="stop-color:#DB495B"/>
				<stop  offset="0.4803" style="stop-color:#CB426E"/>
				<stop  offset="0.5607" style="stop-color:#B0378D"/>
				<stop  offset="0.6239" style="stop-color:#972DAB"/>
				<stop  offset="0.6893" style="stop-color:#8729B4"/>
				<stop  offset="0.8174" style="stop-color:#5D20CB"/>
				<stop  offset="0.9943" style="stop-color:#1911F1"/>
				<stop  offset="1" style="stop-color:#1710F2"/>
			</linearGradient>
			<path class="st26" d="M730,98.5V-27.9c0-26-24.1-47.1-53.9-47.1H531.4c-29.7,0-53.9,21.1-53.9,47.1V98.5
				c0,26,24.1,47.1,53.9,47.1h144.7C705.9,145.6,730,124.5,730,98.5z"/>
		</g>
	</g>
</g>
<path class="st21" d="M56.7,51.7c-0.4-1.7-0.3-1.5-0.4-3.6c0-0.5-0.7-3.2,2.1-5.4c1.7-1.3,6.2-4.5,6.2-4.5c3.7-1.6,5.5-3,5.5-3
	l1.4-0.9c2.2-1.1,4.9-3.4,4.1-4.1c0,0-0.8-0.7-2-0.6c-1.2,0-5.3,1.4-7.1,2c-1.7,0.6-4.4,1.4-5.7,1.7c-2.3,0.5-2.4,0.4-2-1.3
	c0.2-0.9,1.4-6.8,2.6-13c1.4-6,2.5-11.7,2.7-12.4c0.4-1.7-2-4.3-4.1-4.3c-0.8-0.1-1.9,0.8-2.5,2c-1.3,2.5-3.5,11.6-5.8,23.7
	l-1.7,8.9l-4.8,2.2c-7.7,3.5-7.6,3.8-5.5-7.7c1-5.1,1.1-7.5,0.6-8c-1-1-5.7-1.1-7.1-0.2c-1,0.6-3.6,12-4.4,19.2
	c-0.4,3.2-0.9,4.7-2.1,5.5c-0.8,0.7-5.9,4.1-11.4,7.5C10.1,58.8,5.3,62,5,62.3c-1,1,3.2,4.5,5.3,4.5c2.2,0,5.1-1.4,10.9-5.3
	c5.4-3.7,6.1-3.7,5.5-0.2c-0.8,4.7-1.1,5.5-2.9,6.3c-0.9,0.5-3.9,2.6-6.7,4.6c-5.4,4-5.7,5.1-2,6.6c1.9,0.8,2.8,0.7,5.9-0.6
	c2-0.8,3.9-1.3,4.1-1c0.2,0.4,0.3,2.9,0.3,5.8s0.2,6.2,0.5,7.3c0.9,4.4,0.7,10.1,2.4,8.5c0,0,2.4-5.4,3.4-6.9
	c0.4-1.2,0.4-5.3,0.5-6.4c0.2-3.6,0.8-9.6,1.4-12.9c0.4-1.7,1.4-2.6,5.6-4.7c2.9-1.4,6.2-0.4,6.6,0c0.8,0.8,0.8,0.8,1,2.7
	c0.2,2.9,0.1,4.1-0.1,6.9l-0.2,3l0.3,4.8c0,0,0.2,6.4,1.9,6.4c1,0,2.5,0.4,2.8-1c0.2-1.1,0.7-7.3,0.7-9.2c0-1.5,0.8-6.3,1.1-8.3
	c0.8-7.5,0.7-11,3.8-12.8c7.9-3.6,12.3-6.8,15.7-8.5c1-0.5,2.7-1.7,3.2-2.3c1.5-3.3,0.1-3.6-1.6-3.7c-2.2-0.1-4.6,1.8-5.5,2.1
	l-7.6,3C60.3,51.6,57,52.8,56.7,51.7z M35.2,61.4c-1.1-1.1-1-4.2-1-4.2c-0.1-4.3,2.3-5.3,8.2-8.3c6.4-3.4,6.7-3.3,6.1,2.3
	c-0.3,2.6-0.9,5.1-1.3,5.6c-0.4,0.5-3.1,1.6-6.1,3C40.4,60.3,36.3,62.5,35.2,61.4z"/>
</svg>
