<?xml version="1.0" encoding="utf-8"?>
<!-- Generator: Adobe Illustrator 24.2.0, SVG Export Plug-In . SVG Version: 6.00 Build 0)  -->
<svg version="1.1" id="Layer_1" xmlns="http://www.w3.org/2000/svg" xmlns:xlink="http://www.w3.org/1999/xlink" x="0px" y="0px"
	 viewBox="0 0 263.4 263.4" style="enable-background:new 0 0 263.4 263.4;" xml:space="preserve">
<style type="text/css">
	.st0{fill:url(#SVGID_1_);}
	.st1{fill:#FFFFFF;}
</style>
<g>
	<linearGradient id="SVGID_1_" gradientUnits="userSpaceOnUse" x1="16.8123" y1="246.5833" x2="247.2846" y2="16.111">
		<stop  offset="0" style="stop-color:#F5FF77"/>
		<stop  offset="0" style="stop-color:#FFC66C"/>
		<stop  offset="4.238903e-02" style="stop-color:#FFC169"/>
		<stop  offset="9.573603e-02" style="stop-color:#FFB161"/>
		<stop  offset="0.1547" style="stop-color:#FF9754"/>
		<stop  offset="0.2096" style="stop-color:#FF7945"/>
		<stop  offset="0.2421" style="stop-color:#F76C49"/>
		<stop  offset="0.3184" style="stop-color:#E75451"/>
		<stop  offset="0.3652" style="stop-color:#E14B54"/>
		<stop  offset="0.4123" style="stop-color:#DB495B"/>
		<stop  offset="0.4803" style="stop-color:#CB426E"/>
		<stop  offset="0.5607" style="stop-color:#B0378D"/>
		<stop  offset="0.6239" style="stop-color:#972DAB"/>
		<stop  offset="0.6893" style="stop-color:#8729B4"/>
		<stop  offset="0.8174" style="stop-color:#5D20CB"/>
		<stop  offset="0.9943" style="stop-color:#1911F1"/>
		<stop  offset="1" style="stop-color:#1710F2"/>
	</linearGradient>
	<path class="st0" d="M263.4,207.2v-151c0-31-25.2-56.2-56.2-56.2l-151,0C25.2,0,0,25.2,0,56.2l0,151c0,31,25.2,56.2,56.2,56.2h151
		C238.2,263.4,263.4,238.2,263.4,207.2z"/>
	<path class="st1" d="M82.1,106.7c-5.7,0-10.1-0.1-14.5,0c-4,0.1-7-1.5-7.3-5.4c-0.5-6.1-0.5-12.3,0-18.5c0.3-3.9,3.4-5.7,7.2-5.7
		c4.2-0.1,8.5-0.4,12.7,0c4.1,0.4,5.8-1.3,6.2-5.2c1.4-12.2,3-24.4,4.3-36.7c1-10.2,1.8-11.5,12-12.4c5.2-0.5,10.4-0.3,15.6,0.1
		c6.5,0.5,8.1,3,7.3,9.4c-1.9,14.5-3.8,29.1-5.8,44.2c1.6,0.2,3,0.6,4.5,0.6c9,0.1,17.9-0.1,26.9,0.1c3.7,0.1,5.3-1,5.7-5.1
		c1.3-13.8,3.4-27.5,4.8-41.2c0.5-4.9,3.2-7.3,7.3-7.6c7-0.5,14.1-0.4,21.2-0.1c4.4,0.2,6.4,2.9,5.8,7.6
		c-1.7,12.9-3.1,25.8-4.7,38.7c-0.3,2.2-0.4,4.3-0.6,7.4c4.2,0,8,0.1,11.8,0c5.3-0.3,8.7,2.2,9.2,7.3c0.6,5.3,0.6,10.8,0,16.1
		c-0.5,4.2-3.3,6.8-8.1,6.6c-5.4-0.2-10.8,0-16.7,0c-1.8,15.4-3.6,30.3-5.5,46.2c4.5,0,8.3,0,12.1,0c6.6,0.1,8.7,1.2,9.7,7.8
		c0.7,5.2,0.3,10.7-0.3,16c-0.4,4.3-3.2,6.3-7.8,6.1c-5.6-0.2-11.1-0.1-17.3-0.1c-1.1,8.5-2.2,16.9-3.2,25.2
		c-1.1,8.7-2.1,17.4-3.1,26.1c-0.5,4.4-3.6,6.2-7.3,6.4c-6.5,0.4-13.1,0.5-19.7,0.1c-6-0.3-7.7-2.4-7-8.6c1.4-12.4,3-24.8,4.5-37.2
		c0.5-3.8,0.9-7.6,1.4-12c-11.6,0-22.7-0.1-33.8,0.1c-1,0-2.7,2-2.9,3.2c-1.9,14.7-3.7,29.5-5.2,44.2c-0.8,7.9-1.9,9.6-10.1,10.3
		c-6,0.5-12.1,0.2-18.2-0.2c-4.3-0.3-6.6-2.5-6-7.4c1.8-14.1,3.2-28.2,4.8-42.2c0.3-2.5,0.3-4.9,0.5-8c-4.8,0-9-0.2-13.1,0
		c-4.3,0.2-7.2-1.7-7.6-5.8c-0.5-6-0.4-12.1,0.1-18c0.3-4.1,3.5-5.9,7.6-5.9c4.4,0,8.8,0.2,13.2-0.2c1.4-0.1,3.9-1.5,4-2.5
		C78.6,136.1,80.2,121.8,82.1,106.7z M110.8,153c11.6,0,22.5,0.1,33.4-0.2c1.1,0,2.7-2.6,3-4.2c0.9-4.6,1.3-9.3,1.8-14
		c1.1-9.1,2.2-18.3,3.3-28c-11.6,0-22.7-0.1-33.8,0.1c-1,0-2.7,2-2.9,3.2C114,124.1,112.5,138.1,110.8,153z"/>
</g>
</svg>
