<?xml version="1.0" encoding="utf-8"?>
<!-- Generator: Adobe Illustrator 24.2.0, SVG Export Plug-In . SVG Version: 6.00 Build 0)  -->
<svg version="1.1" id="레이어_1" xmlns="http://www.w3.org/2000/svg" xmlns:xlink="http://www.w3.org/1999/xlink" x="0px"
	 y="0px" viewBox="0 0 366 280" style="enable-background:new 0 0 366 280;" xml:space="preserve">
<style type="text/css">
	.st0{fill:#595959;}
</style>
<path class="st0" d="M101.7,56.2c-2.2,4.2-5.8,19.3-9.6,39.2l-2.7,14.7l-8.1,3.6c-12.8,5.8-12.5,6.2-9.1-12.8
	c1.6-8.4,1.9-12.4,1-13.3c-1.6-1.6-9.4-1.7-11.7-0.4c-1.6,1-6,19.7-7.3,31.7c-0.6,5.3-1.5,7.7-3.5,9.1c-1.4,1.1-9.8,6.7-18.8,12.4
	c-8.8,5.8-16.6,11.1-17.3,11.7c-1.6,1.6,5.3,7.5,8.8,7.5c3.6,0,8.4-2.4,18-8.8c8.9-6.1,10.1-6.1,9.1-0.2c-1.4,7.7-1.9,9.1-4.7,10.4
	c-1.5,0.9-6.5,4.2-11.1,7.6c-8.9,6.6-9.4,8.4-3.4,10.9c3.1,1.4,4.6,1.1,9.8-1c3.4-1.4,6.5-2.1,6.8-1.6c0.2,0.6,0.5,4.8,0.5,9.6
	c0,4.7,0.2,10.2,0.7,12c0.9,3.2,1,3.4,2.7,1.2c1-1.2,1.4-1.5,0.9-0.5c-0.5,1.1-0.2,1.5,0.9,1.1c1-0.4,1.7-1.7,1.7-3.1
	c0-1.5,0.4-3.1,1-3.6c0.5-0.5,0.9,0,0.9,1.2c0,4.7,2.1,0.5,2.2-4.5c0.2-6,1.2-15.9,2.2-21.2c0.6-2.7,2.4-4.2,9.3-7.7
	c4.7-2.4,9.3-4.3,10.3-4.3c1.4,0,1.9,2.1,2.2,8.8c0.2,4.8,0,9.8-0.5,11.1c-0.6,1.6-0.1,3.2,1.2,4.5c1.5,1.6,1.6,2.4,0.5,2.7
	c-2.4,0.7-1.7,2.7,1,2.7c1.6,0,2.7-1.1,3.2-3.5c0.4-1.9,1.2-5.3,1.9-7.8s1.4-7.2,1.7-10.6c1.4-12.4,2.2-14.4,7.5-17.3
	c2.7-1.6,4.8-3.7,5-5.1c0.1-2.1-0.5-2.4-4.1-2l-4.2,0.5l0.7-5.3c2.6-17,2.5-16.8,13.9-22.4c5.7-2.7,10.4-5.6,10.4-6.2
	c0-0.6,0.9-1.1,1.9-1.1c3.2,0,8.1-3.9,8.1-6.3c0-1.4-0.5-2.4-1.2-2.4c-0.6,0-1.2,0.5-1.2,1c0,0.6-1.6,1.1-3.6,1.2
	c-2,0-6.1,0.9-9.1,1.9c-2.9,1-7.2,2.2-9.4,2.7c-3.9,0.7-4,0.6-3.4-2.1c0.4-1.5,2.4-11.3,4.3-21.5c2.1-10.3,4-19.6,4.2-20.9
	c0.6-2.9-3.4-7.1-6.7-7.1C104.5,52.8,102.7,54.3,101.7,56.2z M86.6,133.8c-0.5,4.3-1.5,8.4-2.1,9.3c-0.6,0.7-5.3,2.9-10.6,4.6
	l-9.3,3.1l0.9-7.1c1-8.3,1.4-8.8,11.1-13.8C87.1,124.3,87.6,124.6,86.6,133.8z"/>
<path class="st0" d="M253.7,65.4c-2.1,4.7-4.2,12-8.7,29.3c-1.2,4.8-2,5.6-10.3,9.7c-5,2.5-9.2,4.7-9.6,5.1c-0.4,0.4,1,2,3,3.7
	c2.9,2.5,4.6,3,7.8,2.5c4.8-0.9,4.8-0.7,2.4,11.2c-5.7,26.8-7.3,48.1-4.5,55.1c1.5,3.4,1.7,3.6,2.9,1.6c0.9-1.6,0.9-2.4-0.2-2.7
	c-1.9-0.6,0.6-4,3-4c1,0,2.1-3.6,3.1-9.7c2.4-15.5,8.7-50.2,10.1-55c1-4.1,1.9-4.8,8.3-7.2c3.9-1.4,11.1-3.5,15.8-4.6
	c4.8-1.1,9.3-2.9,10.1-3.7c0.7-1,2.1-1.7,2.9-1.7c0.9,0,1.1-0.6,0.7-1.2c-1-1.6-11.7-1.6-23.6,0.1c-5.2,0.7-9.8,1.1-10.1,0.9
	c-0.2-0.4,1-5.7,2.6-12c3.5-12.7,3.9-18.8,1.6-21C258.2,59,256.1,60.1,253.7,65.4z"/>
<path class="st0" d="M206.8,80.3c-8.4,29.2-20.1,99.5-18,107.7c0.6,2.4,5.2,5.1,8.4,5.1c1.9,0,2.2-1.4,5-19.3
	c1.1-6.8,2.5-14.7,3.2-17.4c1.6-6,7.5-18,8.8-18c1.1,0,0.9,1.4-4.1,26.5c-5.3,26.3-4.2,34.5,3.7,28.4c2.4-2,3.6-5.8,7.7-24.6
	c5.2-23.6,6.5-37.5,3.7-40.7c-1.9-2.2-9.1-2.6-12.8-0.6c-1.4,0.7-2.7,1-3.1,0.6c-0.4-0.2,1.6-11.9,4.3-25.8
	c4.6-22.7,4.8-25.5,3.2-28.1c-1-1.5-3.1-2.7-4.7-2.7C209.7,71.4,209,72.5,206.8,80.3z"/>
<path class="st0" d="M316.1,106.3c-5.2,1.1-7.8,3.5-11.9,11.1c-4.2,7.8-6.7,16-7.7,25.7l-0.9,7.8h-4.2h-4.1l0.7-18.5
	c0.7-16.3,0.6-19-1.2-21.7c-2.2-3.6-4.6-4-10.7-1.9c-7.7,2.7-17.8,22.5-21.6,42.7c-2.7,13.9-4.2,30.1-3,32.2
	c1.7,3.1,4.8,0.7,7.9-6.2c2.5-5.6,3.9-7.1,9.2-9.8c3.5-1.7,6.7-2.9,7.3-2.6c0.5,0.4,1.4,5,1.9,10.3c0.6,5.3,1.1,10.8,1.2,12
	c0.4,3,4.2,4.5,7.9,3.1c2.7-1,2.9-1.6,2.2-7.1c-0.4-3.2-1-9.9-1.5-14.9c-0.7-8.9-0.7-8.9,3.2-12.7c2.2-2.1,4.1-3.7,4.3-3.7
	c0.1,0,0.6,3.6,0.9,8.1c0.4,7.2,1,8.6,4.7,12.4c7.5,7.7,17,5,29.2-8.3c7.6-8.2,9.6-13.2,6.7-16.6c-1-1.2,0.4-2.5,6.2-5.3
	c5.1-2.6,7.3-4.3,6.8-5.6c-0.4-1,0.2-2,1.6-2.4c1.2-0.4,0.6-0.6-1.6-0.7c-5.6-0.1-31.9,8.4-34.9,11.6c-0.5,0.4,2.1,2,5.6,3.5
	c3.6,1.5,6.5,3.1,6.5,3.5c0,1.6-15.2,16.1-16.6,16.1c-2.6,0-3.4-7.1-2-17.6c1.6-13,2.1-15.3,5.8-24.3c2.2-5.6,3.6-7.5,4.5-6.6
	c1,1,1,2.9,0,6.3c-0.6,2.7-1,5.2-0.6,5.6c0.9,0.9,8.3,0.7,10.8-0.1c2.4-1,5.6-8.2,5.6-12.8c0-2.2-1.5-4.8-4.6-7.8
	C324.5,105.9,321.9,105.1,316.1,106.3z M276.9,130.6c-0.5,4.7-0.9,11.9-0.9,16.3c0,7.7,0,7.8-4.3,9.7c-6.2,2.5-6.8,2.2-6.1-2.4
	c2.5-14.3,8.4-31.9,10.8-31.9C277.2,122.3,277.3,125.7,276.9,130.6z"/>
<path class="st0" d="M131,117.6c-4.2,5.3-14.7,30.4-19.6,47.6c-2.6,8.9-4.1,10.8-10.6,13.7c-5.7,2.6-5.7,4.5-0.1,6.2
	c4.5,1.2,4.6,1.6,2.6,14.8c-1.6,10.8-1.1,13.3,2.5,12.3c1.5-0.4,2.2-1.1,1.9-1.9c-0.4-0.6-1.5-0.4-2.7,0.5c-1.6,1.4-1.7,1.4-1.2-0.2
	c0.4-1,1.9-1.7,3.2-1.6c2.1,0.2,3-0.9,4.6-6c1.1-3.4,2.2-6.8,2.4-7.7c0.1-0.9,1.2-4.6,2.4-8.4c1.7-5.8,2.7-7.2,6.6-9.1
	c3.4-1.5,4.8-1.7,5.5-0.7c0.5,0.9,1.2,7.7,1.7,15.3c0.5,7.7,1.1,14,1.4,14.3c0.9,0.9,5.3-2.2,6.2-4.3c0.5-1.2,1.2-9.1,1.6-17.4
	l0.5-15.3l5.2-3.1c6.3-3.9,14.2-10.6,12.3-10.6c-0.7,0-4.7,1-8.9,2.4c-4.1,1.2-7.6,2.1-7.8,2c-0.2-0.2,0-8.2,0.6-17.6
	c0.5-9.4,0.6-18.4,0.2-19.9c-0.4-1.6-2.4-3.6-4.3-4.7C132.6,115.7,132.6,115.7,131,117.6z M129.5,158.3c0,5-0.5,6.3-2.6,7.5
	c-1.4,0.9-2.9,1.1-3.2,0.9c-0.9-1,3.6-14.5,4.8-14.5C129,152.1,129.5,154.9,129.5,158.3z"/>
<path class="st0" d="M172.4,119.5c-4,1-8.2,5.5-11.3,12.2c-5.2,11.1-3.6,16.8,8.1,28.9c4.2,4.2,7.6,8.4,7.6,9.2c0,0.7-3,4.2-6.6,7.7
	c-33.2,31.9-39.5,39.1-42.5,48.8c-1,3.6,1.9,3.9,5,0.4c1.2-1.4,2.7-2.1,3.4-1.7c0.6,0.4,5.3-3.7,10.4-9.2c5.1-5.6,15.4-15.4,23-22.1
	c12.9-11.4,17.3-16.6,17.3-21c0-1-3.9-6.1-8.7-11.3c-4.7-5.1-8.8-10.6-8.9-12c-0.5-8.1,1.6-13.2,9.2-22.2c2.6-3.4,4.5-6.5,4.1-7.2
	C181.5,118.6,176.8,118.4,172.4,119.5z"/>
</svg>
