<?xml version="1.0" encoding="utf-8"?>
<!-- Generator: Adobe Illustrator 24.2.0, SVG Export Plug-In . SVG Version: 6.00 Build 0)  -->
<svg version="1.1" id="Layer_1" xmlns="http://www.w3.org/2000/svg" xmlns:xlink="http://www.w3.org/1999/xlink" x="0px" y="0px"
	 viewBox="0 0 41.3 41.3" style="enable-background:new 0 0 41.3 41.3;" xml:space="preserve">
<style type="text/css">
	.st0{fill:url(#SVGID_1_);}
	.st1{fill:#FFFFFF;}
	.st2{fill:url(#SVGID_2_);}
</style>
<image style="overflow:visible;" width="209" height="214" xlink:href="CDB757D5.jpg"  transform="matrix(1 0 0 1 66.0275 -289.4295)">
</image>
<linearGradient id="SVGID_1_" gradientUnits="userSpaceOnUse" x1="2.6361" y1="38.6639" x2="38.7738" y2="2.5262">
	<stop  offset="0" style="stop-color:#F5FF77"/>
	<stop  offset="0" style="stop-color:#FFC66C"/>
	<stop  offset="4.238903e-02" style="stop-color:#FFC169"/>
	<stop  offset="9.573603e-02" style="stop-color:#FFB161"/>
	<stop  offset="0.1547" style="stop-color:#FF9754"/>
	<stop  offset="0.2096" style="stop-color:#FF7945"/>
	<stop  offset="0.2421" style="stop-color:#F76C49"/>
	<stop  offset="0.3184" style="stop-color:#E75451"/>
	<stop  offset="0.3652" style="stop-color:#E14B54"/>
	<stop  offset="0.4123" style="stop-color:#DB495B"/>
	<stop  offset="0.4803" style="stop-color:#CB426E"/>
	<stop  offset="0.5607" style="stop-color:#B0378D"/>
	<stop  offset="0.6239" style="stop-color:#972DAB"/>
	<stop  offset="0.6893" style="stop-color:#8729B4"/>
	<stop  offset="0.8174" style="stop-color:#5D20CB"/>
	<stop  offset="0.9943" style="stop-color:#1911F1"/>
	<stop  offset="1" style="stop-color:#1710F2"/>
</linearGradient>
<path class="st0" d="M41.3,32.5V8.8c0-4.9-3.9-8.8-8.8-8.8L8.8,0C3.9,0,0,3.9,0,8.8l0,23.7c0,4.9,3.9,8.8,8.8,8.8h23.7
	C37.4,41.3,41.3,37.4,41.3,32.5z"/>
<path class="st1" d="M12.9,16.7c-0.9,0-1.6,0-2.3,0c-0.6,0-1.1-0.2-1.1-0.8c-0.1-1-0.1-1.9,0-2.9c0-0.6,0.5-0.9,1.1-0.9
	c0.7,0,1.3-0.1,2,0c0.6,0.1,0.9-0.2,1-0.8c0.2-1.9,0.5-3.8,0.7-5.8c0.2-1.6,0.3-1.8,1.9-1.9c0.8-0.1,1.6,0,2.4,0
	c1,0.1,1.3,0.5,1.1,1.5c-0.3,2.3-0.6,4.6-0.9,6.9c0.3,0,0.5,0.1,0.7,0.1c1.4,0,2.8,0,4.2,0c0.6,0,0.8-0.2,0.9-0.8
	c0.2-2.2,0.5-4.3,0.7-6.5c0.1-0.8,0.5-1.1,1.1-1.2c1.1-0.1,2.2-0.1,3.3,0c0.7,0,1,0.5,0.9,1.2c-0.3,2-0.5,4-0.7,6.1
	c0,0.3-0.1,0.7-0.1,1.2c0.7,0,1.3,0,1.9,0c0.8,0,1.4,0.3,1.4,1.1c0.1,0.8,0.1,1.7,0,2.5c-0.1,0.7-0.5,1.1-1.3,1c-0.8,0-1.7,0-2.6,0
	c-0.3,2.4-0.6,4.8-0.9,7.2c0.7,0,1.3,0,1.9,0c1,0,1.4,0.2,1.5,1.2c0.1,0.8,0,1.7,0,2.5c-0.1,0.7-0.5,1-1.2,1c-0.9,0-1.7,0-2.7,0
	c-0.2,1.3-0.3,2.6-0.5,3.9c-0.2,1.4-0.3,2.7-0.5,4.1c-0.1,0.7-0.6,1-1.1,1c-1,0.1-2.1,0.1-3.1,0c-0.9-0.1-1.2-0.4-1.1-1.3
	c0.2-1.9,0.5-3.9,0.7-5.8c0.1-0.6,0.1-1.2,0.2-1.9c-1.8,0-3.6,0-5.3,0c-0.2,0-0.4,0.3-0.4,0.5c-0.3,2.3-0.6,4.6-0.8,6.9
	c-0.1,1.2-0.3,1.5-1.6,1.6c-0.9,0.1-1.9,0-2.8,0c-0.7,0-1-0.4-0.9-1.2c0.3-2.2,0.5-4.4,0.7-6.6c0-0.4,0.1-0.8,0.1-1.3
	c-0.7,0-1.4,0-2.1,0c-0.7,0-1.1-0.3-1.2-0.9c-0.1-0.9-0.1-1.9,0-2.8C8.2,24.3,8.7,24,9.3,24c0.7,0,1.4,0,2.1,0
	c0.2,0,0.6-0.2,0.6-0.4C12.3,21.3,12.6,19.1,12.9,16.7z M17.4,24c1.8,0,3.5,0,5.2,0c0.2,0,0.4-0.4,0.5-0.7c0.1-0.7,0.2-1.5,0.3-2.2
	c0.2-1.4,0.3-2.9,0.5-4.4c-1.8,0-3.6,0-5.3,0c-0.2,0-0.4,0.3-0.5,0.5C17.9,19.5,17.6,21.7,17.4,24z"/>
<linearGradient id="SVGID_2_" gradientUnits="userSpaceOnUse" x1="-405.4062" y1="-143.5836" x2="-240.1869" y2="-308.8029">
	<stop  offset="0" style="stop-color:#F5FF77"/>
	<stop  offset="0" style="stop-color:#FFC66C"/>
	<stop  offset="4.238903e-02" style="stop-color:#FFC169"/>
	<stop  offset="9.573603e-02" style="stop-color:#FFB161"/>
	<stop  offset="0.1547" style="stop-color:#FF9754"/>
	<stop  offset="0.2096" style="stop-color:#FF7945"/>
	<stop  offset="0.2421" style="stop-color:#F76C49"/>
	<stop  offset="0.3184" style="stop-color:#E75451"/>
	<stop  offset="0.3652" style="stop-color:#E14B54"/>
	<stop  offset="0.4123" style="stop-color:#DB495B"/>
	<stop  offset="0.4803" style="stop-color:#CB426E"/>
	<stop  offset="0.5607" style="stop-color:#B0378D"/>
	<stop  offset="0.6239" style="stop-color:#972DAB"/>
	<stop  offset="0.6893" style="stop-color:#8729B4"/>
	<stop  offset="0.8174" style="stop-color:#5D20CB"/>
	<stop  offset="0.9943" style="stop-color:#1911F1"/>
	<stop  offset="1" style="stop-color:#1710F2"/>
</linearGradient>
<path class="st2" d="M-228.6-171.8v-108.2c0-22.3-18-40.3-40.3-40.3h-108.2c-22.3,0-40.3,18-40.3,40.3v108.2
	c0,22.3,18,40.3,40.3,40.3h108.2C-246.7-131.5-228.6-149.6-228.6-171.8z"/>
</svg>
