<?xml version="1.0" encoding="utf-8"?>
<!-- Generator: Adobe Illustrator 24.2.0, SVG Export Plug-In . SVG Version: 6.00 Build 0)  -->
<svg version="1.1" id="Layer_1" xmlns="http://www.w3.org/2000/svg" xmlns:xlink="http://www.w3.org/1999/xlink" x="0px" y="0px"
	 viewBox="0 0 221.3 112.3" style="enable-background:new 0 0 221.3 112.3;" xml:space="preserve">
<style type="text/css">
	.st0{fill:#FFFFFF;}
</style>
<path class="st0" d="M60.3,4.3C59,6.8,56.8,15.9,54.5,28l-1.7,8.9L48,39.1c-7.7,3.5-7.6,3.8-5.5-7.7c1-5.1,1.1-7.5,0.6-8
	c-1-1-5.7-1.1-7.1-0.2c-1,0.6-3.6,12-4.4,19.2c-0.4,3.2-0.9,4.7-2.1,5.5c-0.8,0.7-5.9,4.1-11.4,7.5C12.8,58.8,8,62,7.7,62.3
	c-1,1,3.2,4.5,5.3,4.5c2.2,0,5.1-1.4,10.9-5.3c5.4-3.7,6.1-3.7,5.5-0.2c-0.8,4.7-1.1,5.5-2.9,6.3c-0.9,0.5-3.9,2.6-6.7,4.6
	c-5.4,4-5.7,5.1-2,6.6c1.9,0.8,2.8,0.7,5.9-0.6c2-0.8,3.9-1.3,4.1-1c0.2,0.4,0.3,2.9,0.3,5.8c0,2.9,0.2,6.2,0.5,7.3
	c0.5,2,0.6,2,1.7,0.8c0.6-0.8,0.8-0.9,0.5-0.3c-0.3,0.7-0.2,0.9,0.5,0.7c0.6-0.2,1.1-1.1,1.1-1.9c0-0.9,0.2-1.9,0.6-2.2
	c0.3-0.3,0.5,0,0.5,0.8c0,2.9,1.3,0.3,1.4-2.7c0.2-3.6,0.8-9.6,1.4-12.9c0.4-1.7,1.4-2.6,5.6-4.7c2.9-1.4,5.6-2.6,6.2-2.6
	c0.8,0,1.1,1.3,1.4,5.3c0.2,2.9,0,5.9-0.3,6.7c-0.4,1-0.1,2,0.8,2.7c0.9,1,1,1.4,0.3,1.7c-1.4,0.5-1.1,1.7,0.6,1.7
	c1,0,1.7-0.7,2-2.1c0.2-1.1,0.8-3.2,1.1-4.7s0.8-4.4,1.1-6.4c0.8-7.5,1.4-8.7,4.5-10.5c1.7-1,2.9-2.3,3-3.1c0.1-1.3-0.3-1.4-2.5-1.2
	l-2.6,0.3l0.5-3.2c1.6-10.3,1.5-10.2,8.4-13.5c3.5-1.7,6.3-3.4,6.3-3.8s0.5-0.7,1.1-0.7c2,0,4.9-2.3,4.9-3.8c0-0.8-0.3-1.4-0.8-1.4
	c-0.4,0-0.8,0.3-0.8,0.6c0,0.4-1,0.7-2.2,0.8c-1.2,0-3.7,0.5-5.5,1.1c-1.7,0.6-4.4,1.4-5.7,1.7c-2.3,0.5-2.4,0.4-2-1.3
	c0.2-0.9,1.4-6.8,2.6-13c1.3-6.2,2.4-11.9,2.6-12.6c0.4-1.7-2-4.3-4.1-4.3C62,2.2,60.9,3.1,60.3,4.3z M51.2,51.2
	c-0.3,2.6-0.9,5.1-1.3,5.6c-0.4,0.5-3.2,1.7-6.4,2.8l-5.6,1.9l0.5-4.3c0.6-5,0.8-5.3,6.7-8.3C51.5,45.5,51.8,45.6,51.2,51.2z"/>
<path class="st0" d="M152.4,9.8c-1.3,2.9-2.6,7.3-5.3,17.8c-0.8,2.9-1.2,3.4-6.2,5.9c-3,1.5-5.6,2.9-5.8,3.1
	c-0.2,0.2,0.6,1.2,1.8,2.3c1.7,1.5,2.8,1.8,4.7,1.5c2.9-0.5,2.9-0.5,1.4,6.8c-3.5,16.2-4.4,29.1-2.7,33.4c0.9,2,1.1,2.2,1.7,1
	c0.5-1,0.5-1.4-0.2-1.7c-1.1-0.4,0.4-2.4,1.8-2.4c0.6,0,1.3-2.2,1.9-5.9c1.4-9.4,5.3-30.4,6.1-33.3c0.6-2.5,1.1-2.9,5-4.4
	c2.3-0.8,6.7-2.1,9.6-2.8c2.9-0.7,5.6-1.7,6.1-2.3c0.5-0.6,1.3-1.1,1.7-1.1c0.5,0,0.7-0.4,0.5-0.8c-0.6-1-7.1-1-14.3,0.1
	c-3.2,0.5-5.9,0.7-6.1,0.5c-0.2-0.2,0.6-3.5,1.6-7.3c2.1-7.7,2.3-11.4,1-12.7C155.1,5.9,153.8,6.6,152.4,9.8z"/>
<path class="st0" d="M123.9,18.9c-5.1,17.7-12.2,60.3-10.9,65.2c0.4,1.4,3.2,3.1,5.1,3.1c1.1,0,1.4-0.8,3-11.7
	c0.7-4.1,1.5-8.9,2-10.5c1-3.6,4.5-10.9,5.3-10.9c0.7,0,0.5,0.8-2.5,16c-3.2,15.9-2.6,20.9,2.3,17.2c1.4-1.2,2.2-3.5,4.7-14.9
	c3.2-14.3,3.9-22.7,2.3-24.7c-1.1-1.4-5.5-1.6-7.7-0.4c-0.8,0.5-1.7,0.6-1.9,0.4c-0.2-0.2,1-7.2,2.6-15.6c2.8-13.8,2.9-15.4,2-17
	c-0.6-0.9-1.9-1.7-2.9-1.7C125.8,13.4,125.3,14.1,123.9,18.9z"/>
<path class="st0" d="M190.1,34.6c-3.2,0.7-4.7,2.1-7.2,6.7c-2.6,4.7-4.1,9.7-4.7,15.6l-0.5,4.7h-2.6h-2.5l0.5-11.2
	c0.5-9.9,0.4-11.5-0.8-13.2c-1.4-2.2-2.8-2.4-6.5-1.1c-4.7,1.7-10.8,13.6-13.1,25.9c-1.7,8.4-2.6,18.2-1.8,19.5
	c1.1,1.9,2.9,0.5,4.8-3.8c1.5-3.4,2.3-4.3,5.6-5.9c2.1-1.1,4.1-1.7,4.4-1.6c0.3,0.2,0.8,3,1.1,6.2c0.4,3.2,0.7,6.5,0.8,7.3
	c0.2,1.8,2.6,2.7,4.8,1.9c1.7-0.6,1.7-1,1.4-4.3c-0.2-2-0.6-6-0.9-9c-0.5-5.4-0.5-5.4,2-7.7c1.4-1.3,2.5-2.3,2.6-2.3
	c0.1,0,0.4,2.2,0.5,4.9c0.2,4.4,0.6,5.2,2.9,7.5c4.5,4.7,10.3,3,17.7-5c4.6-5,5.8-8,4.1-10.1c-0.6-0.8,0.2-1.5,3.8-3.2
	c3.1-1.6,4.4-2.6,4.1-3.4c-0.2-0.6,0.2-1.2,1-1.4c0.8-0.2,0.4-0.4-1-0.5c-3.4-0.1-19.3,5.1-21.1,7c-0.3,0.2,1.3,1.2,3.4,2.1
	c2.2,0.9,3.9,1.9,3.9,2.1c0,1-9.2,9.8-10.1,9.8c-1.6,0-2-4.3-1.2-10.7c1-7.9,1.3-9.3,3.5-14.7c1.4-3.4,2.2-4.5,2.7-4
	c0.6,0.6,0.6,1.7,0,3.8c-0.4,1.7-0.6,3.2-0.4,3.4c0.5,0.5,5,0.5,6.5-0.1c1.4-0.6,3.4-5,3.4-7.7c0-1.4-0.9-2.9-2.8-4.7
	C195.3,34.4,193.7,33.8,190.1,34.6z M166.4,49.3c-0.3,2.9-0.5,7.2-0.5,9.9c0,4.7,0,4.7-2.6,5.9c-3.8,1.5-4.1,1.4-3.7-1.4
	c1.5-8.7,5.1-19.3,6.5-19.3C166.6,44.3,166.7,46.3,166.4,49.3z"/>
<path class="st0" d="M78.1,41.4c-2.6,3.2-8.9,18.4-11.9,28.8c-1.6,5.4-2.5,6.5-6.4,8.3c-3.5,1.6-3.5,2.7-0.1,3.8
	c2.7,0.8,2.8,1,1.6,9c-1,6.5-0.7,8,1.5,7.4c0.9-0.2,1.4-0.7,1.1-1.1c-0.2-0.4-0.9-0.2-1.7,0.3c-1,0.8-1.1,0.8-0.8-0.2
	c0.2-0.6,1.1-1.1,2-1c1.3,0.2,1.8-0.5,2.8-3.6c0.7-2,1.4-4.1,1.4-4.7c0.1-0.5,0.8-2.8,1.4-5.1c1.1-3.5,1.7-4.4,4-5.5
	c2-0.9,2.9-1.1,3.3-0.5c0.3,0.5,0.8,4.7,1.1,9.3c0.3,4.7,0.7,8.5,0.8,8.7c0.5,0.5,3.2-1.4,3.8-2.6c0.3-0.8,0.8-5.5,1-10.5l0.3-9.3
	l3.2-1.9c3.8-2.3,8.6-6.4,7.4-6.4c-0.5,0-2.9,0.6-5.4,1.4c-2.5,0.8-4.6,1.3-4.7,1.2c-0.2-0.2,0-5,0.4-10.7c0.3-5.7,0.4-11.1,0.2-12
	c-0.2-1-1.4-2.2-2.6-2.9C79,40.3,79,40.3,78.1,41.4z M77.2,66.1c0,3-0.3,3.8-1.6,4.5c-0.8,0.5-1.7,0.7-2,0.5
	c-0.5-0.6,2.2-8.8,2.9-8.8C76.9,62.3,77.2,64,77.2,66.1z"/>
<path class="st0" d="M103.1,42.6c-2.4,0.6-5,3.3-6.8,7.4c-3.2,6.7-2.2,10.2,4.9,17.5c2.6,2.6,4.6,5.1,4.6,5.6c0,0.5-1.8,2.6-4,4.7
	C81.7,97,77.8,101.4,76,107.2c-0.6,2.2,1.1,2.3,3,0.2c0.8-0.8,1.7-1.3,2-1.1c0.4,0.2,3.2-2.3,6.3-5.6c3.1-3.4,9.3-9.3,13.9-13.4
	c7.8-6.9,10.5-10.1,10.5-12.7c0-0.6-2.3-3.7-5.3-6.8c-2.9-3.1-5.3-6.4-5.4-7.3c-0.3-4.9,1-8,5.6-13.5c1.6-2,2.7-3.9,2.5-4.4
	C108.7,42,105.8,41.9,103.1,42.6z"/>
</svg>
